<svg width="19" height="19" viewBox="0 0 19 19" fill="none" xmlns="http://www.w3.org/2000/svg">
<path d="M9.5 0C4.25319 0 0 4.25341 0 9.5C0 14.7468 4.25319 19 9.5 19C14.7468 19 19 14.7468 19 9.5C19 4.25341 14.7468 0 9.5 0ZM9.5 17.2727C5.2073 17.2727 1.72727 13.7929 1.72727 9.5C1.72727 5.2073 5.2073 1.72727 9.5 1.72727C13.7927 1.72727 17.2727 5.2073 17.2727 9.5C17.2727 13.7929 13.7927 17.2727 9.5 17.2727ZM12.7015 11.4803C13.0387 11.8176 13.0387 12.3645 12.7015 12.7017C12.5331 12.8701 12.3118 12.9545 12.0909 12.9545C11.87 12.9548 11.6489 12.8703 11.4803 12.7017L8.88941 10.1108C8.72748 9.94887 8.63636 9.7293 8.63636 9.5V4.31818C8.63636 3.84124 9.02306 3.45455 9.5 3.45455C9.97694 3.45455 10.3636 3.84124 10.3636 4.31818V9.14246L12.7015 11.4803Z" fill="#333333"/>
</svg>
