<svg width="54" height="57" viewBox="0 0 54 57" fill="none" xmlns="http://www.w3.org/2000/svg">
<path fill-rule="evenodd" clip-rule="evenodd" d="M6.95764 0.536672C7.23091 0.31125 7.49367 -0.0233669 7.88605 0.0012886C7.94094 0.0134819 7.9921 0.0387824 8.03522 0.0750371C8.07834 0.111292 8.11215 0.157438 8.13379 0.209592C8.15544 0.261747 8.16428 0.318372 8.15958 0.374685C8.15487 0.430999 8.13676 0.485351 8.10677 0.533146C7.837 0.998079 7.30798 1.27986 7.14332 1.81171C7.14332 1.97373 7.26244 2.10405 7.37805 2.19211C7.59877 2.22733 7.82299 2.19212 8.04371 2.22382C8.48514 2.29778 8.97913 2.30835 9.32947 2.62887C9.36617 2.6619 9.39553 2.70234 9.41563 2.74756C9.43572 2.79277 9.44611 2.84175 9.44611 2.89127C9.44611 2.9408 9.43572 2.98976 9.41563 3.03497C9.39553 3.08019 9.36617 3.12064 9.32947 3.15367C9.23549 3.24135 9.12521 3.3095 9.00497 3.35423C8.88473 3.39896 8.75689 3.41937 8.62878 3.41432C8.12248 3.4427 7.61895 3.50863 7.1223 3.61156C6.60029 3.73131 6.07127 3.55873 5.54925 3.58691C5.33785 3.60878 5.14315 3.71233 5.00622 3.87572C4.81163 4.13007 4.66985 4.42113 4.58931 4.73163C4.4143 5.1172 4.32694 5.53712 4.33356 5.96088C4.41179 6.48156 4.41179 7.0111 4.33356 7.53179C4.2733 7.86282 4.25915 8.20067 4.29152 8.53562C4.29152 8.88784 4.5753 9.16961 4.72945 9.47957C4.95206 9.9232 5.2037 10.3515 5.48269 10.7617C5.57396 10.8637 5.68175 10.9494 5.8015 11.0153C6.01872 11.1632 6.2044 11.3675 6.41811 11.5013C6.45319 11.5277 6.49341 11.5464 6.53615 11.5561C6.5789 11.5659 6.6232 11.5664 6.66618 11.5578C6.70915 11.5492 6.74983 11.5315 6.78557 11.506C6.8213 11.4805 6.85128 11.4477 6.87356 11.4097C6.97516 11.1808 7.17485 10.9483 7.07325 10.6842C6.96991 10.3681 6.95297 10.0299 7.02421 9.705C7.27779 9.34863 7.49715 8.96888 7.67935 8.57084C7.85802 8.12 7.79847 7.61632 7.95612 7.16196C8.02693 6.87938 8.15746 6.61544 8.33883 6.38813C8.52019 6.16081 8.74814 5.97546 9.00715 5.84465C9.86873 5.5324 10.8117 5.5324 11.6733 5.84465C12.0708 5.96834 12.4407 6.16806 12.7628 6.43286C13.0131 6.69281 13.2471 6.96807 13.4635 7.25705C13.6843 7.55644 13.9365 7.8347 14.1327 8.1517C14.1668 8.20728 14.1849 8.2713 14.1849 8.33661C14.1849 8.40192 14.1668 8.46594 14.1327 8.52153C14.0171 8.59197 13.8314 8.60959 13.7823 8.76809C13.7569 8.95843 13.7428 9.15016 13.7403 9.34221C13.7053 9.69443 13.4811 9.98325 13.4425 10.3284C13.4005 10.6032 13.4425 10.8849 13.4005 11.1632C13.2253 11.2548 12.9906 11.1632 12.8154 11.2724C12.6299 11.4565 12.5031 11.6919 12.451 11.9486C12.409 12.1353 12.5211 12.3009 12.5141 12.4981C12.3705 12.6813 12.0867 12.7235 11.9991 12.956C11.9492 13.096 11.8731 13.2251 11.7749 13.3364C11.5997 13.3153 11.4035 13.2836 11.2809 13.4456C11.1982 13.4598 11.1136 13.4574 11.0318 13.4387C10.9501 13.42 10.8728 13.3852 10.8044 13.3364C10.6659 13.3627 10.5246 13.371 10.384 13.3611C10.3703 13.7956 10.327 14.2287 10.2544 14.6572C10.2475 14.685 10.2344 14.7109 10.2162 14.7329C10.198 14.7549 10.175 14.7725 10.1491 14.7843C10.1232 14.7962 10.0949 14.802 10.0664 14.8014C10.0379 14.8007 10.01 14.7936 9.98462 14.7805C9.5572 14.5727 9.1508 14.3261 8.7444 14.0761C8.5447 14.5727 8.94059 15.0165 9.11926 15.4568C9.38157 16.021 9.61543 16.5982 9.81995 17.1862C10.0583 17.9601 10.2536 18.7468 10.405 19.5425C10.4471 19.9969 10.5487 20.4442 10.6082 20.8986C10.7449 21.5608 10.899 22.2194 11.0602 22.8816C11.0993 23.0837 11.1215 23.2887 11.1267 23.4945C11.3983 23.5705 11.6787 23.6096 11.9606 23.6107C12.7383 23.6424 13.4951 23.8432 14.2623 23.9383C14.42 24.1073 14.6477 24.2447 14.7038 24.4842C14.8264 24.9034 14.9665 25.319 15.0751 25.7416C15.1012 25.844 15.1118 25.9496 15.1067 26.0551L14.8334 25.9142C14.7843 26.8934 15.0331 27.862 14.998 28.8412C15.0646 30.1937 15.1242 31.5462 15.1942 32.8953C15.3099 34.128 15.4185 35.3608 15.464 36.5971C15.6567 36.5971 15.8669 36.6746 16.0456 36.5654C16.7708 36.2132 17.5065 35.861 18.2457 35.5369C18.1859 35.3576 18.1072 35.1852 18.011 35.0227C17.7798 34.6705 17.6607 34.2337 17.4434 33.8533C17.2526 33.5257 17.0863 33.1843 16.946 32.8319C16.8303 32.5184 16.6517 32.2296 16.5291 31.9161C16.2908 31.2715 15.9685 30.6692 15.6882 30.0423C15.5739 29.8469 15.4855 29.6373 15.4255 29.4188C15.3904 28.7672 15.3484 28.1191 15.3519 27.4675C15.4079 27.6894 15.4465 27.9148 15.492 28.1403C15.6777 28.8835 16.1927 29.4611 16.5045 30.1514C16.6727 30.5037 16.8549 30.8207 17.0055 31.1623C16.8937 30.8816 16.8161 30.5883 16.7743 30.2888C16.2628 28.8799 15.7233 27.4992 15.2258 26.1009C15.2047 25.8297 15.6111 25.6994 15.5446 25.3965C15.4955 24.9914 15.4535 24.5864 15.4044 24.1813C15.2304 24.0207 15.0454 23.8724 14.8509 23.7375C14.7808 23.3853 14.8159 23.0331 14.7318 22.6808C14.6477 22.3286 14.5916 21.9165 14.4971 21.5396C14.3337 20.8423 14.2063 20.1369 14.1152 19.4263C14.0919 19.2878 14.0802 19.1476 14.0801 19.0072C14.3569 19.4791 14.4305 20.0356 14.7283 20.5006C14.7297 20.2132 14.6749 19.9284 14.5671 19.6623C14.5005 19.3629 14.403 19.0714 14.2763 18.7923C14.1367 18.4887 14.065 18.1581 14.0661 17.8237C13.919 17.6828 13.7543 17.5701 13.6002 17.4398C13.5056 17.2707 13.5406 17.0594 13.4705 16.8797C13.3903 16.7884 13.3177 16.6906 13.2533 16.5874C13.2315 16.3119 13.2315 16.0352 13.2533 15.7597C12.9801 15.4568 12.7453 15.1151 12.451 14.8298C12.0815 14.4994 11.7637 14.1146 11.5086 13.6886C11.8053 13.8191 12.0815 13.9923 12.3284 14.2029C12.7529 14.6348 13.1354 15.1066 13.4705 15.6117C13.6107 15.7984 13.5336 16.045 13.5476 16.2634C13.5616 16.4817 13.6807 16.5346 13.7578 16.6614C13.8512 16.8354 13.9061 17.0276 13.919 17.2249C14.0548 17.3275 14.1783 17.4457 14.2868 17.5771C14.3735 17.8702 14.4448 18.1677 14.5006 18.4683C14.6954 18.9047 14.8446 19.3603 14.9455 19.8278C14.9875 20.0251 15.1031 20.2223 15.0331 20.4301C14.8463 21.2085 14.8284 22.0182 14.9805 22.8041C15.0226 23.0507 14.928 23.3888 15.2153 23.5086C15.4768 23.4756 15.7423 23.4947 15.9965 23.5649C16.2253 23.6955 16.4199 23.8791 16.5641 24.1003C16.7217 24.3081 17.0335 24.2517 17.1912 24.4525C17.5541 24.8624 18.02 25.1666 18.54 25.3331L18.7748 25.1992C18.8347 24.7759 18.8523 24.3475 18.8273 23.9207C18.8273 23.5508 18.6977 23.1916 18.6942 22.8217C18.6549 22.5763 18.6035 22.3329 18.54 22.0926C18.425 21.6542 18.4672 21.1891 18.6591 20.7788C18.7486 20.587 18.8541 20.4032 18.9745 20.2294C19.374 19.7819 19.678 19.2569 19.8678 18.6866C19.9511 18.5188 20.0044 18.3376 20.0255 18.1513C20.0478 17.7807 20.1088 17.4135 20.2077 17.0559C20.627 16.8388 21.0736 16.68 21.5355 16.5839C21.7632 16.5843 21.9898 16.6175 22.2081 16.6825C22.4078 16.7318 22.6215 16.7459 22.8177 16.8128C22.889 16.8907 22.9319 16.9905 22.9396 17.096C22.9472 17.2016 22.9191 17.3066 22.8598 17.394C23.1365 17.5983 23.0174 18.0069 23.2557 18.2358C23.3608 18.3325 23.4248 18.4662 23.4343 18.6092C23.4904 18.7782 23.3187 18.8768 23.2662 19.0142C23.261 19.1322 23.2692 19.2503 23.2907 19.3664C23.2416 19.458 23.1891 19.5461 23.1436 19.6412C23.2486 19.8162 23.301 20.018 23.2942 20.2223C23.1716 20.3879 22.9439 20.4865 22.9158 20.719C22.8332 21.2452 22.8631 21.7832 23.0034 22.2969C23.0211 22.3671 23.0598 22.4301 23.1143 22.4774C23.1689 22.5246 23.2366 22.5539 23.3082 22.5611C23.8351 22.6378 24.3706 22.6307 24.8953 22.5399C24.9068 22.7372 24.8843 22.9351 24.8287 23.1246C24.8607 23.2267 24.9042 23.3248 24.9583 23.417C24.9046 23.5449 24.8703 23.6803 24.8567 23.8185C24.9132 23.9988 24.9531 24.1839 24.9759 24.3715C24.8077 24.4102 24.5975 24.4208 24.5029 24.5828C24.4083 24.7449 24.5554 24.8893 24.5029 25.0302C24.3838 25.171 24.2121 25.2943 24.2261 25.5056C24.4381 25.5915 24.6097 25.7552 24.7061 25.9635C24.7061 26.2101 24.4994 26.4038 24.5204 26.668C24.5162 26.7277 24.5272 26.7874 24.5523 26.8417C24.5774 26.8959 24.6159 26.9428 24.664 26.9779C24.8172 27.0351 24.9816 27.0556 25.144 27.0378C25.9387 26.9415 26.7216 26.7645 27.4808 26.5095C28.8822 25.8684 30.3431 25.2098 31.8846 24.935C32.0003 24.8998 32.1474 24.8681 32.1929 24.7378C32.2329 24.629 32.2455 24.5119 32.2296 24.397C32.2137 24.2821 32.1698 24.1729 32.1019 24.0792C31.8111 23.7269 31.3136 23.6318 31.0929 23.2268C30.9667 23.0401 31.0929 22.8182 31.0929 22.6174C31.1016 22.4632 31.0611 22.3102 30.9773 22.1807C30.8897 22.0151 30.9773 21.8285 30.8757 21.6559C30.7741 21.4833 30.5253 21.3706 30.3852 21.1733C30.3248 20.8365 30.3791 20.4891 30.5393 20.1871C30.642 19.8306 30.6528 19.4536 30.5709 19.0917C30.5358 18.8134 30.8862 18.7113 30.9002 18.4507C30.8713 18.2844 30.8106 18.1253 30.7215 17.9822C30.8828 17.8354 31.0189 17.6628 31.1244 17.4715C31.1681 17.3059 31.1916 17.1356 31.1945 16.9643C31.3521 16.7776 31.4572 16.531 31.6779 16.4078C31.8987 16.2845 32.0073 16.1013 32.221 16.0274C32.4878 16.0867 32.7629 16.0986 33.0338 16.0626C33.3841 16.0098 33.7345 15.7597 34.0848 15.964C34.5856 16.235 35.0485 16.5714 35.4617 16.9643C35.8519 17.2931 36.1868 17.6832 36.4531 18.1196C36.6388 18.433 36.5442 18.824 36.6598 19.1445C36.5968 19.3488 36.4356 19.5531 36.5197 19.775C36.6493 20.1554 36.8385 20.5111 36.9646 20.8951C37.0662 21.1839 36.9927 21.5079 37.1223 21.7862C37.1657 21.9307 37.1797 22.0825 37.1635 22.2326C37.1472 22.3827 37.101 22.528 37.0277 22.6597C37.0086 22.6987 36.9985 22.7415 36.998 22.785C36.9975 22.8285 37.0066 22.8716 37.0247 22.911C37.0428 22.9505 37.0695 22.9854 37.1027 23.0132C37.136 23.041 37.175 23.0611 37.2169 23.0718C37.7669 23.1352 38.345 23.0366 38.8775 23.2268C39.1257 23.2843 39.3625 23.3831 39.5782 23.5191C39.7677 23.7429 39.9333 23.9861 40.0722 24.2447C40.3328 24.6165 40.5525 25.0157 40.7273 25.4352C40.9691 26.2488 41.4946 26.9286 41.8239 27.7035C41.9395 27.9606 42.0166 28.2318 42.1462 28.4854C42.6682 29.5421 43.2743 30.5318 43.7929 31.5815C43.9155 31.8386 44.0766 32.0781 44.1852 32.3493C44.2852 32.5328 44.4026 32.7062 44.5356 32.8671C45.1066 33.6525 45.2643 34.6282 45.5236 35.5404C45.6322 36.0582 45.8249 36.5619 45.9019 37.0867C45.958 37.3509 46.0105 37.615 46.0666 37.8827C46.0894 37.9653 46.1284 38.0424 46.1814 38.1096C46.2343 38.1767 46.3001 38.2325 46.3749 38.2737C46.953 38.6259 47.4925 39.0556 48.0846 39.4078C48.2054 39.4855 48.2995 39.5987 48.3543 39.7319C48.7441 39.8217 49.1269 39.9395 49.5 40.0841C49.7607 40.1784 49.9993 40.3259 50.2006 40.5173C49.6361 40.2295 49.0349 40.0209 48.4139 39.8974C48.4139 40.0101 48.4489 40.1264 48.4629 40.2496C49.6057 40.3976 50.6843 40.8648 51.5761 41.5983C52.4679 42.3318 53.1372 43.302 53.5079 44.3988C54.1452 46.3608 54.0518 48.4887 53.2451 50.3866C52.306 52.7262 50.5371 54.6325 48.2808 55.7368C47.962 55.9024 47.6151 56.001 47.2998 56.1595C47.4294 56.2053 47.5556 56.244 47.6887 56.2898C47.7412 56.4835 47.7973 56.6737 47.8604 56.8639C33.1762 56.8639 18.4933 56.8639 3.81155 56.8639C3.82906 56.7371 3.84658 56.6103 3.8641 56.4871C4.01124 56.3814 4.21444 56.3004 4.25298 56.1066C4.29152 55.9129 4.25298 55.7368 4.35108 55.5713C4.57769 55.2509 4.78252 54.9155 4.96418 54.5674C5.11483 54.1835 5.24796 53.789 5.36357 53.391C5.40721 53.1808 5.40721 52.9637 5.36357 52.7535C5.21314 51.88 5.13928 50.9948 5.14285 50.1083C4.93615 49.9991 4.87309 49.7561 4.79251 49.5729C4.70547 49.3004 4.60491 49.0323 4.49121 48.7699C4.43866 48.6572 4.34407 48.5409 4.38961 48.4177C4.46669 48.0654 4.56829 47.6886 4.66288 47.3222C4.69993 47.1137 4.69993 46.9003 4.66288 46.6918C4.61734 46.2867 4.62084 45.8746 4.55077 45.4731C4.51565 45.3583 4.51565 45.2356 4.55077 45.1209C4.69091 44.7475 4.82404 44.3636 4.94316 43.9797C5.06228 43.5957 4.97469 43.1449 5.02374 42.7293C5.11881 42.5227 5.22525 42.3216 5.34255 42.127C5.54256 41.8101 5.65502 41.4454 5.66837 41.0703C5.58659 40.6567 5.35579 40.2879 5.02023 40.0348C4.82772 39.8928 4.66067 39.7189 4.52625 39.5205C4.52625 39.0521 4.55077 38.5907 4.52625 38.1117C4.35875 37.2738 4.28937 36.4191 4.31955 35.5651C4.35458 34.4873 4.31955 33.4095 4.24247 32.3317C4.20744 31.8844 4.26349 31.4335 4.26349 30.9862C4.26349 30.1726 4.3721 29.3625 4.41064 28.5488C4.69854 27.5333 5.04958 26.5369 5.46167 25.5655C5.59072 25.3371 5.70766 25.1019 5.81201 24.8611C5.52473 24.1566 4.94316 23.6424 4.58581 22.9908C4.24661 22.3255 3.95167 21.6383 3.70294 20.9338C3.54347 20.4141 3.42285 19.8831 3.34209 19.3453C3.26151 18.9191 3.1494 18.5035 3.06882 18.0808C2.94467 17.0568 2.56903 16.08 1.97574 15.2384C1.84539 15.0812 1.74556 14.9008 1.68145 14.7065C1.47756 13.7958 1.36025 12.8676 1.33111 11.9346C1.28913 11.1993 1.186 10.4688 1.0228 9.75079C0.915498 9.2131 0.885999 8.66264 0.935219 8.11647C0.912928 7.65178 0.952994 7.18619 1.05434 6.73225C1.30872 6.01654 1.61795 5.32175 1.97925 4.65414C2.20602 4.26625 2.40732 3.86385 2.58184 3.44954C2.69745 3.15015 2.85861 2.8719 2.99174 2.58308C3.0513 2.44219 3.19844 2.37879 3.28603 2.26256C3.47872 1.94203 3.52777 1.53698 3.80454 1.26929C3.92366 1.14953 4.03927 0.973425 4.23196 1.01921C4.42465 1.065 4.42815 1.2552 4.46669 1.38904C4.73606 0.968516 5.1222 0.636651 5.57728 0.434525C5.76997 0.360558 5.87858 0.554276 5.9031 0.716298C6.12502 0.494518 6.42404 0.368207 6.73692 0.364076C6.84553 0.364076 6.90158 0.46975 6.96815 0.536672H6.95764ZM6.96815 0.839577C6.77546 1.0967 6.47767 1.24111 6.26746 1.49119C6.05708 1.7187 5.93628 2.01543 5.92763 2.32595C6.02923 2.18154 6.06426 1.97373 6.21841 1.87863C6.41736 1.75511 6.6516 1.70182 6.88407 1.72718L6.66685 1.58981C6.83502 1.51584 7.07325 1.4454 7.09778 1.23759C7.16434 0.906501 7.55322 0.804357 7.70387 0.533146C7.77044 0.402825 7.92109 0.374648 8.05422 0.314771C8.00167 0.251371 7.95962 0.145703 7.85802 0.170359C7.46213 0.216148 7.24843 0.5895 6.99968 0.850144L6.96815 0.839577ZM5.20241 1.87863C5.28618 1.91612 5.3773 1.934 5.46894 1.93095C5.56057 1.9279 5.65032 1.90399 5.73143 1.86102C5.94865 1.5088 6.22892 1.15657 6.43212 0.804353C6.46293 0.747702 6.50864 0.700659 6.56425 0.668357C6.61986 0.636056 6.68323 0.619743 6.74743 0.621202C6.76495 0.659946 6.79648 0.740958 6.81049 0.786746L6.88056 0.666992C6.8105 0.575415 6.72291 0.455656 6.58627 0.497922C5.92763 0.712777 5.55626 1.33621 5.20942 1.90681L5.20241 1.87863ZM5.50371 0.656426C5.05877 0.857192 4.85908 1.33621 4.54727 1.67787C4.39027 1.85208 4.27097 2.05717 4.19693 2.28016C4.48925 1.96765 4.80049 1.67358 5.12884 1.39961C5.32153 1.25872 5.31102 0.980474 5.47919 0.81493C5.55977 0.726875 5.68589 0.726873 5.78399 0.69165C5.74573 0.655112 5.69678 0.631943 5.6444 0.625598C5.59201 0.619253 5.53899 0.630067 5.4932 0.656426H5.50371ZM3.83257 1.61447C3.74148 1.89977 3.63637 2.1745 3.53127 2.45627C3.40865 2.54785 3.26151 2.62535 3.20195 2.77328C3.0548 3.07619 2.89364 3.36501 2.77453 3.68553C2.56782 4.20682 2.242 4.67527 2.02129 5.19304C1.64642 5.95032 1.19798 6.72168 1.20498 7.58814C1.23677 8.05793 1.22387 8.5297 1.16645 8.99703C1.14471 9.24467 1.17946 9.49403 1.26805 9.72613C1.50452 10.5154 1.6226 11.3357 1.61839 12.16C1.74802 12.2339 1.87414 12.3079 2.00027 12.3854C1.93674 11.9303 1.83954 11.4805 1.70948 11.0399C1.60901 10.5463 1.48271 10.0584 1.33111 9.57819C1.26805 9.2471 1.46774 8.95124 1.56234 8.64833C1.75853 8.16931 1.87765 7.66211 2.06683 7.18309C2.24591 6.45847 2.4886 5.75125 2.79204 5.06976C2.93034 4.70881 3.12683 4.37323 3.37362 4.07649C3.54178 3.90743 3.78002 3.8405 3.95519 3.67848C3.98167 3.65878 4.0004 3.63033 4.00808 3.59812C4.01577 3.56592 4.01193 3.53201 3.99723 3.50237C3.85709 3.35444 3.64688 3.30513 3.52076 3.15015C3.39464 2.99517 3.71345 2.85781 3.74498 2.6817C3.74173 2.41355 3.77234 2.14607 3.83607 1.88568C3.88872 1.73398 3.95805 1.58868 4.04277 1.45245C4.11635 1.33622 4.24948 1.45245 4.34407 1.45245C4.34407 1.33269 4.2705 1.18828 4.12686 1.21998C3.98335 1.32043 3.87439 1.46319 3.81505 1.62856L3.83257 1.61447ZM6.68437 2.68523C6.6143 2.87895 6.62481 3.1889 6.85604 3.26286C7.49717 3.19946 8.16983 3.22412 8.77242 2.96347C8.91256 2.90359 8.89154 2.73453 8.90205 2.61125C8.3461 2.50849 7.78455 2.4391 7.2204 2.40344C6.98917 2.333 7.04873 2.05123 7.05574 1.88216C6.87692 2.12048 6.75035 2.39417 6.68437 2.68523V2.68523ZM9.31195 6.11233C8.96435 6.29462 8.64939 6.53389 8.38004 6.8203C8.16633 7.38738 8.11027 8.00377 7.95262 8.58141C7.62807 9.1028 7.3714 9.66388 7.18887 10.2509C7.29397 10.1136 7.41309 9.96564 7.60578 9.98677C7.58614 9.88176 7.59248 9.77352 7.62425 9.67156C7.65602 9.5696 7.71224 9.47705 7.78796 9.40208C7.89306 9.49014 7.99466 9.58172 8.10327 9.66977C8.22589 9.52184 8.12429 9.24358 8.33449 9.15201C8.49573 9.1278 8.66036 9.15918 8.80159 9.24105C8.94282 9.32292 9.05232 9.45043 9.11226 9.60285L9.41005 9.69443C9.39253 9.50423 9.24539 9.21893 9.4591 9.08861C9.68833 8.97901 9.94798 8.95166 10.1948 9.01112C10.2622 8.8908 10.3537 8.7858 10.4634 8.70275C10.5731 8.61971 10.6988 8.56041 10.8324 8.52858C10.9354 8.37174 10.9969 8.19112 11.0111 8.00376L11.2073 8.23975C11.287 8.26934 11.3729 8.27808 11.4568 8.26514C11.5408 8.2522 11.6201 8.21801 11.6873 8.16579C11.4175 7.9298 11.2108 7.46135 11.5121 7.17605C11.4999 7.37626 11.5347 7.57654 11.6137 7.76073C11.7504 8.00728 12.1182 8.11296 12.1357 8.41939C12.1603 8.58846 11.9711 8.66595 11.866 8.77161C12.0411 8.80683 12.2864 8.91602 12.409 8.72582C12.5982 8.47222 12.4335 8.17283 12.3564 7.90866C12.4844 8.01936 12.5738 8.16826 12.6116 8.33363C12.6494 8.49901 12.6337 8.67222 12.5667 8.82797C12.5141 8.96886 12.3564 8.99703 12.2373 9.05338L12.3529 9.25063C12.626 9.25011 12.8975 9.29047 13.1587 9.37038C13.2884 9.41265 13.2498 9.58876 13.2008 9.68386C13.0256 10.0361 13.1377 10.4165 13.1272 10.7793C13.0627 10.7082 12.9781 10.6586 12.8848 10.6372C12.7915 10.6158 12.694 10.6236 12.6052 10.6595C12.5827 10.6879 12.5669 10.721 12.559 10.7564C12.5512 10.7918 12.5514 10.8285 12.5596 10.8638C12.7094 10.9996 12.9013 11.0792 13.1027 11.0892C13.1246 11.0892 13.1463 11.0848 13.1665 11.0763C13.1867 11.0678 13.205 11.0552 13.2204 11.0395C13.2357 11.0238 13.2478 11.0051 13.2558 10.9846C13.2639 10.9641 13.2678 10.9422 13.2673 10.9202C13.2494 10.6681 13.2494 10.415 13.2673 10.1629C13.3298 9.94506 13.4047 9.73102 13.4916 9.52183C13.5522 9.29226 13.577 9.05462 13.5651 8.81739C13.4334 8.78893 13.3092 8.73239 13.201 8.65158C13.0928 8.57077 13.0032 8.46757 12.938 8.34894C12.8682 8.07764 12.8225 7.80065 12.8014 7.52122C13.0046 7.69029 12.966 7.9791 13.0711 8.19044C13.2526 8.32246 13.449 8.43242 13.6562 8.51801C13.7521 8.44411 13.8569 8.38257 13.968 8.33485C13.7171 7.86983 13.4113 7.43698 13.0571 7.04572C12.7823 6.68803 12.4203 6.40777 12.0061 6.23209C11.637 6.06329 11.2378 5.97106 10.8324 5.96088C10.3153 5.94961 9.79826 5.98497 9.28743 6.06654L9.31195 6.11233ZM4.0708 8.50745C3.79274 8.98623 3.67026 9.54033 3.72046 10.0924C3.81102 9.90685 3.91648 9.72897 4.03577 9.56058C4.20043 9.89167 4.2705 10.265 4.42465 10.6172C4.50172 10.7969 4.54377 10.9871 4.61734 11.1702C4.64601 10.7011 4.64601 10.2305 4.61734 9.76135C4.44567 9.33516 4.06379 8.9935 4.0673 8.51096L4.0708 8.50745ZM10.5732 8.89841C10.467 9.00245 10.3835 9.12758 10.328 9.26584C10.2725 9.4041 10.2462 9.55245 10.2509 9.70147C10.2394 9.74729 10.2443 9.79572 10.2648 9.83824C10.2853 9.88076 10.3201 9.91465 10.363 9.93394C10.4623 9.96391 10.5667 9.97312 10.6698 9.961C10.7728 9.94889 10.8723 9.9157 10.9621 9.86349C10.9832 9.627 11.0172 9.39184 11.0637 9.15905C11.2056 9.07515 11.3518 8.99873 11.5016 8.9301C11.5016 8.86318 11.4666 8.79626 11.4491 8.7223C11.2992 8.68727 11.1437 8.68454 10.9927 8.71429C10.8418 8.74403 10.6988 8.80558 10.5732 8.89488V8.89841ZM11.3825 9.19076C11.2644 9.48013 11.1821 9.78294 11.1372 10.0924C11.1127 10.2404 11.0356 10.3953 11.0952 10.5398C11.1968 10.8215 11.2388 11.1139 11.3124 11.4027C11.5962 11.2618 11.7679 10.9765 12.0131 10.8004C12.148 10.742 12.2874 10.6949 12.43 10.6595C12.4909 10.4758 12.5182 10.2824 12.5106 10.0889C12.3872 9.98064 12.2788 9.85627 12.1883 9.71909C12.1021 9.5236 12.0421 9.31753 12.0096 9.10622C11.7994 9.13087 11.5436 9.0393 11.3685 9.18723L11.3825 9.19076ZM7.90707 10.4411C7.90225 10.5262 7.86694 10.6066 7.80768 10.6675C7.74842 10.7283 7.66922 10.7656 7.58476 10.7722C7.39647 11.1528 7.16104 11.5078 6.88407 11.8289C7.03555 12.0553 7.1736 12.2905 7.29747 12.5333C7.40344 12.6929 7.52052 12.8448 7.64782 12.9877C7.74241 13.1075 7.78796 13.266 7.91758 13.3399C8.1418 13.4984 8.36252 13.664 8.58324 13.826C9.00791 14.0575 9.44539 14.2645 9.89353 14.4459C9.95797 14.2026 9.97931 13.9499 9.95659 13.6992C9.6903 13.5614 9.47349 13.3435 9.33648 13.0758C9.30144 12.9947 9.21035 12.8996 9.28743 12.8116C9.47311 12.9349 9.63777 13.1145 9.88652 13.0687C9.8155 12.9306 9.75914 12.7854 9.71835 12.6355C9.71835 12.5263 9.7709 12.4171 9.78142 12.3044C9.72931 12.1473 9.66849 11.9932 9.59924 11.843C9.72031 11.5825 9.77106 11.2946 9.74638 11.0082C9.93432 11.0754 10.117 11.1567 10.2929 11.2512C10.3196 11.1096 10.3824 10.9773 10.4751 10.8673C10.4751 11.0681 10.4751 11.2689 10.4751 11.4696C10.5181 11.5649 10.5774 11.652 10.6503 11.7267C10.749 11.6593 10.8326 11.5717 10.8955 11.4696C11.0847 11.1879 10.8955 10.8568 10.8324 10.5644C10.463 10.6496 10.0755 10.5996 9.73937 10.4235C9.52391 10.4972 9.30042 10.5445 9.07372 10.5644C9.14007 10.4175 9.21374 10.2741 9.29444 10.1347C8.81096 10.1981 8.35201 10.3566 7.87554 10.4447L7.90707 10.4411ZM4.72244 12.079C4.69872 12.2234 4.63839 12.3593 4.54727 12.4735C4.33388 12.8388 4.09993 13.1916 3.84658 13.5301C3.63988 13.7274 3.40515 13.9 3.18793 14.0937C3.52256 14.1411 3.86324 14.1208 4.18992 14.0338C4.439 13.8301 4.66886 13.6037 4.87659 13.3575C4.80599 13.7837 4.66633 14.1954 4.46319 14.5762C4.76799 14.2874 5.00622 13.9352 5.30051 13.6323C5.30051 13.1356 5.27599 12.6355 5.27599 12.1388C5.23124 11.5092 5.12683 10.8853 4.96418 10.2756C4.86762 10.8773 4.80562 11.4842 4.7785 12.0931L4.72244 12.079ZM11.8414 11.5577C11.9045 11.6598 12.0306 11.6774 12.1287 11.7267C12.185 11.6274 12.2604 11.5403 12.3507 11.4707C12.441 11.4012 12.5442 11.3505 12.6542 11.3217L12.7628 11.0857C12.6441 11.0593 12.5342 11.0022 12.444 10.9202C12.3609 10.9145 12.2775 10.9273 12.1997 10.9575C12.122 10.9878 12.0518 11.0347 11.994 11.0951C11.9363 11.1556 11.8924 11.228 11.8654 11.3073C11.8384 11.3866 11.8291 11.4708 11.8379 11.5542L11.8414 11.5577ZM5.67538 11.1738C5.71513 11.7248 5.71513 12.2781 5.67538 12.8292C5.68543 13.1079 5.67372 13.3871 5.64034 13.664C5.49076 14.1349 5.30932 14.5951 5.09731 15.0411C5.22889 15.0662 5.36307 15.0744 5.4967 15.0658C5.59886 14.9736 5.68839 14.8682 5.76296 14.7523C5.87858 14.5868 6.06426 14.4635 6.11331 14.2663C6.18005 13.7997 6.21051 13.3287 6.2044 12.8574C6.32229 13.1027 6.45936 13.3383 6.6143 13.5618C6.86388 13.8545 6.98963 14.2338 6.96465 14.6185C6.92661 14.9756 6.83446 15.3249 6.69138 15.654C6.17987 16.6261 5.8961 17.6969 5.41963 18.6866C5.21695 18.6405 5.02375 18.5595 4.84857 18.4471C4.70142 18.3309 4.55778 18.2182 4.40012 18.116C4.43166 18.5528 4.46669 18.9931 4.4807 19.4298C4.4731 19.6936 4.50982 19.9568 4.58931 20.2082C4.70776 20.5379 4.85306 20.8571 5.02374 21.1628C5.04222 21.19 5.05388 21.2213 5.0577 21.2541C5.06153 21.2868 5.05742 21.32 5.04571 21.3508C5.03401 21.3816 5.01506 21.4091 4.99049 21.4309C4.96592 21.4528 4.93646 21.4683 4.90462 21.4762C4.76139 21.4916 4.61693 21.4916 4.4737 21.4762C4.69091 21.6277 4.89061 21.8038 5.10432 21.9588C5.20942 22.0468 5.36007 22.1243 5.35656 22.2828C5.38459 22.6738 5.35656 23.0648 5.35656 23.4522C5.52555 23.0911 5.72975 22.7478 5.96616 22.4272C6.17753 22.1808 6.33828 21.8947 6.43913 21.5854C6.68437 20.3362 6.87356 19.0788 7.00669 17.8131C7.03121 17.6899 7.00669 17.5349 7.13281 17.4609C7.14896 17.7616 7.14076 18.0632 7.10829 18.3626C7.05574 18.9191 7.0207 19.4791 6.96114 20.0356C6.91182 20.7748 6.81587 21.5101 6.67386 22.237C6.63883 22.3568 6.64233 22.5012 6.54073 22.5893C6.27447 22.8464 5.97317 23.0683 5.71742 23.3395C5.62707 23.5358 5.55778 23.7413 5.51072 23.9523L5.64735 24.0298C6.09456 23.7958 6.51511 23.5135 6.90158 23.188C7.26945 23.188 7.63731 23.1458 8.00867 23.1458C7.66461 23.2805 7.32987 23.4382 7.00669 23.6177L7.18887 23.8749C7.66183 23.7269 8.1418 23.5896 8.61126 23.4346C8.80356 23.3705 9.002 23.3268 9.20335 23.3043C8.853 23.0014 8.37303 22.8464 8.0367 22.5082C7.97197 22.4607 7.91836 22.3995 7.87962 22.3289C7.84089 22.2583 7.81798 22.1801 7.81248 22.0997C7.78796 20.8493 7.837 19.5989 7.81248 18.345C7.82472 17.8241 7.80365 17.3029 7.74942 16.7846C7.74942 16.2739 7.59527 15.7843 7.55673 15.2771C7.53571 15.013 7.48666 14.7559 7.48316 14.4917C7.75507 15.1996 7.96377 15.9304 8.10677 16.6755C8.15631 16.9296 8.2363 17.1768 8.345 17.4116C8.69535 17.5948 9.04569 17.7638 9.39604 17.9223C9.46961 17.9575 9.6588 18.0174 9.65179 17.8801C9.42817 16.9569 9.10634 16.0606 8.69184 15.2067C8.52046 14.8518 8.42046 14.4664 8.39755 14.0725C8.15582 13.8647 7.89306 13.6816 7.66533 13.4597C7.58178 13.2973 7.482 13.1439 7.36754 13.0018C7.03822 12.6496 6.91209 12.1987 6.63883 11.8219C6.5138 11.8216 6.39173 11.7835 6.28848 11.7127L5.65085 11.1984L5.67538 11.1738ZM11.4946 11.6563C11.6558 11.8536 11.6908 12.1107 11.8449 12.3114C11.9991 12.5122 12.1603 12.403 12.3179 12.4277C12.3179 12.3044 12.2899 12.1846 12.2759 12.0754C12.1848 12.0754 12.0692 12.1459 11.9921 12.0754C11.8568 11.9564 11.7389 11.8189 11.6417 11.6669H11.5016L11.4946 11.6563ZM10.5101 11.9346C10.714 12.1454 10.9507 12.3215 11.2108 12.4558C11.3019 12.5052 11.3965 12.4065 11.4175 12.3255C11.4701 12.1142 11.3089 11.9275 11.1933 11.7655C10.9481 11.7655 10.7694 11.9627 10.5241 11.9346H10.5101ZM10.2754 12.0508C10.3116 12.281 10.4224 12.4928 10.5907 12.6531L10.92 12.5791C10.6888 12.4206 10.5136 12.1987 10.2719 12.0508H10.2754ZM2.30857 15.249C2.40187 15.4592 2.50715 15.6638 2.62388 15.8618C2.78153 16.1366 3.1529 16.0626 3.41566 16.126C3.38062 16.0415 3.34909 15.9569 3.31406 15.8724C3.11436 15.7984 2.89715 15.7632 2.70446 15.6751C2.5626 15.5415 2.43031 15.3979 2.30857 15.2454V15.249ZM33.216 16.2598C32.8879 16.3121 32.5544 16.3192 32.2245 16.281C32.0773 16.3866 31.9547 16.5205 31.8006 16.6332C31.6464 16.7459 31.5168 16.9854 31.3591 17.1333C31.3591 17.2038 31.3591 17.2742 31.3591 17.3447C31.6653 17.2316 31.9998 17.2217 32.3121 17.3165C32.4907 17.2003 32.7009 16.9643 32.9287 17.0981C33.0959 17.2369 33.2888 17.3411 33.4962 17.4046C33.6971 17.3182 33.9167 17.2854 34.1339 17.3095C34.0498 17.4151 33.9657 17.5243 33.8851 17.6335C33.9425 17.7819 34.0178 17.9227 34.1093 18.0526C34.2367 18.1296 34.3732 18.19 34.5157 18.2323C34.4837 18.0515 34.4157 17.879 34.316 17.7251C34.4372 17.7826 34.5543 17.8485 34.6664 17.9223C34.761 18.0632 34.7154 18.2499 34.761 18.4119C34.8225 18.5011 34.8929 18.5837 34.9712 18.6585C35.2585 18.6585 35.5492 18.6585 35.8365 18.6585C36.0432 18.7395 36.1588 18.9579 36.348 19.0635L36.3901 19.0353C36.4433 18.7588 36.3986 18.4722 36.2639 18.2252C36.0636 17.8751 35.8026 17.5637 35.4932 17.3059C35.283 17.2144 35.0272 17.2707 34.817 17.165C34.6932 17.0618 34.5825 16.9435 34.4877 16.8128C34.6132 16.8287 34.7396 16.8369 34.8661 16.8375C34.8661 16.7283 34.754 16.686 34.6839 16.6297C34.4457 16.4747 34.2144 16.3162 33.9832 16.1823C33.752 16.0485 33.4892 16.2387 33.2475 16.2739L33.216 16.2598ZM20.572 17.2108C20.3521 17.5244 20.2502 17.9065 20.2847 18.2886C20.558 18.0139 20.6736 17.549 21.087 17.4363C21.4235 17.3088 21.7787 17.2386 22.1381 17.2284C22.3291 17.2477 22.5216 17.2477 22.7126 17.2284C22.7371 17.2133 22.7564 17.1912 22.7682 17.1649C22.78 17.1385 22.7837 17.1093 22.7788 17.0809C22.7739 17.0524 22.7606 17.0261 22.7407 17.0054C22.7208 16.9846 22.6952 16.9703 22.6671 16.9643C22.3624 16.8667 22.0492 16.7983 21.7317 16.76C21.3029 16.764 20.889 16.9185 20.5615 17.1967L20.572 17.2108ZM21.3358 17.549C21.1781 17.6899 21.0555 17.8624 20.9013 18.0069C21.1015 17.9275 21.3175 17.8966 21.5318 17.9168C21.746 17.937 21.9525 18.0077 22.1346 18.1231C22.3676 18.2437 22.6349 18.2798 22.8913 18.2252C22.8973 18.1001 22.8675 17.9758 22.8054 17.8672C22.7433 17.7586 22.6515 17.6701 22.541 17.6124C22.154 17.4997 21.7464 17.478 21.3498 17.549H21.3358ZM33.0373 17.63C32.6869 17.7286 32.3191 17.8096 31.9617 17.8977C31.7222 17.9707 31.5115 18.1173 31.3591 18.3168C31.2155 18.5457 31.1139 18.8029 30.9878 19.0424C30.9878 19.1621 31.0193 19.2784 31.0368 19.3946C31.0992 19.2716 31.1866 19.1631 31.2935 19.0763C31.4003 18.9895 31.5242 18.9264 31.6569 18.8909C31.7515 19.0107 31.9092 19.1093 31.9442 19.2431C31.8426 19.6623 31.3451 19.694 31.0473 19.9194C30.9973 20.0432 30.9769 20.1772 30.9878 20.3104C31.0255 20.4952 31.1072 20.668 31.226 20.8141L30.9737 21.3987C31.0088 21.441 31.0438 21.4798 31.0824 21.5185C31.1104 21.7122 31.1454 21.8989 31.1769 22.0821C31.3031 21.8742 31.3766 21.6347 31.5273 21.4375C31.7471 21.3159 31.9728 21.2054 32.2035 21.1064C32.4898 21.2284 32.7512 21.4027 32.9742 21.6206C33.0303 21.7932 33.0093 21.9729 33.0758 22.156C33.2334 22.257 33.3644 22.3947 33.4577 22.5576L33.6118 22.4765C33.5374 22.2463 33.4183 22.0332 33.2615 21.8496C33.2332 21.6679 33.2215 21.484 33.2265 21.3001C33.0343 21.1177 32.8201 20.9603 32.5888 20.8317C32.9136 20.8723 33.2131 21.0285 33.4332 21.2719C33.4242 21.3892 33.4242 21.5069 33.4332 21.6242C33.5131 21.7705 33.602 21.9116 33.6994 22.0468C33.8605 22.0191 34.0231 22.0014 34.1864 21.994C34.0851 21.8174 33.9938 21.6351 33.9131 21.4481C34.0411 21.5157 34.1591 21.6011 34.2635 21.7017C34.3896 21.7439 34.5192 21.7686 34.6454 21.8003C34.6138 21.6911 34.5858 21.5749 34.5578 21.4481C34.6819 21.5258 34.7806 21.6385 34.8416 21.7721C34.9151 21.92 34.775 22.0574 34.7119 22.1807C34.8047 22.2412 34.8885 22.3148 34.9607 22.3991C35.0272 22.5188 34.9432 22.6562 34.8801 22.7513C34.3489 23.4516 33.8688 24.1897 33.4437 24.9597C33.3526 25.3542 33.3631 25.7698 33.2965 26.1678C33.2263 26.4009 33.1148 26.6193 32.9672 26.8124C32.9322 26.5764 32.9322 26.3439 32.9112 26.108C32.9112 26.0164 32.8446 25.9565 32.792 25.8896C32.6624 25.7416 32.5433 25.5937 32.4417 25.4387C32.3016 25.5867 32.0913 25.7064 32.0423 25.9213C31.8351 26.6054 31.7812 27.3271 31.8846 28.0346C32.1699 28.0377 32.4541 28.0708 32.7325 28.1332C32.8411 28.6756 33.0233 29.1899 33.1599 29.7288C33.1984 29.8485 33.223 29.9894 33.3386 30.0564C33.6539 30.2747 33.9377 30.5424 34.253 30.7608C34.9233 30.8218 35.5901 30.9134 36.2534 31.0355C36.6499 31.1432 37.0357 31.287 37.4061 31.4652C37.8701 31.3072 38.3561 31.224 38.846 31.2187C38.7444 31.0003 38.6253 30.7995 38.5447 30.5776C38.5301 30.1917 38.5477 29.8053 38.5972 29.4223C38.5802 29.2659 38.5232 29.1165 38.4317 28.9887C38.3402 28.861 38.2174 28.7592 38.0752 28.6933C37.9812 28.6376 37.8755 28.6048 37.7667 28.5975C37.6578 28.5901 37.5487 28.6085 37.4481 28.651C37.1854 28.7707 36.9751 29.0032 36.7054 29.0983C36.6786 29.108 36.6496 29.11 36.6217 29.1041C36.5938 29.0982 36.5681 29.0846 36.5474 29.0649C36.5267 29.0452 36.5118 29.0201 36.5045 28.9924C36.4971 28.9648 36.4975 28.9356 36.5057 28.9081C36.6615 28.3749 36.7786 27.8311 36.856 27.2808C36.8806 26.9674 36.856 26.6574 36.8736 26.3439C36.8736 26.2524 36.9366 26.1854 36.9857 26.122C37.1109 26.3052 37.2718 26.461 37.4586 26.5799C37.7179 26.7173 37.9456 26.904 38.2014 27.0554C38.2714 27.464 38.4011 27.855 38.5027 28.2565C38.5308 28.3718 38.5808 28.4806 38.6498 28.577C39.0492 29.1406 39.5257 29.6337 39.911 30.2184C40.1282 30.5142 40.2614 30.8594 40.4926 31.1482C40.688 31.3547 40.9054 31.5389 41.1407 31.6977C41.2473 31.5322 41.4067 31.408 41.5927 31.3455C41.6242 31.6132 41.6522 31.8773 41.6733 32.145C41.6717 32.2939 41.7171 32.4393 41.8029 32.5606C41.908 32.7086 42.1112 32.8072 42.1112 33.0115C42.1328 33.2681 42.1749 33.5225 42.2373 33.7723C42.317 33.9998 42.4203 34.2182 42.5456 34.4239C42.6647 34.7233 42.8224 35.0051 42.9485 35.3009C43.2333 35.8392 43.4906 36.3917 43.7193 36.9564C43.9255 37.3713 44.0571 37.8197 44.1082 38.2807C44.1087 38.5163 44.0935 38.7516 44.0626 38.9852C43.9916 39.2296 43.8724 39.4571 43.7123 39.6544C43.4215 40.0066 43.5161 40.5349 43.1447 40.8202C40.8922 42.0967 39.2055 44.1851 38.4256 46.6636C37.8637 48.3613 37.8637 50.1963 38.4256 51.8941C38.7561 52.8651 39.3206 53.7388 40.0687 54.4371C39.755 54.0589 39.477 53.6521 39.2384 53.222C38.4592 51.7047 38.2041 49.9699 38.5132 48.2909C38.8116 46.5901 39.5381 44.9945 40.6236 43.6559C41.7091 42.3174 43.1173 41.2805 44.7143 40.6441C44.6646 40.4828 44.6013 40.3261 44.5251 40.1757C44.3009 40.2532 44.0801 40.3307 43.8489 40.3941C43.8556 40.2687 43.8767 40.1446 43.912 40.0242C44.0311 39.8657 44.1817 39.7354 44.2938 39.5769C44.4913 39.664 44.6549 39.8137 44.7598 40.0031C44.8548 40.1861 44.9232 40.3818 44.963 40.5842C45.0065 41.0606 45.0921 41.5321 45.2188 41.9931C45.2573 42.2784 45.7303 42.215 45.7092 41.9333C45.7276 41.4633 45.7147 40.9926 45.6707 40.5244C45.6357 40.2567 45.5866 39.989 45.5691 39.7178C45.5516 39.5276 45.4009 39.3656 45.4009 39.1824C45.5481 39.349 45.6805 39.5281 45.7968 39.7178C45.9755 39.9256 45.9264 40.2179 45.9755 40.468C45.9926 40.7701 46.0254 41.0711 46.0736 41.3697C46.1261 41.5669 46.1437 41.7712 46.2102 41.965C46.2768 42.1587 46.5921 42.0389 46.6412 41.8558C46.7568 41.3169 46.6096 40.778 46.5991 40.2356C46.5781 39.9996 46.5991 39.7636 46.5641 39.5311C46.529 39.2986 46.3223 39.1472 46.2137 38.9535C46.3408 39.0156 46.4522 39.1059 46.5396 39.2175C46.6269 39.3292 46.688 39.4593 46.7182 39.598C46.7988 39.9503 46.8338 40.3306 46.8969 40.697C46.96 41.0633 46.8969 41.4014 46.9845 41.7536C47.0791 41.7536 47.1982 41.7959 47.2718 41.7114C47.4645 41.5282 47.4224 41.2394 47.4399 41.0069C47.4189 40.6547 47.3699 40.3025 47.3594 39.9503C47.3664 39.7244 47.3246 39.4996 47.2367 39.2916C46.8248 38.8798 46.3662 38.5181 45.8704 38.2138C45.7244 37.6402 45.6074 37.0594 45.52 36.4738C45.4465 36.0265 45.3169 35.5862 45.2117 35.1459C45.0502 34.5959 44.8391 34.0619 44.5811 33.5504C44.4941 33.3385 44.3849 33.1366 44.2553 32.9481C43.8719 32.3854 43.54 31.7889 43.2638 31.1658C42.9801 30.641 42.7804 30.074 42.4966 29.5527C42.367 29.2956 42.2163 29.0525 42.0867 28.8024C41.8625 28.3727 41.7363 27.9008 41.5016 27.471C41.2669 27.0413 41.0356 26.5834 40.8009 26.1361C40.7063 25.9494 40.6783 25.7346 40.5942 25.5444C40.2929 24.9351 39.8935 24.3821 39.5432 23.7833C39.396 23.5086 39.0492 23.4769 38.7899 23.3712C38.2784 23.181 37.7389 23.3148 37.2029 23.1704C37.0347 23.1387 36.8035 23.0753 36.8105 22.8675C36.8016 22.6234 36.8547 22.3809 36.9646 22.1631C37.0347 21.92 36.8385 21.7087 36.8455 21.4586C36.87 20.8458 36.4952 20.3315 36.32 19.7644C36.3064 19.6676 36.3005 19.5699 36.3025 19.4721C36.0898 19.298 35.861 19.1447 35.6193 19.0142C35.7763 19.3009 35.8225 19.6358 35.7489 19.9546C35.7034 20.1484 35.8155 20.335 35.8015 20.5323L35.9171 20.6344C35.9308 20.4701 35.9785 20.3106 36.0572 20.166C36.1378 20.3988 36.2869 20.6015 36.4847 20.7471C36.5873 20.8363 36.6554 20.9589 36.6772 21.0935C36.6989 21.228 36.673 21.366 36.6038 21.4833C36.5512 21.6242 36.4286 21.7651 36.4812 21.9236C36.5607 22.1074 36.5898 22.3093 36.5652 22.5082C36.5197 22.6773 36.5197 22.8992 36.3515 22.9943C36.2184 22.9168 36.1413 22.7689 36.0222 22.6703C35.9311 22.6949 35.819 22.7125 35.7595 22.6174C35.6152 22.4313 35.5038 22.2216 35.4301 21.9975C35.3145 21.9975 35.1919 22.0997 35.0798 21.9975C35.0483 21.7756 35.0798 21.5467 35.0798 21.3213C35.0798 21.1522 35.29 21.1029 35.3145 20.9479C35.3415 20.7436 35.3543 20.5376 35.3531 20.3315C35.2021 20.4086 35.0794 20.532 35.0027 20.6837C34.9951 20.7053 34.9827 20.7249 34.9666 20.7411C34.9506 20.7574 34.9311 20.7698 34.9096 20.7775C34.8882 20.7853 34.8653 20.7881 34.8426 20.7859C34.82 20.7837 34.7981 20.7765 34.7785 20.7647C34.6955 20.684 34.6322 20.5851 34.5933 20.4758C34.5544 20.3665 34.5411 20.2496 34.5543 20.1343L34.7329 20.2752C34.7855 20.2188 34.831 20.1448 34.9151 20.1272C35.2036 20.0274 35.4545 19.8404 35.6333 19.5919C35.6231 19.3676 35.5365 19.1537 35.3881 18.986C35.2655 18.986 35.1428 18.986 35.0377 18.9543C34.9961 19.0153 34.9716 19.0863 34.9666 19.16C34.9617 19.2338 34.9766 19.3075 35.0097 19.3735L35.1709 19.2431C35.1358 19.4404 35.1078 19.6623 34.9151 19.7785C34.8199 19.6589 34.7702 19.509 34.775 19.3559C34.775 19.0706 34.5508 18.8487 34.6033 18.5598C34.4246 18.3732 34.2074 18.2358 34.0217 18.0597C33.8956 17.947 33.8361 17.785 33.7205 17.6652C33.6213 17.5982 33.5095 17.5523 33.392 17.5305C33.2744 17.5087 33.1537 17.5114 33.0373 17.5384V17.63ZM21.0905 18.0069C20.8545 18.1108 20.6282 18.2357 20.4144 18.3802C20.0465 18.5845 20.064 19.0635 19.8678 19.3981C19.6785 19.7559 19.4518 20.0924 19.1917 20.402C19.0136 20.5839 18.8711 20.7978 18.7713 21.0324C18.6698 21.3146 18.6492 21.6197 18.7117 21.913C18.7327 22.0257 18.7117 22.1842 18.8203 22.2652C18.9712 22.3514 19.1451 22.3884 19.3178 22.3709C19.2079 22.3178 19.1119 22.2394 19.0376 22.1421C18.9634 22.0448 18.9129 21.9313 18.8904 21.8108C18.8511 21.6238 18.8837 21.4288 18.9815 21.2649C18.9925 21.4659 19.0688 21.6577 19.1987 21.8108C19.3375 21.6246 19.4639 21.4293 19.577 21.2262C19.7382 21.2262 19.8994 21.1945 20.0535 21.1698C20.0885 21.0324 20.1236 20.9021 20.1621 20.7683L21.2412 20.7507C21.7377 20.7874 22.228 20.8832 22.7021 21.036C22.6776 20.9162 22.7021 20.7718 22.6005 20.6837C22.1604 20.4626 21.6868 20.3162 21.1991 20.2505C20.8698 20.2505 20.5405 20.3033 20.2147 20.2505C20.5767 19.917 21.0514 19.7344 21.5425 19.7398C21.6896 19.7398 21.7982 19.8525 21.9279 19.9089C22.2982 19.9766 22.6539 20.1089 22.9789 20.2998C23.0359 20.2504 23.0886 20.1962 23.1365 20.1378C23.1335 19.9728 23.0654 19.8157 22.9474 19.701C22.6769 19.5156 22.3894 19.3564 22.089 19.2255C21.7997 19.0728 21.4671 19.0243 21.1466 19.0882C20.8908 19.1692 20.6386 19.2713 20.3758 19.3312C20.4182 19.2209 20.4958 19.128 20.5965 19.067C20.8344 18.8876 21.0836 18.724 21.3428 18.5775C21.4791 18.5939 21.613 18.6258 21.7422 18.6726C22.0256 18.731 22.3001 18.827 22.5585 18.9579C22.7687 19.0811 22.8458 19.3488 23.077 19.451C23.077 19.3171 23.1471 19.1657 23.056 19.0494C22.9393 18.8455 22.7915 18.6613 22.618 18.5035C22.3973 18.3732 22.1451 18.3239 21.9173 18.2041C21.6461 18.0579 21.3325 18.0118 21.031 18.0738L21.0905 18.0069ZM21.3042 21.0747C21.1571 21.1733 21.0695 21.3424 20.9189 21.4269C20.7682 21.5115 20.7612 21.8179 20.7262 22.0187C20.7262 22.156 20.6561 22.3709 20.8173 22.4308C21.04 22.4515 21.2646 22.4373 21.4829 22.3885C21.6301 22.3568 21.6231 22.1877 21.609 22.0715C21.581 21.8108 21.609 21.5467 21.609 21.286C21.609 21.1522 21.4689 20.9972 21.3183 21.0606L21.3042 21.0747ZM21.9874 21.5572C21.8508 21.8883 21.9349 22.3814 21.574 22.5822C21.1571 22.6069 20.7367 22.6456 20.3163 22.6597L20.4319 22.9626C20.3672 23.0839 20.3268 23.2167 20.3128 23.3536C20.3517 23.4907 20.4082 23.6221 20.4809 23.7445C20.4494 23.8291 20.4214 23.9136 20.3933 24.0017C20.8488 24.0017 21.3007 24.0263 21.7562 24.0017C22.1065 24.0017 22.4569 24.058 22.8072 24.058C23.4659 24.058 24.1245 24.1109 24.7867 24.1003C24.7446 23.9981 24.7061 23.896 24.6675 23.7939C24.7428 23.6727 24.7873 23.5348 24.7972 23.3923C24.7569 23.2692 24.7028 23.151 24.636 23.0401C24.6605 22.9485 24.6886 22.8569 24.7166 22.7654C24.2356 22.796 23.7529 22.7877 23.2732 22.7407C23.1625 22.7335 23.057 22.691 22.972 22.6194C22.8869 22.5479 22.8268 22.451 22.8002 22.3427C22.716 22.0292 22.6736 21.7059 22.6741 21.3811C22.4454 21.4184 22.2195 21.4714 21.9979 21.5396L21.9874 21.5572ZM31.762 21.6418C31.7375 21.7052 31.7095 21.7615 31.6814 21.8214C32.0318 21.8214 32.3821 21.7756 32.7325 21.7474C32.4627 21.4974 32.0843 21.7017 31.7585 21.6418H31.762ZM31.5798 22.0785C31.4697 22.1714 31.373 22.2793 31.2926 22.3991C31.2916 22.599 31.2645 22.7979 31.212 22.9908L31.3907 23.2761C31.4814 23.2152 31.5669 23.1469 31.6464 23.0718C31.7305 22.9274 31.7725 22.7689 31.8496 22.621C31.8933 22.7524 31.9284 22.8865 31.9547 23.0225C32.1892 23.0288 32.4232 23.0488 32.6554 23.0824C32.6344 22.8992 32.5573 22.6914 32.6554 22.5188C32.8194 22.5509 32.9769 22.6104 33.1214 22.6949C32.9254 22.5006 32.8017 22.2444 32.771 21.9693C32.3611 21.9693 31.9582 22.0891 31.5483 22.0785H31.5798ZM19.528 23.0295L19.5911 23.0824C19.7592 22.9767 20.015 22.9027 20.057 22.6808C19.8627 22.7665 19.6849 22.8857 19.5315 23.0331L19.528 23.0295ZM19.6786 23.3148C19.6611 23.417 19.6401 23.5156 19.6226 23.6142C19.7674 23.5438 19.9134 23.4792 20.0605 23.4205C20.0605 23.3148 20.043 23.2056 20.036 23.1C19.9169 23.1739 19.8013 23.2479 19.6857 23.3148H19.6786ZM9.00365 23.7199C8.70586 23.8502 8.40106 23.9664 8.10327 24.0932C8.02189 24.3771 7.96216 24.6667 7.92459 24.9597C7.92459 25.0619 7.84051 25.1112 7.77744 25.1746C7.63731 24.9139 7.50067 24.6533 7.37805 24.3821C7.25193 25.2943 7.06625 26.189 6.94713 27.0977C6.63182 28.9187 6.38658 30.7502 6.11331 32.5783C6.07616 33.0107 6.07616 33.4455 6.11331 33.878C6.19389 35.6391 6.28148 37.4002 6.36205 39.1824L10.1738 39.4219C10.4326 39.4139 10.6884 39.3627 10.9305 39.2705C11.6067 39.0908 12.2794 38.9182 12.959 38.7351C13.1678 38.6886 13.3728 38.6262 13.5721 38.5484C13.8571 38.2367 14.1238 37.9085 14.3709 37.5657C14.1163 37.7349 13.8493 37.8844 13.5721 38.013C13.0676 38.2103 12.5211 38.3124 12.0201 38.4885C11.676 38.6037 11.325 38.6967 10.9691 38.7668C10.6273 38.7259 10.2832 38.7083 9.93907 38.714C9.9706 38.5695 10.0021 38.4216 10.0302 38.2737C9.53617 38.2737 9.03868 38.3195 8.5412 38.2737L7.53921 38.2208C8.02608 38.1091 8.50673 37.9716 8.97913 37.8088C9.40304 37.6573 9.87601 37.689 10.2754 37.4565C10.5452 37.3192 10.8079 37.1747 11.0777 37.0444C11.4944 36.8002 11.8873 36.5172 12.2513 36.1991C12.6625 35.8947 13.0566 35.5678 13.432 35.2199C13.4226 35.3107 13.3939 35.3984 13.3479 35.477C13.1552 35.787 12.9345 36.0758 12.7173 36.3646C12.4335 36.7979 12.3389 37.3227 12.0516 37.7559C12.2934 37.6749 12.5386 37.6009 12.7874 37.534C13.0361 37.4671 13.1868 37.2346 13.3689 37.0761C13.7683 36.7239 14.0696 36.2625 14.4795 35.9244C14.5881 35.8574 14.5706 35.7236 14.5776 35.6109C14.5776 34.9557 14.5987 34.2971 14.5776 33.642C14.5776 31.9971 14.6722 30.3593 14.6582 28.7109C14.6582 28.0945 14.5706 27.4781 14.6057 26.8617C14.6407 26.3968 14.5216 25.9389 14.5321 25.4704C14.5393 25.3656 14.5334 25.2603 14.5146 25.157C14.3577 24.9379 14.1893 24.7274 14.0101 24.5265C13.961 25.0724 13.9365 25.6219 13.891 26.1678C13.8489 26.9357 13.4565 27.619 13.1903 28.3234C13.0643 28.6705 12.896 29.0006 12.6893 29.3061C12.7016 29.0248 12.7463 28.7459 12.8224 28.4749C13.0008 27.8481 13.1389 27.2104 13.2358 26.5658C13.3568 25.8387 13.4038 25.1011 13.3759 24.3645C12.6748 24.1839 11.9618 24.0533 11.2424 23.9735C10.6919 23.8469 10.1336 23.7574 9.57121 23.7058C9.39297 23.6608 9.20641 23.6608 9.02817 23.7058L9.00365 23.7199ZM19.8083 23.9841L19.7067 24.2905C19.8434 24.2664 19.975 24.2187 20.0956 24.1496C20.1711 24.0397 20.2125 23.9098 20.2147 23.7762L19.8083 23.9841ZM20.8348 24.3081C19.9975 24.6779 19.3528 25.4634 18.4034 25.5691C18.0741 25.4599 17.7728 25.2802 17.447 25.157C17.3489 25.6883 17.2915 26.2264 17.2753 26.7666C17.4302 26.9803 17.6211 27.1651 17.8393 27.3125C18.0679 27.4197 18.3017 27.5149 18.54 27.5978C18.8343 27.7458 19.1636 27.8057 19.4649 27.9501C19.5767 27.9967 19.6948 28.0264 19.8153 28.0381L21.2167 28.1861C21.1921 27.9289 21.1641 27.6753 21.1361 27.4182C20.9819 27.33 20.8088 27.2805 20.6316 27.2738C20.3344 27.2756 20.0395 27.2206 19.7627 27.1118C20.0787 27.0366 20.3828 26.9181 20.6666 26.7596C21.156 26.3576 21.4834 25.7906 21.588 25.164C21.8849 25.1463 22.1759 25.0735 22.4464 24.9491C22.5734 25.0948 22.733 25.2081 22.9121 25.2797C23.0911 25.3513 23.2845 25.3793 23.4764 25.3612C23.5437 25.3457 23.6059 25.3129 23.6569 25.266C23.7079 25.2191 23.7459 25.1597 23.7672 25.0936C23.4725 24.7979 23.1563 24.5248 22.8212 24.2764C22.161 24.1474 21.4802 24.1727 20.8313 24.3504L20.8348 24.3081ZM6.76495 24.6709C6.29198 26.0798 5.88208 27.5309 5.26898 28.8975C5.37408 27.8409 5.65436 26.8159 5.85756 25.7769C5.78749 25.8332 5.68939 25.8684 5.65786 25.9635C5.42663 26.5553 5.24095 27.1646 5.04826 27.774C4.86111 28.3338 4.75147 28.917 4.72244 29.5069C4.607 30.6033 4.59292 31.7082 4.6804 32.8072C4.76807 34.005 4.78912 35.2068 4.74346 36.4069C4.72974 36.9699 4.78862 37.5322 4.91863 38.08C4.95017 38.5132 4.91863 38.9499 4.91863 39.3832L5.71392 39.2881C5.6929 38.7738 5.71392 38.2525 5.65786 37.7383C5.51772 36.5055 5.52823 35.2727 5.46167 34.0259C5.40522 33.5414 5.4301 33.0509 5.53524 32.5747C5.93457 31.0322 6.22491 29.4633 6.4041 27.8796C6.50219 27.221 6.66685 26.5764 6.75444 25.9178C6.8478 25.4507 6.96473 24.9887 7.10478 24.5335C6.99618 24.5758 6.88407 24.6216 6.77896 24.6744L6.76495 24.6709ZM30.4517 25.7698C30.212 25.998 30.015 26.2676 29.8702 26.5658C29.73 26.9638 29.5198 27.3337 29.4007 27.7352C29.2365 28.2053 29.0973 28.6838 28.9838 29.1688C29.0048 28.7214 29.0363 28.2706 29.0539 27.8197C29.1169 27.5063 29.2501 27.2069 29.3376 26.9005C29.4252 26.594 29.688 26.4743 29.8106 26.2312C29.8912 26.0903 29.9507 25.9354 30.0173 25.7874C29.7332 25.8777 29.4443 25.9518 29.152 26.0093C28.3041 26.2066 27.67 26.9216 26.7941 27.0272C26.4438 27.066 26.132 27.2386 25.7851 27.2844C25.3277 27.4041 24.8426 27.3541 24.4188 27.1435C24.3678 27.2462 24.3426 27.3598 24.3452 27.4746C24.3712 27.8205 24.4215 28.1642 24.4959 28.5031C24.6115 28.9433 24.6255 29.4047 24.7516 29.8485C24.8302 30.1898 24.9284 30.5261 25.0459 30.8559C25.0459 30.5776 24.9899 30.2994 24.9794 30.0211C24.9794 29.6302 24.8532 29.2568 24.8497 28.8694C24.8497 28.6228 24.8743 28.3727 24.8883 28.1297C25.0564 28.8341 25.2596 29.5386 25.3928 30.243C25.5925 31.2997 25.7711 32.3282 25.9638 33.3708C25.9486 32.8649 25.8947 32.3609 25.8027 31.8633C25.673 31.1588 25.645 30.4297 25.5574 29.7182C25.538 29.294 25.5638 28.8689 25.6345 28.4502C25.9113 29.5456 26.118 30.6622 26.3177 31.7752C26.5734 32.9199 26.7871 34.0752 26.9518 35.2305C27.0779 35.0649 27.2286 34.9135 27.3442 34.7409C27.4493 34.5084 27.4913 34.2548 27.5719 34.0118C27.7069 33.615 27.8077 33.2073 27.8732 32.7931C27.9503 32.226 28.1044 31.6695 28.1535 31.0954C28.2311 30.4005 28.3898 29.7172 28.6264 29.0596C28.6264 29.6055 28.5914 30.1515 28.6019 30.6939C28.5494 31.3983 28.4723 32.1274 28.4057 32.8495C28.3483 33.4078 28.2618 33.9627 28.1465 34.512C28.0694 34.917 28.0589 35.3291 27.9643 35.7306C28.1443 35.8716 28.3521 35.9725 28.5739 36.0265C28.5984 35.6954 28.721 35.3749 28.7315 35.0403C28.7224 34.7343 28.7614 34.4288 28.8472 34.1351C29.0393 33.663 29.1712 33.1683 29.2395 32.6628C29.2921 32.2366 29.4462 31.828 29.5128 31.4018C29.5794 30.9757 29.5969 30.4544 29.7195 29.993C29.8421 29.5315 29.9928 28.9997 30.0909 28.4925C30.196 27.9289 30.4412 27.4076 30.5989 26.8547C30.6369 26.5382 30.693 26.2242 30.767 25.9142C30.8992 25.739 31.0457 25.5753 31.205 25.4246C30.9422 25.5197 30.6024 25.5021 30.4237 25.7557L30.4517 25.7698ZM21.553 26.1678C21.5246 26.2 21.504 26.2384 21.4931 26.28C21.4821 26.3216 21.481 26.3652 21.4899 26.4073C21.8216 30.4696 22.1521 34.5319 22.4814 38.5942L22.8983 38.9711C23.4413 38.9147 23.9879 38.9711 24.5274 38.9288C24.6298 38.8876 24.7166 38.8151 24.7757 38.7216C24.8348 38.628 24.8632 38.5182 24.8567 38.4075C24.6325 35.4136 24.4293 32.4198 24.1981 29.4259C24.0777 28.65 24.0237 27.8652 24.0369 27.0801C23.9454 26.962 23.8849 26.8227 23.861 26.675C23.8371 26.5273 23.8506 26.3758 23.9003 26.2347C23.9493 26.0868 23.8407 25.9494 23.7917 25.8156C23.6875 25.8894 23.5675 25.9377 23.4413 25.9565C23.1006 25.9649 22.7597 25.9461 22.4218 25.9001C22.3483 26.2911 22.2151 26.6715 22.1241 27.0589C22.1114 27.1378 22.0687 27.2086 22.0049 27.2562C21.9524 26.7243 21.8928 26.1995 21.8683 25.6606C21.7808 25.8371 21.6801 26.0067 21.567 26.1678H21.553ZM30.7951 27.2245C30.7741 27.5448 30.7917 27.8665 30.8476 28.1825C30.9348 28.4523 30.9981 28.7293 31.0368 29.0103C31.3565 29.0137 31.6752 29.0444 31.9897 29.1018C32.0801 28.9668 32.1609 28.8256 32.2315 28.6792C32.0633 28.6122 31.8811 28.5665 31.7235 28.4925C31.4139 28.2801 31.1376 28.0225 30.9037 27.7282C31.1174 27.3513 31.1034 26.911 31.254 26.513C31.0855 26.738 30.9311 26.9732 30.7916 27.2174L30.7951 27.2245ZM17.1702 27.7317C17.0476 27.8233 17.0791 28.0029 17.0791 28.1367C17.0988 28.853 17.0684 29.5698 16.988 30.2818C16.9947 30.5262 17.0533 30.7663 17.1597 30.9862C17.3417 31.4315 17.5476 31.8665 17.7763 32.2894C18.3228 33.2686 18.8273 34.2583 19.4019 35.2234C19.3598 35.4594 19.2863 35.6919 19.2582 35.9279C19.2793 36.2554 19.3493 36.5795 19.3598 36.9071C19.3432 37.1945 19.3432 37.4826 19.3598 37.77C19.4335 38.0733 19.5695 38.3576 19.7592 38.6048C19.8443 38.7897 19.9631 38.957 20.1096 39.0979C20.6736 39.0662 21.1886 38.7879 21.7387 38.6893C21.8017 38.1328 21.8858 37.5833 21.9209 37.0268C21.8368 35.9244 21.7387 34.8184 21.6476 33.7159C21.5635 32.8424 21.525 31.9548 21.4128 31.106C21.045 30.8516 20.6572 30.6278 20.2532 30.4367C20.1341 30.1127 20.1061 29.7605 19.9869 29.4329C19.8659 29.0585 19.7074 28.6974 19.514 28.3551C19.4308 28.2056 19.2963 28.0916 19.1356 28.0346C18.9373 28.0039 18.7371 27.9863 18.5365 27.9818C18.2422 27.9325 17.9725 27.774 17.6712 27.7563C17.4977 27.737 17.3226 27.737 17.1492 27.7563L17.1702 27.7317ZM30.4833 28.0804C30.3712 28.4326 30.3256 28.8095 30.217 29.1688C30.0664 29.6513 30.0033 30.1585 29.8667 30.6481C29.6635 31.5568 29.8246 32.4832 29.8281 33.3989C29.9332 33.4799 30.0348 33.6103 30.1785 33.5997C30.3221 33.5891 30.3256 33.4306 30.3747 33.332C30.725 32.5395 30.6444 31.6449 30.9562 30.8453C31.0849 30.4879 31.2579 30.1483 31.4712 29.8345C31.1209 29.926 30.7425 30.1303 30.3922 29.9753C30.3806 29.7794 30.3806 29.583 30.3922 29.3871C30.4427 29.4863 30.5131 29.5738 30.5989 29.6442C30.8475 29.6394 31.0932 29.5892 31.3241 29.4963C31.0824 29.3977 30.8406 29.3096 30.5989 29.2216C30.5463 28.8412 30.5358 28.4573 30.4798 28.0804H30.4833ZM31.9267 30.162C31.87 30.4364 31.8465 30.7167 31.8566 30.9968C31.9992 31.4396 32.1908 31.8649 32.4277 32.2648C32.4897 32.3806 32.5689 32.4863 32.6624 32.5783C32.8526 32.4094 33.0241 32.2205 33.1739 32.0147C33.4265 32.2945 33.7165 32.5375 34.0358 32.7368C34.2985 32.8636 34.5192 33.0573 34.789 33.1735C35.0553 33.2369 35.2655 33.0326 35.4897 32.9305C35.8604 33.1422 36.2173 33.3775 36.5582 33.6349C36.87 33.7652 37.2309 33.7371 37.5532 33.8498C37.3991 33.7159 37.2414 33.5856 37.0943 33.4447C36.9339 33.2703 36.8142 33.0621 36.7439 32.8354C36.9558 32.9776 37.1604 33.1304 37.357 33.2933C37.5427 33.4236 37.7354 33.5363 37.9281 33.6455C38.5097 33.9977 39.2209 33.9097 39.8585 33.8392C39.6021 34.0131 39.3098 34.1263 39.0036 34.1703C38.9441 34.3253 39.1228 34.3957 39.2384 34.4345C39.5636 34.4062 39.8785 34.3052 40.1598 34.1386C40.1037 34.3464 39.911 34.4591 39.8094 34.6247C39.8748 34.9728 39.8983 35.3276 39.8795 35.6813C39.7394 36.0899 39.6448 36.5126 39.5292 36.9317C39.9145 36.3893 40.0512 35.7236 40.2684 35.1037C40.3875 34.8043 40.398 34.4732 40.5417 34.1844C40.7162 34.6059 40.834 35.0489 40.892 35.5017C40.9228 35.8953 40.9755 36.2869 41.0497 36.6746C41.1407 37.1501 41.1793 37.6326 41.2949 38.1046C41.4101 38.7958 41.464 39.496 41.4561 40.1968C41.4561 40.8097 41.0146 41.2746 40.7869 41.81C41.1331 41.493 41.5058 41.2067 41.901 40.9541C41.866 40.1052 41.8625 39.2529 41.8414 38.397C41.817 38.0322 41.817 37.6663 41.8414 37.3016C41.7784 36.2449 41.5191 35.2164 41.3825 34.1668C41.3819 34.1242 41.3725 34.0822 41.355 34.0434C41.3376 34.0046 41.3123 33.9699 41.2809 33.9414C41.2661 34.154 41.2731 34.3677 41.3019 34.5789C41.3295 35.1826 41.3879 35.7845 41.4771 36.3822C41.555 36.7584 41.5821 37.1435 41.5577 37.527C41.442 37.3121 41.5051 37.0585 41.4385 36.8225C41.3147 36.309 41.2176 35.7894 41.1478 35.2657C41.0987 34.829 40.9691 34.4098 40.913 33.9766C40.7145 34.1055 40.4867 34.1818 40.2509 34.1985C40.426 34.0611 40.6748 34.0505 40.8254 33.878C41.0331 33.6982 41.2003 33.4761 41.3159 33.2263C41.2704 33.0291 41.1758 32.8459 41.1232 32.6522C41.0979 32.523 41.0414 32.4021 40.9586 32.3C40.494 31.7899 40.0722 31.2421 39.6973 30.6622C39.5554 30.4046 39.3937 30.1584 39.2138 29.926C39.2138 30.1655 39.1893 30.4051 39.2138 30.6305C39.3011 30.8457 39.4256 31.0437 39.5817 31.2152C39.6167 31.3631 39.4766 31.4864 39.417 31.6132C39.5432 31.7717 39.7183 31.9231 39.7429 32.138C39.7172 32.1832 39.6819 32.2221 39.6395 32.2519C39.5971 32.2818 39.5487 32.3018 39.4976 32.3106C39.2354 32.3823 38.963 32.4097 38.6918 32.3916C38.2342 32.3926 37.791 32.2303 37.4411 31.9337C37.1886 31.6994 36.8886 31.5227 36.5617 31.4159C35.9095 31.1486 35.2094 31.0191 34.5052 31.0355C34.3282 31.0357 34.153 30.9998 33.9902 30.9299C34.085 31.1751 34.2023 31.4109 34.3406 31.6343C34.4728 31.7985 34.6156 31.9538 34.768 32.0992C34.7771 32.1197 34.7804 32.1423 34.7774 32.1645C34.7744 32.1867 34.7653 32.2076 34.751 32.2249C34.7368 32.2421 34.718 32.255 34.6969 32.262C34.6757 32.2691 34.653 32.27 34.6313 32.2648C34.4774 32.1934 34.3287 32.111 34.1864 32.0182C34.1023 31.9548 33.9902 31.9055 33.9587 31.7998C33.9237 31.6096 33.9587 31.4159 33.9587 31.2257C33.9011 31.055 33.8235 30.8919 33.7275 30.7397L33.4297 30.6023C33.3771 30.9017 33.3946 31.2046 33.3456 31.504C33.1599 31.0884 33.0233 30.6551 32.8621 30.2289C32.7051 29.6976 32.6053 29.1509 32.5643 28.5982C32.3576 29.1124 32.1789 29.6548 31.9547 30.1444L31.9267 30.162ZM24.6255 31.7505C24.7481 33.6208 24.9233 35.4841 25.0599 37.3544C25.1023 37.714 25.1821 38.0682 25.2982 38.411L26.5104 38.7633C26.5559 38.6646 26.64 38.5766 26.6295 38.4604C26.5559 38.0579 26.4073 37.6731 26.1915 37.3262C25.6844 36.3861 25.3476 35.3628 25.1966 34.3041C25.0424 33.4799 24.8918 32.6557 24.7306 31.8386L24.6115 31.7752L24.6255 31.7505ZM29.4392 32.6381C29.3657 33.244 29.194 33.8392 29.1379 34.4486C29.266 34.4071 29.3849 34.3413 29.4883 34.2548C29.4883 33.7159 29.4883 33.177 29.4462 32.6381H29.4392ZM32.0563 34.9839C31.9582 35.1424 31.8391 35.2798 31.7375 35.4313C31.9992 35.3198 32.2732 35.2406 32.5538 35.1953C32.7525 35.2043 32.9497 35.2338 33.1424 35.2833C33.021 35.21 32.9227 35.1038 32.8586 34.9769C32.6204 34.5014 32.785 33.959 32.757 33.4588C32.3786 33.8885 32.27 34.4591 32.0563 34.9769V34.9839ZM32.9917 33.6525C32.9832 34.1054 33.0495 34.5565 33.1879 34.9875C33.299 35.1293 33.4357 35.2487 33.5908 35.3397C33.8641 35.4136 34.1514 35.3714 34.4246 35.4207C34.4001 35.2657 34.3756 35.1107 34.3581 34.9593C34.1949 35.0145 34.0208 35.0286 33.851 35.0004C33.6812 34.9721 33.5209 34.9024 33.3841 34.7973C33.3162 34.7371 33.2621 34.6628 33.2258 34.5794C33.1895 34.496 33.1718 34.4057 33.1739 34.3147C33.1438 34.09 33.0825 33.8707 32.9917 33.6631V33.6525ZM42.0446 36.9141C42.1778 38.1997 42.2408 39.4888 42.3284 40.7885C42.3284 40.9048 42.43 40.9682 42.5106 41.0351C42.7252 40.9426 42.915 40.8001 43.0641 40.6195C43.1945 40.3946 43.2824 40.1474 43.3234 39.8904C43.411 39.6121 43.6737 39.429 43.7508 39.1507C43.8356 38.8282 43.8247 38.4878 43.7193 38.1715C43.5371 37.5446 43.46 36.8648 43.0852 36.3118C42.8119 35.9068 42.5807 35.47 42.2724 35.0896C42.0452 34.7401 41.8539 34.3684 41.7013 33.9801C41.8204 34.9593 41.9255 35.9314 42.0516 36.9035L42.0446 36.9141ZM35.3075 34.1386C35.1588 34.3014 34.9891 34.4435 34.803 34.5613C35.0101 34.9467 35.2997 35.2811 35.6508 35.5404C36.0783 35.6426 36.5162 35.6848 36.9401 35.787C36.6984 35.5017 36.4076 35.2657 36.1729 34.9734C35.8086 34.786 35.5066 34.4959 35.304 34.1386H35.3075ZM34.6559 34.7303C34.5157 34.9557 34.6313 35.2129 34.6734 35.4348C34.8345 35.4524 34.9922 35.47 35.1534 35.4841C34.9647 35.2439 34.7982 34.9869 34.6559 34.7162V34.7303ZM36.9506 34.843C36.9874 35.1144 37.0754 35.3762 37.2099 35.6144C37.315 35.7835 37.3886 36.023 37.6128 36.0653C38.2714 36.2519 38.7374 36.7697 39.1788 37.2734C39.5011 36.738 39.4836 36.0934 39.4976 35.4911C39.3353 35.6779 39.1421 35.8352 38.9266 35.9561C38.8525 35.9918 38.7707 36.0083 38.6887 36.004C38.6067 35.9997 38.527 35.9747 38.4571 35.9314C38.0752 35.713 37.809 35.3362 37.4271 35.1107C37.2694 35.0227 37.1083 34.9346 36.9541 34.8395L36.9506 34.843ZM30.739 35.9561C30.5814 35.9913 30.5008 36.1427 30.4097 36.259C30.2406 36.4491 30.1033 36.6656 30.0033 36.9C30.259 36.8225 30.3536 36.5478 30.5393 36.3858C30.8126 36.097 31.24 36.0336 31.5133 35.7483C31.2507 35.7942 30.9927 35.8637 30.7425 35.9561H30.739ZM31.4432 36.4844C31.2575 36.8366 31.1174 37.2381 30.9492 37.615C30.8597 37.8872 30.8322 38.1761 30.8686 38.4604C30.8686 38.6576 30.9527 38.8408 30.9492 39.0345C30.8738 39.1077 30.789 39.1705 30.697 39.2212C30.2485 39.4959 29.8947 39.9009 29.4462 40.1792C28.8086 40.6512 28.1079 41.0281 27.4668 41.493C27.0429 41.7536 26.5979 41.979 26.1705 42.2397C25.9953 42.3416 25.8097 42.4242 25.617 42.4863C25.388 42.6172 25.1476 42.7269 24.8988 42.8138C24.2226 42.9547 23.5184 42.9477 22.8423 43.1167C22.7687 43.0251 22.6496 42.9371 22.6636 42.8032C22.6875 42.3455 22.7568 41.8912 22.8703 41.4472C22.8931 41.7206 22.9569 41.989 23.0595 42.2432C23.112 42.3489 23.1751 42.4898 23.3187 42.4827C23.7059 42.4501 24.0901 42.3877 24.4679 42.296C24.659 42.2754 24.8438 42.2155 25.0109 42.1199C25.4182 41.8358 25.8111 41.5314 26.188 41.2077C26.2578 41.1473 26.3142 41.0728 26.3534 40.9891C26.3927 40.9053 26.4139 40.8142 26.4158 40.7216C26.2371 40.2673 26.3142 39.7671 26.2476 39.2916C26.0164 39.3368 25.7822 39.3651 25.5469 39.3761C25.0109 39.4571 24.4959 39.6227 23.9458 39.6685C23.2452 39.7777 22.5199 39.9256 21.8017 40.0489C21.8928 40.6899 21.8017 41.345 21.9489 41.9826C22.0078 42.1763 22.0768 42.3667 22.1556 42.5532C22.2011 42.7046 22.1906 42.8666 22.2256 43.0216C22.2607 43.1766 22.3728 43.2259 22.4709 43.3104C22.6391 43.7965 22.8983 44.2403 23.0735 44.7193C23.1103 44.8396 23.1711 44.951 23.2522 45.0469C23.3152 44.987 23.3958 44.9307 23.3818 44.832C23.3872 44.4767 23.3508 44.122 23.2732 43.7754C23.4308 43.8493 23.585 43.9938 23.7707 43.9444L25.2947 43.7472C24.9233 44.1945 24.5484 44.6383 24.1701 45.0821C24.4297 45.0637 24.6906 45.0911 24.9408 45.1631C25.7746 45.4872 26.6155 45.8042 27.4493 46.1282C27.7226 46.2022 28.0414 46.3325 28.3041 46.1634C27.9538 45.9415 27.5264 45.8429 27.2251 45.5471C27.0819 45.4182 26.9632 45.2642 26.8747 45.0927C27.2531 45.223 27.5439 45.5682 27.9643 45.5682C28.3195 45.5944 28.6715 45.6545 29.0153 45.7478C29.4813 45.5294 29.9402 45.2934 30.3817 45.0434C30.7009 44.8302 30.9877 44.5715 31.233 44.2755C31.0999 44.6066 30.9878 44.9447 30.8441 45.2723C30.8441 45.2899 30.8441 45.3287 30.8441 45.3498C31.3087 44.773 31.7225 44.1566 32.0808 43.5077C31.9982 44.1205 31.8356 44.7198 31.5974 45.2899C31.5415 45.4864 31.4627 45.6756 31.3626 45.8535C31.1148 46.0632 30.8526 46.255 30.5779 46.4276C30.8476 46.565 31.0824 46.7798 31.3486 46.9031C31.6484 46.1973 31.8943 45.4696 32.0843 44.7264C32.2105 44.1734 32.3296 43.6134 32.4627 43.0639C32.3786 44.5045 32.27 45.9415 32.1754 47.3821C32.4417 47.5371 32.7185 47.6745 32.9847 47.8294C32.9847 46.9841 32.9182 46.1388 32.9427 45.2935C32.908 44.9671 32.8963 44.6387 32.9077 44.3108C32.8935 43.9839 32.9374 43.6571 33.0373 43.3457C33.0307 43.8975 33.0588 44.4493 33.1214 44.9976C33.1564 45.1948 33.1634 45.3886 33.1844 45.5858C33.6749 45.0645 34.2565 44.6454 34.7365 44.1135C35.1148 43.6098 35.1428 42.9617 35.297 42.3524C35.325 42.1728 35.4371 41.972 35.339 41.7924C35.2129 41.5071 35.0483 41.2394 34.8941 40.9682C34.7618 40.8012 34.5822 40.6784 34.3791 40.616C33.8805 40.3931 33.3534 40.2414 32.8131 40.1651C32.4872 40.1299 32.1649 40.07 31.8391 40.0313C32.3674 40.0331 32.895 40.0672 33.4192 40.1334C34.0246 40.1723 34.6006 40.4099 35.0588 40.8097C35.3089 41.1057 35.4993 41.4478 35.6193 41.817C35.828 42.2698 36.0753 42.7035 36.3585 43.1132C36.5682 43.3553 36.8229 43.5539 37.1083 43.6979C37.169 43.7363 37.22 43.7884 37.2571 43.8502C37.2941 43.912 37.3163 43.9816 37.3217 44.0535C37.3272 44.1254 37.3158 44.1977 37.2884 44.2644C37.2611 44.331 37.2186 44.3904 37.1643 44.4376C36.8835 44.6743 36.5725 44.8721 36.2394 45.0258C35.8225 45.1948 35.3706 45.2124 34.9502 45.378C34.4702 45.5576 33.9482 45.5576 33.4787 45.7654C33.3735 45.8244 33.2816 45.9048 33.2089 46.0014C33.2089 46.0507 33.2089 46.1493 33.2265 46.1987C33.407 46.2166 33.5889 46.2166 33.7695 46.1987C34.4352 46.1176 35.1183 46.3008 35.77 46.0789C35.9942 45.9873 36.2254 45.9134 36.4707 45.8359C36.7474 45.702 36.9962 45.5118 37.2624 45.3604C37.4552 45.2275 37.6148 45.0515 37.7284 44.8461C37.9479 44.5291 38.1698 44.2145 38.394 43.9022C38.1205 43.9007 37.8475 43.8772 37.5777 43.8317C37.3634 43.7076 37.1626 43.5612 36.9787 43.395C36.6283 43.0111 36.6283 42.4616 36.3796 42.0213C36.0584 41.3712 35.6362 40.7767 35.1288 40.2602C34.8676 40.1444 34.5936 40.0604 34.3125 40.0101C33.7777 39.8588 33.2318 39.7505 32.6799 39.6861C32.2875 39.6614 31.8881 39.6861 31.4993 39.6438C31.6969 39.5217 31.9199 39.4469 32.1509 39.4254C32.6735 39.3508 33.2047 39.3615 33.724 39.4571C34.232 39.51 34.7259 39.6227 35.2304 39.6931C35.7349 39.7636 36.1448 40.1158 36.5863 40.3624C36.7837 40.49 36.9598 40.6481 37.1083 40.8308C37.2072 41.1321 37.3412 41.4206 37.5077 41.6902C37.3737 41.8596 37.2684 42.05 37.1959 42.2538C37.2204 42.5461 37.4656 42.7398 37.6373 42.9582C37.809 43.1766 38.1033 43.2435 38.338 43.3668C38.4641 43.4232 38.5062 43.5676 38.5692 43.6768C38.9826 43.2752 39.5502 43.0956 39.9706 42.7187C40.0953 42.5745 40.1905 42.4068 40.2506 42.2255C40.3107 42.0442 40.3346 41.8527 40.3209 41.662C40.2859 41.264 40.2123 40.8696 40.1598 40.4715C40.1353 40.8238 40.1598 41.1513 40.1598 41.4895C40.1397 41.6087 40.0805 41.7178 39.9916 41.7994C39.7078 42.0741 39.375 42.2996 39.0737 42.5637C38.9427 42.6881 38.7909 42.7883 38.6253 42.8596C38.5552 42.8807 38.4571 42.7821 38.5342 42.7293C38.846 42.3418 39.1613 41.9579 39.5081 41.6022C39.5582 41.5553 39.5986 41.4991 39.6273 41.4366C39.5292 40.8343 39.4626 40.2285 39.361 39.6297C39.31 39.039 39.2293 38.4512 39.1193 37.8686C38.8496 37.4787 38.4737 37.1754 38.0367 36.9951C38.1324 37.3258 38.2004 37.6639 38.2399 38.006C38.3496 38.8702 38.393 39.7416 38.3695 40.6124C38.3395 40.8666 38.2832 41.1168 38.2014 41.3591C38.0052 41.2676 37.816 41.1725 37.6303 41.0703C37.7599 40.7495 37.8482 40.4133 37.8931 40.07C37.9417 39.4058 37.9299 38.7385 37.858 38.0764C37.8482 37.6709 37.7918 37.2679 37.6899 36.8754C37.679 36.834 37.6597 36.7955 37.6331 36.7621C37.6066 36.7288 37.5734 36.7013 37.5357 36.6816C37.284 36.5492 37.0199 36.4419 36.7474 36.3611C36.1689 36.1421 35.5577 36.023 34.9396 36.0089C34.5543 36.5654 34.0603 37.0409 33.6889 37.6115C33.5978 37.7559 33.4717 37.9074 33.4962 38.087C33.5208 38.2666 33.8256 38.2842 33.9902 38.3688C33.7345 38.4568 33.4752 38.5132 33.2195 38.5942C32.771 38.7245 32.3576 38.9464 31.9127 39.0908C31.6264 39.2036 31.3468 39.333 31.0753 39.4783C31.4257 39.1965 31.776 38.9323 32.1054 38.6506C32.4347 38.3688 32.7045 38.006 33.0408 37.7242C33.6431 37.2145 34.1798 36.6312 34.6384 35.9878C34.0638 35.8891 33.4822 35.8293 32.8866 35.7694C32.3828 35.9907 31.8916 36.24 31.4152 36.5161L31.4432 36.4844ZM18.053 36.2519C17.8417 36.3137 17.6374 36.3975 17.4434 36.502C17.2763 36.6962 17.1414 36.9162 17.0441 37.1536C16.6773 37.8763 16.3578 38.6222 16.0876 39.3867C16.438 39.6051 16.5641 39.9996 16.8198 40.2954C16.974 40.4821 17.1316 40.6723 17.2928 40.8519C17.2367 41.4789 17.1316 42.0988 17.023 42.7152C17.003 42.8053 16.9959 42.8978 17.002 42.9899C17.1667 43.6627 17.4399 44.3107 17.5661 44.9976C17.6572 45.4273 17.8043 45.8429 17.9164 46.2691C17.9395 46.5139 17.9395 46.7604 17.9164 47.0052C18.1862 47.3575 18.3473 47.7555 18.5856 48.1183C18.8036 48.0713 19.0145 47.9955 19.2127 47.8928C19.1216 48.3331 18.8869 48.7417 18.8869 49.1996C18.8912 49.2768 18.9177 49.3512 18.963 49.4136C19.0084 49.4761 19.0708 49.5241 19.1426 49.5518C19.3739 49.5978 19.612 49.5978 19.8433 49.5518C20.1692 49.4339 20.4426 49.2028 20.6141 48.9002C21.0415 48.2732 21.6651 47.8435 22.2116 47.3187C22.0435 47.2941 21.8613 47.2941 21.7071 47.2765C21.609 47.2765 21.4829 47.2025 21.581 47.1074C21.8535 46.9317 22.1481 46.7931 22.4569 46.6953C22.3481 46.1753 22.1969 45.6652 22.0049 45.1702C21.8508 44.818 21.7282 44.4833 21.5985 44.1382C21.1851 43.0815 20.9364 41.972 20.5475 40.9048C20.1446 39.9679 19.6681 39.0591 19.1917 38.1539C19.013 37.4671 18.9464 36.745 18.8063 36.0653C18.5514 36.0796 18.3006 36.1356 18.0636 36.2308L18.053 36.2519ZM27.4493 38.5202C27.2301 38.6548 27.0367 38.8278 26.8782 39.031C27.148 38.9781 27.4178 38.9182 27.6875 38.8478C27.7821 38.8231 27.8277 38.728 27.8837 38.6611C28.3499 38.143 28.7074 37.5356 28.9347 36.8754C28.5213 37.4882 28.1044 38.1539 27.4353 38.5202H27.4493ZM29.6354 37.925C29.3096 38.6611 28.9347 39.3867 28.5844 40.1052C28.6283 40.1441 28.6752 40.1794 28.7245 40.2109C29.1666 39.971 29.5833 39.6866 29.9683 39.362C29.8525 39.3435 29.7417 39.3015 29.6424 39.2388C29.8106 38.6259 29.9928 38.0095 30.1259 37.3931C29.9542 37.5622 29.7195 37.6855 29.6354 37.9285V37.925ZM13.9225 39.5452C14.5811 40.0771 15.2012 40.6582 15.8424 41.2112C15.6677 40.7411 15.3714 40.3265 14.984 40.0101C14.7038 39.753 14.462 39.4642 14.2098 39.1859L13.9225 39.5381V39.5452ZM47.4504 39.2458C47.4928 39.3562 47.5432 39.4633 47.6011 39.5663C47.5749 39.7364 47.5893 39.9102 47.6431 40.0735C47.7237 40.3412 47.6431 40.6265 47.7062 40.8942C47.7419 40.9799 47.8097 41.0479 47.895 41.0835C47.9803 41.1191 48.0761 41.1195 48.1616 41.0844C48.2001 40.8713 48.2001 40.653 48.1616 40.4398C48.0881 40.1933 48.06 39.9362 47.9725 39.6967C47.8216 39.5222 47.6456 39.3715 47.4504 39.2493V39.2458ZM9.90053 40.5561C9.79193 40.6054 9.65529 40.6477 9.60624 40.7639C9.43808 41.1161 9.43457 41.5388 9.28393 41.9086C9.13328 42.2784 9.01066 42.6624 8.853 43.0322C8.72788 43.3328 8.65899 43.654 8.6498 43.9797C8.6498 44.6383 8.59725 45.2935 8.58324 45.9521C8.58531 46.2796 8.56424 46.6068 8.52018 46.9313C8.51523 47.1126 8.54009 47.2935 8.59375 47.4667C8.63929 47.7696 8.72337 48.0654 8.78994 48.3648C8.81998 48.4441 8.83241 48.5289 8.82636 48.6135C8.82031 48.6981 8.79592 48.7803 8.75491 48.8544C8.43775 49.3921 8.07807 49.9033 7.67935 50.3831C7.38667 50.8373 7.27068 51.384 7.35353 51.9187C7.71384 52.1792 8.11053 52.3845 8.53069 52.5281C9.67275 52.4089 10.8065 52.2195 11.9255 51.961C12.5548 51.4809 13.0745 50.8708 13.4495 50.1717C13.8028 49.6349 14.111 49.0694 14.3709 48.4811L13.7823 48.4C13.7819 48.0232 13.7479 47.6472 13.6807 47.2765C13.663 47.1866 13.6238 47.1024 13.5664 47.0312C13.509 46.96 13.4352 46.9039 13.3514 46.8679C13.0606 46.7517 12.7383 46.7376 12.4545 46.6037C12.2984 46.3781 12.2208 46.1069 12.2338 45.8324C12.2338 45.2547 12.2759 44.6771 12.2794 44.1029C12.3214 42.8455 12.2969 41.5916 12.3004 40.3342C12.3004 40.1862 12.2548 39.9538 12.0657 39.9608C11.3263 40.0891 10.6011 40.2896 9.90053 40.5596V40.5561ZM20.6666 40.2778C20.6544 40.5166 20.7143 40.7536 20.8383 40.9576C21.045 41.5986 21.3042 42.2221 21.567 42.842C21.6861 43.233 21.8193 43.6169 21.9489 44.0043C22.065 44.2998 22.2143 44.5811 22.3938 44.8426C22.4921 45.025 22.6095 45.1962 22.7442 45.3533C22.8388 45.4449 23.0244 45.3251 22.9404 45.2089C22.4849 44.5573 22.2817 43.7719 21.8893 43.0956C21.6691 42.6251 21.5022 42.1313 21.3918 41.6233C21.248 41.1736 21.162 40.7072 21.1361 40.2356C20.9784 40.2567 20.8138 40.2672 20.6561 40.2778H20.6666ZM5.62633 42.2397C5.58323 42.2721 5.5475 42.3133 5.52152 42.3607C5.49555 42.4081 5.47992 42.4605 5.47568 42.5144C5.43364 42.9477 5.50371 43.3879 5.42313 43.8141C5.34255 44.2403 5.12184 44.7158 5.07279 45.1878C5.0182 45.7657 5.0394 46.3483 5.13585 46.9207C5.13018 47.2977 5.05904 47.6708 4.92564 48.0232C4.85666 48.1819 4.84308 48.3594 4.8871 48.5268C4.99571 48.7804 5.09381 49.034 5.17789 49.2982C5.40771 49.3748 5.64164 49.4383 5.87858 49.4884C6.24635 49.5953 6.62463 49.6614 7.00669 49.6857C6.72641 49.4919 6.47767 49.2595 6.2079 49.0552C6.02192 48.9129 5.86491 48.7359 5.74545 48.5339C5.63684 48.3366 5.43715 48.1817 5.36708 47.9774C5.31479 47.676 5.36152 47.3656 5.50021 47.0933C5.75596 46.5403 5.99419 45.9768 6.28147 45.4343C6.41408 45.1289 6.57849 44.8385 6.77196 44.5679C6.78704 45.0854 6.75301 45.6031 6.67036 46.1141C7.0441 45.7963 7.39529 45.4527 7.72139 45.0856C7.83592 44.9316 7.90072 44.746 7.90707 44.5538C8.01218 43.7413 8.11611 42.9289 8.21888 42.1164C7.98445 41.9956 7.74216 41.8909 7.49367 41.8029C7.18617 41.675 6.87008 41.5691 6.54774 41.4859C6.22892 41.729 5.92062 41.9826 5.61932 42.2432L5.62633 42.2397ZM44.3919 44.4376C43.6324 44.951 42.9967 45.6286 42.5311 46.4208C42.0656 47.2131 41.7821 48.0999 41.7013 49.0164C41.609 50.05 41.8806 51.0834 42.4686 51.9363C42.4335 51.8448 42.3985 51.7602 42.3599 51.6757C41.9952 50.8554 41.8736 49.9467 42.0096 49.0587C42.2486 47.4676 43.0942 46.0325 44.3674 45.0575C44.9185 44.608 45.5583 44.2814 46.2444 44.0992C46.9306 43.917 47.6473 43.8835 48.3473 44.0008C49.212 44.1778 49.9906 44.6463 50.5545 45.3287C50.2245 44.7875 49.7643 44.3387 49.2163 44.0235C48.6683 43.7083 48.0501 43.537 47.4189 43.5253C46.3409 43.5027 45.2835 43.8245 44.3989 44.4446L44.3919 44.4376ZM35.4126 44.8673C35.181 44.9099 34.9436 44.9099 34.7119 44.8673C34.4982 45.0152 34.281 45.1631 34.0743 45.3252C34.267 45.2899 34.4527 45.2336 34.6384 45.1807C35.0292 45.1045 35.4126 44.9937 35.784 44.8497C35.6677 44.8241 35.5468 44.8302 35.4336 44.8673H35.4126ZM15.8143 47.1673C15.7216 47.3537 15.6397 47.5454 15.5691 47.7414C15.3685 48.094 15.145 48.4329 14.8999 48.7558C14.2623 49.6082 13.7718 50.5556 13.1798 51.4327C12.8529 51.7804 12.5016 52.1041 12.1287 52.4013C11.3557 52.5975 10.5719 52.7481 9.78142 52.8521C9.29854 52.8758 8.81478 52.8295 8.345 52.7148C8.05071 52.6654 7.75993 52.595 7.46564 52.5422C7.37805 52.5422 7.26945 52.4893 7.20288 52.5739C7.01369 52.7429 7.10128 53.0177 7.15383 53.2255C7.46287 53.6533 7.92513 53.9438 8.4431 54.0356C8.82819 54.1563 9.22166 54.2481 9.62026 54.3103C10.1423 54.3526 10.6433 54.4864 11.1583 54.5498C11.4479 54.6903 11.7196 54.8653 11.9676 55.0711C12.1673 55.1979 12.3389 55.3635 12.5456 55.4797C12.938 55.5008 13.3374 55.4797 13.7333 55.4797C13.8973 55.4033 14.0388 55.2857 14.1444 55.1382C14.2499 54.9908 14.3159 54.8185 14.3359 54.6379C14.3101 54.2836 14.3372 53.9274 14.4165 53.5812C14.5426 53.1903 14.5566 52.7746 14.7038 52.3942C15.0541 51.9258 15.5341 51.57 15.93 51.1403C16.3259 50.7106 16.6692 50.4077 17.0511 50.052C17.2025 49.8804 17.3085 49.6733 17.3594 49.4497C17.4483 49.1197 17.5559 48.7951 17.6817 48.4775C17.5626 48.2592 17.3313 48.0654 17.3699 47.7942C17.3699 47.4138 17.4364 47.0264 17.4294 46.646C17.3017 46.1718 17.1329 45.7098 16.9249 45.2653C16.5396 45.8922 16.1682 46.5297 15.7793 47.1567L15.8143 47.1673ZM24.0194 45.3005L23.0945 46.4135C23.1295 46.7164 23.1365 47.0193 23.1891 47.3152C23.3187 47.5758 23.5114 47.7977 23.6586 48.0478C23.8057 48.2979 24.1736 48.4 24.4538 48.5233C24.7386 48.6452 25.0051 48.8064 25.2456 49.0023C25.7011 49.0728 26.167 49.0023 26.6155 49.1045C29.3715 50.133 32.1252 51.1662 34.8766 52.204C34.9677 52.204 35.0062 52.3027 35.0342 52.3837C35.3355 53.2924 35.638 54.1988 35.9416 55.1028C35.84 55.2895 35.7174 55.455 35.5913 55.6382C35.5526 55.696 35.5366 55.7661 35.5463 55.835C35.556 55.904 35.5907 55.9668 35.6438 56.0116C36.0241 56.0555 36.4073 56.0673 36.7895 56.0468C37.1019 55.9142 37.4383 55.8483 37.7774 55.853C38.1174 55.9018 38.464 55.8427 38.7689 55.684C38.8705 55.0641 38.888 54.4266 38.9651 53.7996C38.7952 53.5487 38.6042 53.313 38.394 53.0952C38.3765 52.9684 38.359 52.838 38.3415 52.7148C38.3065 52.3238 38.1243 51.961 38.0857 51.5736C37.7179 51.4679 37.3465 51.3658 36.9787 51.2707C36.8136 51.24 36.6549 51.1817 36.5092 51.0981C35.346 50.2527 34.1759 49.4144 33.0057 48.5726C32.235 48.0091 31.4747 47.4244 30.6725 46.8996C30.4938 46.7904 30.3501 46.5826 30.1224 46.5861C29.4848 46.6072 28.8437 46.5262 28.2025 46.4945C27.8732 46.4593 27.5369 46.4769 27.2146 46.4135C26.3562 46.0613 25.5084 45.7091 24.6535 45.3569C24.446 45.3072 24.2325 45.287 24.0194 45.297V45.3005ZM50.8943 45.8535C51.1446 46.4092 51.293 47.0058 51.3323 47.6146C51.3643 48.9173 50.9796 50.1959 50.2348 51.2624C49.4899 52.3289 48.4243 53.1269 47.1947 53.539C46.6411 53.7271 46.0549 53.7986 45.4726 53.7489C44.8903 53.6992 44.3245 53.5294 43.8104 53.2501C43.4864 53.0526 43.1875 52.816 42.9205 52.5457C43.3038 53.0178 43.8023 53.3819 44.3674 53.6024C45.4327 53.9964 46.607 53.97 47.6536 53.5284C48.5837 53.1403 49.405 52.529 50.0457 51.748C50.6863 50.9669 51.1269 50.0399 51.3288 49.0481C51.5621 47.9623 51.407 46.8286 50.8908 45.8464L50.8943 45.8535ZM21.08 48.8579C21.553 48.9108 22.026 48.9988 22.5024 49.0376C22.6706 48.9847 22.6881 48.7804 22.7196 48.636C22.8107 48.2275 22.583 47.8576 22.4113 47.5054C21.9235 47.9102 21.4775 48.3633 21.08 48.8579V48.8579ZM7.76693 48.9002C7.67585 49.0869 7.79146 49.2876 7.84051 49.4673C7.97076 49.1406 8.12901 48.826 8.31347 48.5268C8.2399 48.3648 8.16983 48.2028 8.10677 48.0373C8.00898 48.3323 7.89194 48.6206 7.75643 48.9002H7.76693ZM20.9924 49.4708C20.6421 49.6504 20.3268 49.8618 19.994 50.0625C20.0745 50.3866 20.1411 50.7141 20.2077 51.0417C20.421 51.6392 20.5392 52.2669 20.558 52.9014C20.6001 53.3171 20.4109 53.7045 20.3723 54.1131C20.3478 54.3702 20.3198 54.6203 20.2917 54.8703C20.3041 55.1072 20.3955 55.333 20.551 55.5114H21.7632C22.1626 55.5114 22.5269 55.3071 22.9158 55.2648C23.3713 55.3353 23.8127 55.4445 24.2612 55.5255C24.5647 55.6013 24.8741 55.6508 25.1861 55.6734H28.1395C28.0729 55.5044 28.0098 55.3212 27.9468 55.1592C27.2461 54.9901 26.5699 54.8492 25.8797 54.6907C25.7951 54.6701 25.7154 54.633 25.645 54.5815L23.9704 53.4122C23.7377 53.2226 23.5155 53.0203 23.3047 52.8063C23.1646 52.6654 22.9824 52.5351 22.9544 52.3238C22.8142 51.3869 22.6636 50.4535 22.5199 49.506C22.1065 49.4602 21.6861 49.4567 21.2692 49.425C21.1755 49.4092 21.0792 49.4214 20.9924 49.4602V49.4708ZM18.4559 49.6575C18.1056 50.0097 17.7763 50.3619 17.4049 50.686C17.1807 50.8832 16.974 51.1051 16.7533 51.3094C16.2383 51.8025 15.6357 52.2005 15.1592 52.7394C14.9629 52.9987 14.8016 53.283 14.6792 53.5847C14.4935 53.8806 14.5846 54.2434 14.5741 54.571C14.5639 54.8422 14.5239 55.1116 14.455 55.374C14.5247 55.4595 14.6117 55.529 14.7101 55.5782C14.8086 55.6274 14.9162 55.655 15.0261 55.6593C15.471 55.6593 15.9195 55.6347 16.3644 55.6206C17.2402 55.5783 18.1161 55.5748 18.9955 55.4515C19.055 55.1944 19.1321 54.9443 19.1917 54.6872C19.2512 54.4301 19.2372 54.18 19.2828 53.9299C19.3108 53.782 19.4544 53.6834 19.4719 53.5319C19.5442 52.8559 19.5653 52.1753 19.535 51.4961C19.507 51.2319 19.577 50.936 19.4194 50.7036C19.1601 50.3302 18.8939 49.9639 18.6381 49.587C18.5765 49.5933 18.5175 49.6151 18.4665 49.6504L18.4559 49.6575ZM5.39861 49.9428C5.63336 51.0405 5.75778 52.1591 5.76997 53.2818C5.62215 54.1412 5.27928 54.9548 4.76799 55.6593C5.20592 55.6593 5.64385 55.6593 6.08528 55.6593C6.4076 55.5008 6.43563 55.0887 6.67736 54.8668L6.87356 54.6766C6.87356 54.4653 6.90859 54.254 6.92611 54.0462C6.83854 53.8614 6.73906 53.6825 6.62832 53.5108C6.5127 53.0353 6.8175 52.5527 6.62832 52.1019C6.51621 51.563 6.38307 51.0241 6.31651 50.4782C5.99895 50.3241 5.69017 50.1524 5.3916 49.9639L5.39861 49.9428ZM7.39907 54.2152C7.57425 54.7154 7.84751 55.1662 8.05422 55.6558C8.69184 55.6805 9.33297 55.5959 9.9706 55.6171C10.6082 55.6382 11.2424 55.6347 11.873 55.5924C11.602 55.3446 11.2962 55.1381 10.9656 54.9795C10.2964 54.807 9.58873 54.8316 8.92658 54.6273C8.59725 54.5639 8.27143 54.4653 7.9351 54.4336C7.74623 54.3892 7.56538 54.3156 7.39907 54.2152V54.2152ZM6.814 55.3282C7.08012 55.5122 7.38446 55.6326 7.70387 55.6805C7.62647 55.4616 7.51791 55.2551 7.38156 55.0676C7.27295 55.0465 7.16785 55.0218 7.05924 54.9936C6.94747 55.0779 6.86231 55.1929 6.814 55.3247V55.3282ZM41.6067 55.7615C42.1619 56.1797 42.8271 56.4247 43.5196 56.4659C44.0346 56.5188 44.5706 56.6632 45.0716 56.5011C44.0072 56.5453 42.9477 56.3327 41.9816 55.8812C41.8649 55.8186 41.7379 55.778 41.6067 55.7615" fill="#003F79"/>
<path fill-rule="evenodd" clip-rule="evenodd" d="M12.0872 7.30176C12.1783 7.53797 12.2281 7.7882 12.2345 8.04143C12.1307 7.98155 12.041 7.89985 11.9716 7.80192C12.0391 7.6435 12.0771 7.47397 12.0837 7.30176" fill="#003F79"/>
<path fill-rule="evenodd" clip-rule="evenodd" d="M10.391 14.0611C10.5219 14.1634 10.6396 14.2817 10.7413 14.4134C11.0429 14.7318 11.3238 15.0694 11.5821 15.4242C11.8605 15.7385 12.0875 16.0952 12.2548 16.4809C12.0411 16.4809 11.9605 16.2379 11.8274 16.1005C11.5935 15.7756 11.3257 15.4769 11.0286 15.2094C10.7898 15.0204 10.5714 14.8067 10.377 14.5719C10.377 14.3993 10.377 14.2196 10.377 14.0576" fill="#003F79"/>
<path fill-rule="evenodd" clip-rule="evenodd" d="M32.4278 19.0739C32.4594 18.9612 32.4278 18.778 32.554 18.7217C32.9778 18.7558 33.3904 18.8756 33.767 19.0739C33.7179 19.2817 33.4444 19.2148 33.2902 19.2324C33.2376 19.3698 33.185 19.5001 33.1254 19.6304C32.9262 19.5623 32.7186 19.522 32.5084 19.5107C32.3226 19.4296 32.4173 19.2113 32.4278 19.0598" fill="#003F79"/>
<path fill-rule="evenodd" clip-rule="evenodd" d="M31.5803 20.9227C31.4121 20.7255 31.5803 20.3028 31.8538 20.338C32.1338 20.3573 32.3959 20.4833 32.5865 20.6902C32.4247 20.7451 32.2558 20.776 32.0852 20.7818C31.9218 20.8509 31.7513 20.9017 31.5768 20.9333" fill="#003F79"/>
<path fill-rule="evenodd" clip-rule="evenodd" d="M35.9774 23.1906C36.058 23.1519 36.1422 23.2188 36.2228 23.2329C36.4292 23.2828 36.6389 23.3181 36.8503 23.3386C36.7927 23.4363 36.7135 23.5194 36.6189 23.5816C36.2263 23.7795 35.8489 24.0067 35.4901 24.2614C35.5567 23.9761 35.8617 23.8387 35.9388 23.5569C35.9564 23.4337 35.9388 23.3104 35.9739 23.1871" fill="#003F79"/>
<path fill-rule="evenodd" clip-rule="evenodd" d="M37.9456 33.212C37.5761 32.9582 37.2742 32.6172 37.0663 32.2188C37.6829 32.571 38.3485 33.0183 39.0983 32.9232C38.9862 32.9901 38.818 32.9972 38.7479 33.124C38.8101 33.1918 38.8925 33.2375 38.9827 33.2543C39.2447 33.2881 39.5109 33.2504 39.7534 33.1451C39.7955 33.0746 39.7534 32.9831 39.7534 32.9056C39.8491 32.7058 39.9743 32.5218 40.1248 32.3596C40.1681 32.66 40.1306 32.9665 40.0162 33.2472C39.9846 33.4374 39.7569 33.4621 39.6098 33.522C39.3236 33.6022 39.0229 33.6147 38.7311 33.5585C38.4393 33.5022 38.1645 33.3788 37.9281 33.1979" fill="#003F79"/>
</svg>
