<svg width="27" height="20" viewBox="0 0 27 20" fill="none" xmlns="http://www.w3.org/2000/svg">
<path d="M25.5129 9.99139L19.6909 1.64041L19.6357 1.5761C19.6073 1.54895 18.929 0.909337 17.9614 1.01108C17.1944 1.09053 16.4941 1.59525 15.8799 2.51123L16.6238 2.97765C17.0827 2.29317 17.5613 1.91877 18.047 1.86447C18.5165 1.81017 18.8888 2.08396 18.9863 2.16313L23.1906 8.19402C22.4573 7.87278 21.646 7.68958 20.79 7.68958C18.6314 7.68958 16.7467 8.8302 15.7342 10.5181C15.3241 10.1849 14.6369 9.80277 13.6347 9.80277C12.6343 9.80277 11.948 10.1837 11.5376 10.5167C10.5248 8.82963 8.64065 7.68958 6.48265 7.68958C5.63559 7.68958 4.83254 7.86849 4.10513 8.18316L8.30147 2.16341C8.40222 2.08139 8.7745 1.81217 9.24102 1.86447C9.72675 1.91849 10.2057 2.29317 10.6645 2.97765L11.4082 2.51094C10.7942 1.59496 10.0937 1.09025 9.3267 1.0108C8.3582 0.909909 7.68072 1.54866 7.65236 1.57582L7.62163 1.60554L1.77518 9.99139L1.78197 9.99597C1.0655 10.9348 0.6362 12.0906 0.6362 13.3447C0.6362 16.463 3.25865 18.9997 6.48265 18.9997C9.70665 18.9997 12.3291 16.463 12.3291 13.3447C12.3291 12.6322 12.1864 11.9525 11.9367 11.3241C12.1639 11.0909 12.7085 10.6599 13.635 10.6599C14.5601 10.6599 15.1067 11.0917 15.3357 11.3266C15.0866 11.9545 14.9442 12.633 14.9442 13.3449C14.9442 16.4633 17.5666 19 20.7906 19C24.0146 19 26.6362 16.463 26.6362 13.3447C26.6362 12.0937 26.209 10.9402 25.4954 10.0028L25.5129 9.99139ZM6.48265 18.1423C3.74763 18.1423 1.52256 15.99 1.52256 13.3447C1.52256 10.699 3.74763 8.54669 6.48265 8.54669C9.21768 8.54669 11.4427 10.699 11.4427 13.3447C11.4424 15.99 9.21738 18.1423 6.48265 18.1423ZM25.7498 13.3447C25.7498 15.99 23.5248 18.1423 20.7897 18.1423C18.0547 18.1423 15.8297 15.99 15.8297 13.3447C15.8297 10.699 18.0547 8.54669 20.7897 8.54669C23.5248 8.54669 25.7498 10.699 25.7498 13.3447Z" fill="white" stroke="white" stroke-width="0.6"/>
</svg>
