<svg width="34" height="34" viewBox="0 0 34 34" fill="none" xmlns="http://www.w3.org/2000/svg">
<path d="M22.4322 26.3721C22.357 22.2154 20.9585 18.5967 18.0713 15.6174C15.1804 12.6344 11.6203 11.141 7.45496 11.0583C7.45496 9.85829 7.45496 8.66208 7.45496 7.45833C7.77074 7.45833 8.08653 7.44329 8.40231 7.4621C9.39102 7.51476 10.3722 7.65018 11.3384 7.86084C13.0977 8.24829 14.7631 8.88401 16.3345 9.76425C17.4698 10.4 18.5225 11.1448 19.4999 11.9987C20.2818 12.6833 20.9999 13.4319 21.6615 14.2369C22.4209 15.166 23.0901 16.1516 23.6615 17.2049C24.4171 18.5892 24.9885 20.0487 25.3833 21.576C25.7705 23.0769 25.9622 24.6003 25.9998 26.1464C26.0036 26.3232 25.9697 26.3871 25.7817 26.3834C24.7367 26.3759 23.6916 26.3796 22.6427 26.3796C22.5713 26.3834 22.5074 26.3759 22.4322 26.3721Z" fill="#5A79A8"/>
<path d="M7.45496 17.5059C7.45496 16.2909 7.45496 15.0947 7.45496 13.9022C13.8797 13.7518 19.7404 19.3793 19.669 26.361C18.4886 26.361 17.3119 26.361 16.1165 26.361C16.0826 23.9648 15.2781 21.8733 13.6052 20.1466C11.9286 18.4163 9.87221 17.5473 7.45496 17.5059Z" fill="#5A79A8"/>
<path d="M9.9061 21.3428C11.2783 21.339 12.3797 22.4525 12.3797 23.8518C12.3797 25.2361 11.282 26.3609 9.9249 26.3647C8.54898 26.3684 7.44374 25.255 7.44374 23.8631C7.43998 22.4562 8.52266 21.3465 9.9061 21.3428Z" fill="#5A79A8"/>
</svg>
