<svg width="22" height="18" viewBox="0 0 22 18" fill="none" xmlns="http://www.w3.org/2000/svg">
<path d="M9.40812 16.6924H1V1.30737H9.40812V2.29656H2.07338V8.11595H8.99771V9.10514H2.07338V15.7033H9.40812V16.6924Z" fill="#5A79A8"/>
<path d="M20.6049 16.6924V9.27351C20.6049 8.12297 20.3629 7.28812 19.8788 6.76897C19.3947 6.2428 18.6441 5.97972 17.6268 5.97972C16.2588 5.97972 15.2556 6.32699 14.6172 7.02153C13.9858 7.70905 13.6701 8.82803 13.6701 10.3785V16.6924H12.6283V5.25361H13.5122L13.7122 6.82158H13.7753C14.5189 5.62894 15.8414 5.03262 17.7426 5.03262C20.3383 5.03262 21.6362 6.42521 21.6362 9.21037V16.6924H20.6049Z" fill="#5A79A8"/>
<path d="M9.40812 16.6924H1V1.30737H9.40812V2.29656H2.07338V8.11595H8.99771V9.10514H2.07338V15.7033H9.40812V16.6924Z" stroke="#5A79A8" stroke-width="0.7"/>
<path d="M20.6049 16.6924V9.27351C20.6049 8.12297 20.3629 7.28812 19.8788 6.76897C19.3947 6.2428 18.6441 5.97972 17.6268 5.97972C16.2588 5.97972 15.2556 6.32699 14.6172 7.02153C13.9858 7.70905 13.6701 8.82803 13.6701 10.3785V16.6924H12.6283V5.25361H13.5122L13.7122 6.82158H13.7753C14.5189 5.62894 15.8414 5.03262 17.7426 5.03262C20.3383 5.03262 21.6362 6.42521 21.6362 9.21037V16.6924H20.6049Z" stroke="#5A79A8" stroke-width="0.7"/>
</svg>
