<svg width="34" height="34" viewBox="0 0 34 34" fill="none" xmlns="http://www.w3.org/2000/svg">
<path d="M24.6562 7H9.34375C8.05141 7 7 8.05141 7 9.34375V24.6562C7 25.9486 8.05141 27 9.34375 27H24.6562C25.9486 27 27 25.9486 27 24.6562V9.34375C27 8.05141 25.9486 7 24.6562 7Z" fill="#5A79A8"/>
<path d="M19.6598 20.2083V27H16.7845V20.2083H14V17.625H16.7845V15.8406C16.7845 13.7187 18.6891 12 21.0515 12H22.9536V14.5833H21.0515C20.264 14.5833 19.6598 15.126 19.6598 15.8333V17.625H23L22.5263 20.2083H19.6598Z" fill="white"/>
</svg>
