<svg width="27" height="20" viewBox="0 0 27 20" fill="none" xmlns="http://www.w3.org/2000/svg">
<path d="M25.5129 9.99139L19.691 1.64041L19.6357 1.5761C19.6074 1.54895 18.929 0.909337 17.9614 1.01108C17.1944 1.09053 16.4942 1.59525 15.8799 2.51123L16.6239 2.97765C17.0827 2.29317 17.5613 1.91877 18.0471 1.86447C18.5165 1.81017 18.8888 2.08396 18.9863 2.16313L23.1906 8.19402C22.4573 7.87278 21.646 7.68958 20.7901 7.68958C18.6315 7.68958 16.7468 8.8302 15.7343 10.5181C15.3242 10.1849 14.6369 9.80277 13.6348 9.80277C12.6343 9.80277 11.948 10.1837 11.5376 10.5167C10.5248 8.82963 8.64069 7.68958 6.48268 7.68958C5.63562 7.68958 4.83257 7.86849 4.10516 8.18316L8.3015 2.16341C8.40225 2.08139 8.77453 1.81217 9.24105 1.86447C9.72678 1.91849 10.2057 2.29317 10.6645 2.97765L11.4082 2.51094C10.7943 1.59496 10.0937 1.09025 9.32673 1.0108C8.35823 0.909909 7.68075 1.54866 7.65239 1.57582L7.62166 1.60554L1.77521 9.99139L1.782 9.99597C1.06553 10.9348 0.63623 12.0906 0.63623 13.3447C0.63623 16.463 3.25869 18.9997 6.48268 18.9997C9.70668 18.9997 12.3291 16.463 12.3291 13.3447C12.3291 12.6322 12.1864 11.9525 11.9368 11.3241C12.164 11.0909 12.7085 10.6599 13.635 10.6599C14.5601 10.6599 15.1067 11.0917 15.3357 11.3266C15.0866 11.9545 14.9442 12.633 14.9442 13.3449C14.9442 16.4633 17.5667 19 20.7907 19C24.0147 19 26.6362 16.463 26.6362 13.3447C26.6362 12.0937 26.209 10.9402 25.4955 10.0028L25.5129 9.99139ZM6.48268 18.1423C3.74766 18.1423 1.52259 15.99 1.52259 13.3447C1.52259 10.699 3.74766 8.54669 6.48268 8.54669C9.21771 8.54669 11.4428 10.699 11.4428 13.3447C11.4425 15.99 9.21741 18.1423 6.48268 18.1423ZM25.7499 13.3447C25.7499 15.99 23.5248 18.1423 20.7898 18.1423C18.0548 18.1423 15.8297 15.99 15.8297 13.3447C15.8297 10.699 18.0548 8.54669 20.7898 8.54669C23.5248 8.54669 25.7499 10.699 25.7499 13.3447Z" fill="#5A79A8" stroke="#5A79A8" stroke-width="0.6"/>
</svg>
