<svg width="19" height="20" viewBox="0 0 19 20" fill="none" xmlns="http://www.w3.org/2000/svg">
<path d="M16.7078 19H10.9221C10.4106 19 9.92009 18.7968 9.55841 18.4351C9.19673 18.0735 8.99355 17.5829 8.99355 17.0714V15.7857C8.99355 15.6152 9.06128 15.4517 9.18183 15.3311C9.30239 15.2106 9.46591 15.1429 9.6364 15.1429C9.8069 15.1429 9.97041 15.2106 10.091 15.3311C10.2115 15.4517 10.2793 15.6152 10.2793 15.7857V17.0714C10.2793 17.2419 10.347 17.4054 10.4675 17.526C10.5881 17.6466 10.7516 17.7143 10.9221 17.7143H16.7078C16.8783 17.7143 17.0418 17.6466 17.1624 17.526C17.283 17.4054 17.3507 17.2419 17.3507 17.0714V2.92857C17.3507 2.75808 17.283 2.59456 17.1624 2.474C17.0418 2.35344 16.8783 2.28571 16.7078 2.28571H10.9221C10.7516 2.28571 10.5881 2.35344 10.4675 2.474C10.347 2.59456 10.2793 2.75808 10.2793 2.92857V4.21429C10.2793 4.38478 10.2115 4.5483 10.091 4.66885C9.97041 4.78941 9.8069 4.85714 9.6364 4.85714C9.46591 4.85714 9.30239 4.78941 9.18183 4.66885C9.06128 4.5483 8.99355 4.38478 8.99355 4.21429V2.92857C8.99355 2.41708 9.19673 1.92654 9.55841 1.56487C9.92009 1.20319 10.4106 1 10.9221 1H16.7078C17.2193 1 17.7099 1.20319 18.0715 1.56487C18.4332 1.92654 18.6364 2.41708 18.6364 2.92857V17.0714C18.6364 17.5829 18.4332 18.0735 18.0715 18.4351C17.7099 18.7968 17.2193 19 16.7078 19Z" fill="white" stroke="white" stroke-width="0.3"/>
<path d="M12.2066 13.8575C12.122 13.858 12.0381 13.8418 11.9598 13.8098C11.8815 13.7778 11.8103 13.7307 11.7502 13.6711C11.6899 13.6113 11.6421 13.5402 11.6095 13.4619C11.5768 13.3836 11.56 13.2995 11.56 13.2147C11.56 13.1298 11.5768 13.0458 11.6095 12.9675C11.6421 12.8891 11.6899 12.818 11.7502 12.7583L14.5145 10.0004L11.7502 7.24254C11.6902 7.1826 11.6427 7.11144 11.6103 7.03313C11.5778 6.95482 11.5611 6.87088 11.5611 6.78611C11.5611 6.61492 11.6291 6.45074 11.7502 6.32968C11.8712 6.20863 12.0354 6.14062 12.2066 6.14062C12.2914 6.14062 12.3753 6.15732 12.4536 6.18976C12.5319 6.2222 12.6031 6.26974 12.663 6.32968L15.8773 9.54397C15.9376 9.60373 15.9854 9.67483 16.018 9.75317C16.0507 9.83151 16.0675 9.91553 16.0675 10.0004C16.0675 10.0853 16.0507 10.1693 16.018 10.2476C15.9854 10.326 15.9376 10.3971 15.8773 10.4568L12.663 13.6711C12.603 13.7307 12.5317 13.7778 12.4534 13.8098C12.3751 13.8418 12.2912 13.858 12.2066 13.8575Z" fill="white" stroke="white" stroke-width="0.3"/>
<path d="M15.4219 10.6431H1.27906C1.10856 10.6431 0.945047 10.5754 0.824488 10.4548C0.703929 10.3343 0.6362 10.1708 0.6362 10.0003C0.6362 9.82978 0.703929 9.66627 0.824488 9.54571C0.945047 9.42515 1.10856 9.35742 1.27906 9.35742H15.4219C15.5924 9.35742 15.7559 9.42515 15.8765 9.54571C15.997 9.66627 16.0648 9.82978 16.0648 10.0003C16.0648 10.1708 15.997 10.3343 15.8765 10.4548C15.7559 10.5754 15.5924 10.6431 15.4219 10.6431Z" fill="white" stroke="white" stroke-width="0.3"/>
</svg>
