<svg width="19" height="20" viewBox="0 0 19 20" fill="none" xmlns="http://www.w3.org/2000/svg">
<path d="M16.7079 19H10.9222C10.4107 19 9.92019 18.7968 9.55852 18.4351C9.19684 18.0735 8.99365 17.5829 8.99365 17.0714V15.7857C8.99365 15.6152 9.06138 15.4517 9.18194 15.3311C9.3025 15.2106 9.46601 15.1429 9.63651 15.1429C9.80701 15.1429 9.97052 15.2106 10.0911 15.3311C10.2116 15.4517 10.2794 15.6152 10.2794 15.7857V17.0714C10.2794 17.2419 10.3471 17.4054 10.4677 17.526C10.5882 17.6466 10.7517 17.7143 10.9222 17.7143H16.7079C16.8784 17.7143 17.0419 17.6466 17.1625 17.526C17.2831 17.4054 17.3508 17.2419 17.3508 17.0714V2.92857C17.3508 2.75808 17.2831 2.59456 17.1625 2.474C17.0419 2.35344 16.8784 2.28571 16.7079 2.28571H10.9222C10.7517 2.28571 10.5882 2.35344 10.4677 2.474C10.3471 2.59456 10.2794 2.75808 10.2794 2.92857V4.21429C10.2794 4.38478 10.2116 4.5483 10.0911 4.66885C9.97052 4.78941 9.80701 4.85714 9.63651 4.85714C9.46601 4.85714 9.3025 4.78941 9.18194 4.66885C9.06138 4.5483 8.99365 4.38478 8.99365 4.21429V2.92857C8.99365 2.41708 9.19684 1.92654 9.55852 1.56487C9.92019 1.20319 10.4107 1 10.9222 1H16.7079C17.2194 1 17.71 1.20319 18.0716 1.56487C18.4333 1.92654 18.6365 2.41708 18.6365 2.92857V17.0714C18.6365 17.5829 18.4333 18.0735 18.0716 18.4351C17.71 18.7968 17.2194 19 16.7079 19Z" fill="#5A79A8" stroke="#5A79A8" stroke-width="0.3"/>
<path d="M12.2066 13.8575C12.122 13.858 12.0382 13.8418 11.9598 13.8098C11.8815 13.7778 11.8103 13.7307 11.7502 13.6711C11.69 13.6113 11.6421 13.5402 11.6095 13.4619C11.5769 13.3836 11.5601 13.2995 11.5601 13.2147C11.5601 13.1298 11.5769 13.0458 11.6095 12.9675C11.6421 12.8891 11.69 12.818 11.7502 12.7583L14.5145 10.0004L11.7502 7.24254C11.6903 7.1826 11.6427 7.11144 11.6103 7.03313C11.5779 6.95482 11.5612 6.87088 11.5612 6.78611C11.5612 6.61492 11.6292 6.45074 11.7502 6.32968C11.8713 6.20863 12.0354 6.14062 12.2066 6.14062C12.2914 6.14062 12.3753 6.15732 12.4537 6.18976C12.532 6.2222 12.6031 6.26974 12.6631 6.32968L15.8774 9.54397C15.9376 9.60373 15.9854 9.67483 16.0181 9.75317C16.0507 9.83151 16.0675 9.91553 16.0675 10.0004C16.0675 10.0853 16.0507 10.1693 16.0181 10.2476C15.9854 10.326 15.9376 10.3971 15.8774 10.4568L12.6631 13.6711C12.603 13.7307 12.5318 13.7778 12.4534 13.8098C12.3751 13.8418 12.2912 13.858 12.2066 13.8575Z" fill="#5A79A8" stroke="#5A79A8" stroke-width="0.3"/>
<path d="M15.4219 10.6431H1.27909C1.10859 10.6431 0.945078 10.5754 0.824519 10.4548C0.70396 10.3343 0.63623 10.1708 0.63623 10.0003C0.63623 9.82978 0.70396 9.66627 0.824519 9.54571C0.945078 9.42515 1.10859 9.35742 1.27909 9.35742H15.4219C15.5924 9.35742 15.756 9.42515 15.8765 9.54571C15.9971 9.66627 16.0648 9.82978 16.0648 10.0003C16.0648 10.1708 15.9971 10.3343 15.8765 10.4548C15.756 10.5754 15.5924 10.6431 15.4219 10.6431Z" fill="#5A79A8" stroke="#5A79A8" stroke-width="0.3"/>
</svg>
