<svg width="54" height="57" viewBox="0 0 54 57" fill="none" xmlns="http://www.w3.org/2000/svg">
<path fill-rule="evenodd" clip-rule="evenodd" d="M6.04931 0.536672C6.32275 0.31125 6.58567 -0.0233669 6.9783 0.0012886C7.03322 0.0134819 7.08442 0.0387824 7.12756 0.0750371C7.17071 0.111292 7.20454 0.157438 7.2262 0.209592C7.24785 0.261747 7.2567 0.318372 7.252 0.374685C7.24729 0.430999 7.22917 0.485351 7.19916 0.533146C6.92922 0.998079 6.39987 1.27986 6.23511 1.81171C6.23511 1.97373 6.3543 2.10405 6.46998 2.19211C6.69084 2.22733 6.9152 2.19212 7.13606 2.22382C7.57777 2.29778 8.07206 2.30835 8.42262 2.62887C8.45934 2.6619 8.48872 2.70234 8.50883 2.74756C8.52894 2.79277 8.53934 2.84175 8.53934 2.89127C8.53934 2.9408 8.52894 2.98976 8.50883 3.03497C8.48872 3.08019 8.45934 3.12064 8.42262 3.15367C8.32858 3.24135 8.21824 3.3095 8.09792 3.35423C7.97761 3.39896 7.84968 3.41937 7.7215 3.41432C7.21488 3.4427 6.71103 3.50863 6.21407 3.61156C5.69173 3.73131 5.16238 3.55873 4.64004 3.58691C4.42851 3.60878 4.23369 3.71233 4.09667 3.87572C3.90195 4.13007 3.76009 4.42113 3.6795 4.73163C3.50438 5.1172 3.41696 5.53712 3.42359 5.96088C3.50187 6.48156 3.50187 7.0111 3.42359 7.53179C3.3633 7.86282 3.34914 8.20067 3.38152 8.53562C3.38152 8.88784 3.66548 9.16961 3.81973 9.47957C4.04248 9.9232 4.29427 10.3515 4.57344 10.7617C4.66476 10.8637 4.77262 10.9494 4.89245 11.0153C5.1098 11.1632 5.2956 11.3675 5.50944 11.5013C5.54454 11.5277 5.58479 11.5464 5.62756 11.5561C5.67033 11.5659 5.71466 11.5664 5.75767 11.5578C5.80067 11.5492 5.84137 11.5315 5.87713 11.506C5.91288 11.4805 5.94288 11.4477 5.96517 11.4097C6.06684 11.1808 6.26666 10.9483 6.16499 10.6842C6.06159 10.3681 6.04464 10.0299 6.11592 9.705C6.36966 9.34863 6.58916 8.96888 6.77147 8.57084C6.95026 8.12 6.89066 7.61632 7.04841 7.16196C7.11927 6.87938 7.24988 6.61544 7.43136 6.38813C7.61284 6.16081 7.84093 5.97546 8.10011 5.84465C8.96221 5.5324 9.90578 5.5324 10.7679 5.84465C11.1656 5.96834 11.5358 6.16806 11.8581 6.43286C12.1085 6.69281 12.3427 6.96807 12.5593 7.25705C12.7801 7.55644 13.0325 7.8347 13.2288 8.1517C13.263 8.20728 13.281 8.2713 13.281 8.33661C13.281 8.40192 13.263 8.46594 13.2288 8.52153C13.1132 8.59197 12.9274 8.60959 12.8783 8.76809C12.8528 8.95844 12.8387 9.15016 12.8362 9.34221C12.8012 9.69443 12.5768 9.98325 12.5382 10.3284C12.4962 10.6032 12.5382 10.8849 12.4962 11.1632C12.3209 11.2548 12.086 11.1632 11.9107 11.2724C11.7251 11.4565 11.5982 11.6919 11.5461 11.9486C11.5041 12.1353 11.6163 12.3009 11.6092 12.4981C11.4655 12.6813 11.1816 12.7235 11.0939 12.956C11.044 13.096 10.9678 13.2251 10.8696 13.3364C10.6943 13.3153 10.498 13.2836 10.3753 13.4456C10.2925 13.4598 10.2079 13.4574 10.1261 13.4387C10.0442 13.42 9.96691 13.3852 9.89849 13.3364C9.7599 13.3627 9.61852 13.371 9.47782 13.3611C9.46412 13.7956 9.42078 14.2287 9.34811 14.6572C9.34121 14.685 9.32815 14.7109 9.30991 14.7329C9.29167 14.7549 9.26872 14.7725 9.24277 14.7843C9.21682 14.7962 9.18853 14.802 9.16003 14.8014C9.13153 14.8007 9.10355 14.7936 9.07818 14.7805C8.65049 14.5727 8.24384 14.3261 7.83718 14.0761C7.63736 14.5727 8.0335 15.0165 8.21229 15.4568C8.47476 16.021 8.70876 16.5982 8.91341 17.1862C9.15186 17.9601 9.34731 18.7468 9.49885 19.5425C9.54092 19.9969 9.64258 20.4442 9.70218 20.8986C9.8389 21.5608 9.99315 22.2194 10.1544 22.8816C10.1935 23.0837 10.2158 23.2887 10.221 23.4945C10.4927 23.5705 10.7733 23.6096 11.0554 23.6107C11.8336 23.6424 12.5908 23.8432 13.3586 23.9383C13.5163 24.1073 13.7442 24.2447 13.8003 24.4842C13.923 24.9034 14.0632 25.319 14.1719 25.7416C14.1979 25.844 14.2085 25.9496 14.2034 26.0551L13.93 25.9142C13.8809 26.8934 14.1298 27.862 14.0947 28.8412C14.1613 30.1937 14.2209 31.5462 14.2911 32.8953C14.4067 34.128 14.5154 35.3608 14.561 36.5971C14.7538 36.5971 14.9641 36.6746 15.1429 36.5654C15.8686 36.2132 16.6048 35.861 17.3445 35.5369C17.2846 35.3576 17.2059 35.1852 17.1096 35.0227C16.8782 34.6705 16.759 34.2337 16.5417 33.8533C16.3507 33.5257 16.1843 33.1843 16.0439 32.8319C15.9282 32.5184 15.7494 32.2296 15.6267 31.9161C15.3883 31.2715 15.0658 30.6692 14.7853 30.0423C14.6709 29.8469 14.5825 29.6373 14.5224 29.4188C14.4874 28.7672 14.4453 28.1191 14.4488 27.4675C14.5049 27.6894 14.5435 27.9148 14.589 28.1403C14.7748 28.8835 15.2902 29.4611 15.6022 30.1514C15.7704 30.5037 15.9527 30.8207 16.1035 31.1623C15.9916 30.8816 15.9139 30.5883 15.8721 30.2888C15.3603 28.8799 14.8204 27.4992 14.3226 26.1009C14.3016 25.8297 14.7082 25.6994 14.6416 25.3965C14.5925 24.9914 14.5505 24.5864 14.5014 24.1813C14.3272 24.0207 14.1421 23.8724 13.9475 23.7375C13.8774 23.3853 13.9124 23.0331 13.8283 22.6808C13.7442 22.3286 13.6881 21.9165 13.5934 21.5396C13.43 20.8423 13.3025 20.1369 13.2113 19.4263C13.188 19.2878 13.1763 19.1476 13.1763 19.0072C13.4532 19.4791 13.5268 20.0357 13.8248 20.5006C13.8262 20.2132 13.7714 19.9284 13.6635 19.6623C13.5969 19.3629 13.4994 19.0714 13.3726 18.7923C13.2329 18.4887 13.1611 18.1581 13.1622 17.8237C13.015 17.6828 12.8502 17.5701 12.696 17.4398C12.6013 17.2707 12.6364 17.0594 12.5663 16.8797C12.486 16.7884 12.4133 16.6906 12.3489 16.5874C12.3271 16.3119 12.3271 16.0352 12.3489 15.7597C12.0755 15.4568 11.8406 15.1151 11.5461 14.8298C11.1763 14.4994 10.8584 14.1146 10.6031 13.6886C10.9 13.8191 11.1763 13.9923 11.4234 14.2029C11.8482 14.6348 12.2309 15.1066 12.5663 15.6117C12.7065 15.7984 12.6294 16.045 12.6434 16.2634C12.6574 16.4817 12.7766 16.5346 12.8537 16.6614C12.9471 16.8354 13.0021 17.0276 13.015 17.2249C13.1509 17.3275 13.2745 17.4457 13.3831 17.5771C13.4698 17.8702 13.5412 18.1677 13.5969 18.4683C13.7919 18.9047 13.9412 19.3603 14.0422 19.8278C14.0842 20.0251 14.1999 20.2223 14.1298 20.4301C13.9429 21.2085 13.925 22.0182 14.0772 22.8041C14.1193 23.0507 14.0246 23.3888 14.3121 23.5086C14.5738 23.4756 14.8395 23.4947 15.0938 23.5649C15.3228 23.6955 15.5174 23.8791 15.6618 24.1003C15.8195 24.3081 16.1315 24.2517 16.2893 24.4525C16.6524 24.8624 17.1185 25.1666 17.6389 25.3331L17.8738 25.1992C17.9338 24.7759 17.9514 24.3475 17.9264 23.9207C17.9264 23.5508 17.7967 23.1916 17.7932 22.8217C17.7539 22.5763 17.7024 22.3329 17.6389 22.0926C17.5239 21.6542 17.5661 21.1891 17.7581 20.7788C17.8476 20.587 17.9532 20.4032 18.0736 20.2294C18.4734 19.7819 18.7777 19.2569 18.9676 18.6866C19.0509 18.5188 19.1043 18.3376 19.1253 18.1513C19.1476 17.7807 19.2087 17.4135 19.3076 17.0559C19.7272 16.8388 20.1741 16.68 20.6363 16.5839C20.8642 16.5843 21.0908 16.6175 21.3093 16.6825C21.5092 16.7318 21.723 16.7459 21.9193 16.8128C21.9906 16.8907 22.0336 16.9905 22.0412 17.096C22.0489 17.2016 22.0207 17.3066 21.9614 17.394C22.2383 17.5983 22.1191 18.0069 22.3575 18.2358C22.4627 18.3325 22.5268 18.4662 22.5363 18.6092C22.5924 18.7782 22.4206 18.8768 22.368 19.0142C22.3629 19.1322 22.3711 19.2503 22.3926 19.3664C22.3435 19.458 22.2909 19.5461 22.2453 19.6412C22.3505 19.8162 22.4028 20.018 22.3961 20.2223C22.2734 20.3879 22.0455 20.4865 22.0175 20.719C21.9348 21.2452 21.9647 21.7832 22.1051 22.2969C22.1228 22.3671 22.1615 22.4301 22.2161 22.4774C22.2707 22.5246 22.3384 22.5539 22.4101 22.5611C22.9373 22.6378 23.4732 22.6307 23.9982 22.5399C24.0097 22.7372 23.9872 22.9351 23.9315 23.1246C23.9636 23.2267 24.0071 23.3248 24.0613 23.417C24.0075 23.5449 23.9732 23.6803 23.9596 23.8185C24.0161 23.9988 24.056 24.1839 24.0788 24.3715C23.9105 24.4102 23.7002 24.4208 23.6055 24.5828C23.5109 24.7449 23.6581 24.8893 23.6055 25.0302C23.4863 25.171 23.3146 25.2943 23.3286 25.5056C23.5407 25.5915 23.7124 25.7552 23.8089 25.9635C23.8089 26.2101 23.602 26.4038 23.6231 26.668C23.6188 26.7277 23.6298 26.7874 23.655 26.8417C23.6801 26.8959 23.7186 26.9428 23.7668 26.9779C23.9201 27.0351 24.0845 27.0556 24.2471 27.0378C25.0422 26.9415 25.8257 26.7645 26.5853 26.5095C27.9876 25.8684 29.4494 25.2098 30.9919 24.935C31.1076 24.8998 31.2548 24.8681 31.3004 24.7378C31.3404 24.629 31.3529 24.5119 31.337 24.397C31.3211 24.2821 31.2772 24.1729 31.2092 24.0792C30.9183 23.7269 30.4205 23.6318 30.1996 23.2268C30.0734 23.0401 30.1996 22.8182 30.1996 22.6174C30.2083 22.4632 30.1678 22.3102 30.0839 22.1807C29.9963 22.0151 30.0839 21.8285 29.9823 21.6559C29.8806 21.4833 29.6317 21.3706 29.4915 21.1733C29.431 20.8365 29.4854 20.4891 29.6457 20.1871C29.7484 19.8306 29.7593 19.4536 29.6773 19.0917C29.6422 18.8134 29.9928 18.7113 30.0068 18.4507C29.9779 18.2844 29.9172 18.1253 29.828 17.9822C29.9894 17.8354 30.1256 17.6628 30.2312 17.4715C30.2749 17.3059 30.2985 17.1356 30.3013 16.9643C30.459 16.7776 30.5642 16.531 30.7851 16.4078C31.0059 16.2845 31.1146 16.1013 31.3284 16.0274C31.5954 16.0867 31.8707 16.0986 32.1417 16.0626C32.4923 16.0098 32.8429 15.7597 33.1934 15.964C33.6945 16.235 34.1577 16.5714 34.5711 16.9643C34.9617 17.2931 35.2967 17.6832 35.5632 18.1196C35.749 18.433 35.6544 18.824 35.7701 19.1445C35.707 19.3488 35.5457 19.5531 35.6298 19.775C35.7596 20.1554 35.9489 20.5111 36.0751 20.8951C36.1767 21.1839 36.1031 21.5079 36.2328 21.7862C36.2763 21.9307 36.2903 22.0825 36.274 22.2326C36.2577 22.3827 36.2115 22.528 36.1382 22.6597C36.1191 22.6987 36.1089 22.7415 36.1084 22.785C36.1079 22.8285 36.117 22.8716 36.1352 22.911C36.1533 22.9505 36.18 22.9854 36.2132 23.0132C36.2465 23.041 36.2855 23.0611 36.3275 23.0718C36.8779 23.1352 37.4563 23.0366 37.9891 23.2268C38.2374 23.2843 38.4744 23.3831 38.6903 23.5191C38.8799 23.7429 39.0456 23.9861 39.1846 24.2447C39.4454 24.6165 39.6652 25.0157 39.8401 25.4352C40.082 26.2488 40.6079 26.9286 40.9374 27.7035C41.0531 27.9606 41.1302 28.2318 41.2599 28.4854C41.7822 29.5421 42.3887 30.5318 42.9075 31.5815C43.0302 31.8386 43.1915 32.0781 43.3002 32.3493C43.4002 32.5328 43.5176 32.7062 43.6507 32.8671C44.2222 33.6525 44.3799 34.6282 44.6393 35.5404C44.748 36.0582 44.9408 36.5619 45.0179 37.0867C45.074 37.3509 45.1266 37.615 45.1827 37.8827C45.2055 37.9653 45.2446 38.0424 45.2975 38.1096C45.3505 38.1767 45.4164 38.2325 45.4912 38.2737C46.0696 38.6259 46.6095 39.0556 47.202 39.4078C47.3228 39.4855 47.417 39.5987 47.4719 39.7319C47.8618 39.8218 48.2449 39.9395 48.6182 40.0841C48.8791 40.1784 49.1178 40.3259 49.3193 40.5173C48.7544 40.2295 48.1529 40.0209 47.5315 39.8974C47.5315 40.0101 47.5665 40.1264 47.5806 40.2496C48.724 40.3976 49.8033 40.8648 50.6957 41.5983C51.588 42.3318 52.2577 43.302 52.6287 44.3988C53.2663 46.3608 53.1729 48.4887 52.3657 50.3866C51.426 52.7262 49.656 54.6325 47.3983 55.7368C47.0793 55.9024 46.7322 56.001 46.4167 56.1595C46.5464 56.2053 46.6726 56.244 46.8058 56.2898C46.8584 56.4835 46.9145 56.6737 46.9776 56.8639C32.2843 56.8639 17.5922 56.8639 2.90125 56.8639C2.91878 56.7371 2.93631 56.6103 2.95383 56.4871C3.10107 56.3814 3.3044 56.3004 3.34296 56.1066C3.38152 55.9129 3.34296 55.7368 3.44112 55.5713C3.66787 55.2509 3.87283 54.9155 4.0546 54.5674C4.20535 54.1835 4.33856 53.789 4.45425 53.391C4.49791 53.1808 4.49791 52.9637 4.45425 52.7535C4.30372 51.88 4.22981 50.9948 4.23339 50.1083C4.02656 49.9991 3.96346 49.7561 3.88283 49.5729C3.79573 49.3004 3.69511 49.0323 3.58134 48.7699C3.52876 48.6572 3.43411 48.5409 3.47968 48.4177C3.5568 48.0654 3.65847 47.6886 3.75312 47.3222C3.79019 47.1137 3.79019 46.9003 3.75312 46.6918C3.70755 46.2867 3.71105 45.8746 3.64094 45.4731C3.60579 45.3583 3.60579 45.2356 3.64094 45.1209C3.78116 44.7475 3.91438 44.3636 4.03357 43.9797C4.15276 43.5957 4.06512 43.1449 4.1142 42.7293C4.20933 42.5227 4.31584 42.3216 4.43321 42.127C4.63334 41.8101 4.74587 41.4454 4.75923 41.0703C4.6774 40.6567 4.44646 40.2879 4.11069 40.0348C3.91806 39.8928 3.7509 39.7189 3.6164 39.5205C3.6164 39.0521 3.64094 38.5907 3.6164 38.1117C3.44879 37.2738 3.37937 36.4191 3.40957 35.5651C3.44462 34.4873 3.40957 33.4095 3.33244 32.3317C3.29739 31.8844 3.35348 31.4335 3.35348 30.9862C3.35348 30.1726 3.46215 29.3625 3.50071 28.5488C3.7888 27.5333 4.14005 26.5369 4.5524 25.5655C4.68153 25.3371 4.79855 25.1019 4.90297 24.8611C4.6155 24.1566 4.03357 23.6424 3.67599 22.9908C3.33658 22.3255 3.04146 21.6383 2.79257 20.9338C2.633 20.4141 2.51231 19.8831 2.43149 19.3453C2.35087 18.9191 2.23868 18.5035 2.15806 18.0808C2.03383 17.0568 1.65795 16.08 1.0643 15.2384C0.933861 15.0812 0.833971 14.9008 0.769824 14.7065C0.565808 13.7958 0.448425 12.8676 0.41926 11.9346C0.377255 11.1993 0.274063 10.4688 0.110765 9.75079C0.00339121 9.2131 -0.0261271 8.66264 0.0231239 8.11647C0.000819575 7.65178 0.0409105 7.18619 0.142315 6.73225C0.396859 6.01654 0.706283 5.32175 1.0678 4.65414C1.29472 4.26625 1.49614 3.86385 1.67077 3.44954C1.78646 3.15015 1.94772 2.8719 2.08093 2.58308C2.14053 2.44219 2.28776 2.37879 2.3754 2.26256C2.56821 1.94203 2.61729 1.53698 2.89424 1.26929C3.01343 1.14953 3.12912 0.973425 3.32193 1.01921C3.51474 1.065 3.51824 1.2552 3.5568 1.38904C3.82634 0.968516 4.21272 0.636651 4.66809 0.434525C4.8609 0.360558 4.96957 0.554276 4.99411 0.716298C5.21617 0.494518 5.51538 0.368207 5.82845 0.364076C5.93713 0.364076 5.99322 0.46975 6.05983 0.536672H6.04931ZM6.05983 0.839577C5.86702 1.0967 5.56904 1.24111 5.3587 1.49119C5.14818 1.7187 5.02731 2.01543 5.01865 2.32595C5.12032 2.18154 5.15537 1.97373 5.30962 1.87863C5.50869 1.75511 5.74308 1.70182 5.97569 1.72718L5.75834 1.58981C5.92661 1.51584 6.16499 1.4454 6.18953 1.23759C6.25614 0.906501 6.64527 0.804357 6.79601 0.533146C6.86262 0.402825 7.01336 0.374649 7.14657 0.314771C7.09399 0.251371 7.05192 0.145703 6.95026 0.170359C6.55412 0.216148 6.34028 0.5895 6.09138 0.850144L6.05983 0.839577ZM4.29299 1.87863C4.3768 1.91612 4.46798 1.934 4.55968 1.93095C4.65137 1.9279 4.74117 1.90399 4.82234 1.86102C5.03969 1.5088 5.32014 1.15657 5.52346 0.804353C5.55429 0.747702 5.60003 0.700659 5.65567 0.668357C5.71132 0.636056 5.77472 0.619743 5.83897 0.621202C5.8565 0.659946 5.88805 0.740958 5.90207 0.786746L5.97219 0.666992C5.90207 0.575415 5.81443 0.455656 5.67771 0.497922C5.01865 0.712777 4.64706 1.33621 4.3 1.90681L4.29299 1.87863ZM4.59447 0.656426C4.14926 0.857192 3.94943 1.33621 3.63743 1.67787C3.48033 1.85208 3.36096 2.05717 3.28687 2.28016C3.57938 1.96765 3.89081 1.67358 4.21937 1.39961C4.41218 1.25872 4.40166 0.980474 4.56993 0.81493C4.65056 0.726875 4.77676 0.726873 4.87492 0.69165C4.83665 0.655112 4.78766 0.631943 4.73525 0.625598C4.68283 0.619253 4.62977 0.630067 4.58395 0.656426H4.59447ZM2.92228 1.61447C2.83114 1.89977 2.72597 2.1745 2.6208 2.45627C2.4981 2.54785 2.35086 2.62535 2.29127 2.77328C2.14403 3.07619 1.98277 3.36501 1.86358 3.68553C1.65675 4.20682 1.33073 4.67527 1.10987 5.19304C0.734768 5.95032 0.286047 6.72168 0.293058 7.58814C0.324867 8.05793 0.311955 8.5297 0.254496 8.99703C0.232751 9.24467 0.267521 9.49403 0.356159 9.72613C0.592777 10.5154 0.710931 11.3357 0.706723 12.16C0.836431 12.2339 0.962634 12.3079 1.08884 12.3854C1.02527 11.9303 0.928007 11.4805 0.797869 11.0399C0.697331 10.5463 0.570953 10.0584 0.41926 9.57819C0.356159 9.2471 0.555981 8.95124 0.650633 8.64833C0.846948 8.16931 0.966139 7.66211 1.15544 7.18309C1.33463 6.45847 1.57747 5.75125 1.88111 5.06976C2.01949 4.70881 2.2161 4.37323 2.46304 4.07649C2.63132 3.90743 2.8697 3.8405 3.04498 3.67848C3.07148 3.65878 3.09022 3.63033 3.09791 3.59812C3.1056 3.56592 3.10176 3.53201 3.08705 3.50237C2.94682 3.35444 2.73648 3.30513 2.61028 3.15015C2.48408 2.99517 2.80309 2.85781 2.83464 2.6817C2.83139 2.41355 2.86202 2.14607 2.92579 1.88568C2.97848 1.73398 3.04785 1.58868 3.13262 1.45245C3.20624 1.33622 3.33945 1.45245 3.43411 1.45245C3.43411 1.33269 3.36049 1.18828 3.21676 1.21998C3.07316 1.32043 2.96414 1.46319 2.90475 1.62856L2.92228 1.61447ZM5.77587 2.68523C5.70576 2.87895 5.71627 3.1889 5.94765 3.26286C6.58918 3.19946 7.26226 3.22412 7.86523 2.96347C8.00545 2.90359 7.98442 2.73453 7.99494 2.61125C7.43864 2.50849 6.87674 2.4391 6.31223 2.40344C6.08086 2.333 6.14046 2.05123 6.14747 1.88216C5.96854 2.12048 5.84189 2.39417 5.77587 2.68523ZM8.4051 6.11233C8.05727 6.29462 7.74212 6.53389 7.4726 6.8203C7.25875 7.38738 7.20266 8.00377 7.04491 8.58141C6.72016 9.1028 6.46333 9.66388 6.28068 10.2509C6.38585 10.1136 6.50504 9.96564 6.69785 9.98677C6.6782 9.88176 6.68454 9.77352 6.71633 9.67156C6.74812 9.5696 6.80438 9.47705 6.88014 9.40208C6.98531 9.49014 7.08698 9.58172 7.19565 9.66977C7.31835 9.52184 7.21668 9.24358 7.42702 9.15201C7.58836 9.1278 7.7531 9.15919 7.89441 9.24105C8.03573 9.32292 8.1453 9.45043 8.20527 9.60285L8.50325 9.69443C8.48572 9.50423 8.33849 9.21893 8.55233 9.08861C8.7817 8.97901 9.04152 8.95166 9.28852 9.01112C9.35595 8.8908 9.44746 8.7858 9.55726 8.70275C9.66707 8.61971 9.7928 8.56041 9.92654 8.52858C10.0295 8.37174 10.0911 8.19112 10.1053 8.00376L10.3016 8.23975C10.3814 8.26934 10.4673 8.27808 10.5513 8.26514C10.6353 8.2522 10.7147 8.21801 10.7819 8.16579C10.512 7.9298 10.3051 7.46135 10.6066 7.17605C10.5944 7.37626 10.6292 7.57654 10.7083 7.76073C10.845 8.00728 11.2131 8.11296 11.2306 8.41939C11.2552 8.58846 11.0659 8.66595 10.9607 8.77161C11.136 8.80683 11.3814 8.91602 11.5041 8.72582C11.6934 8.47222 11.5286 8.17283 11.4515 7.90866C11.5795 8.01936 11.6689 8.16826 11.7068 8.33364C11.7446 8.49901 11.7289 8.67222 11.6618 8.82797C11.6092 8.96886 11.4515 8.99703 11.3323 9.05338L11.448 9.25063C11.7212 9.25011 11.9929 9.29047 12.2543 9.37038C12.384 9.41265 12.3454 9.58876 12.2963 9.68386C12.1211 10.0361 12.2332 10.4165 12.2227 10.7793C12.1582 10.7082 12.0736 10.6586 11.9802 10.6372C11.8869 10.6158 11.7892 10.6236 11.7004 10.6595C11.6779 10.6879 11.6621 10.721 11.6542 10.7564C11.6463 10.7918 11.6465 10.8285 11.6548 10.8638C11.8047 10.9996 11.9966 11.0792 12.1982 11.0892C12.2201 11.0892 12.2418 11.0848 12.2621 11.0763C12.2823 11.0678 12.3006 11.0552 12.316 11.0395C12.3313 11.0238 12.3434 11.0051 12.3514 10.9846C12.3595 10.9641 12.3634 10.9422 12.363 10.9202C12.345 10.6681 12.345 10.415 12.363 10.1629C12.4255 9.94506 12.5004 9.73102 12.5873 9.52183C12.648 9.29226 12.6728 9.05462 12.6609 8.81739C12.5291 8.78893 12.4048 8.73239 12.2966 8.65158C12.1883 8.57077 12.0986 8.46757 12.0334 8.34894C11.9636 8.07764 11.9178 7.80065 11.8967 7.52122C12.1 7.69029 12.0615 7.9791 12.1666 8.19044C12.3482 8.32246 12.5448 8.43242 12.7521 8.51801C12.8481 8.44411 12.9529 8.38257 13.0641 8.33485C12.813 7.86983 12.507 7.43698 12.1526 7.04572C11.8776 6.68803 11.5154 6.40777 11.1009 6.23209C10.7316 6.06329 10.3322 5.97106 9.92654 5.96088C9.4091 5.94961 8.8917 5.98497 8.38056 6.06654L8.4051 6.11233ZM3.16067 8.50745C2.88243 8.98623 2.75988 9.54033 2.8101 10.0924C2.90073 9.90685 3.00624 9.72897 3.12561 9.56058C3.29037 9.89167 3.36049 10.265 3.51473 10.6172C3.59186 10.7969 3.63393 10.9871 3.70754 11.1702C3.73624 10.7011 3.73624 10.2305 3.70754 9.76135C3.53577 9.33517 3.15366 8.9935 3.15716 8.51096L3.16067 8.50745ZM9.66712 8.89841C9.56084 9.00245 9.47728 9.12758 9.42176 9.26584C9.36623 9.40409 9.33996 9.55245 9.3446 9.70147C9.33308 9.74729 9.33802 9.79572 9.35854 9.83824C9.37906 9.88076 9.41385 9.91465 9.45679 9.93394C9.5562 9.96391 9.66067 9.97312 9.76377 9.961C9.86686 9.94889 9.9664 9.9157 10.0562 9.86349C10.0774 9.627 10.1114 9.39184 10.1579 9.15905C10.2999 9.07515 10.4462 8.99873 10.5961 8.9301C10.5961 8.86318 10.5611 8.79626 10.5435 8.7223C10.3936 8.68727 10.238 8.68454 10.0869 8.71429C9.93587 8.74403 9.7928 8.80558 9.66712 8.89488V8.89841ZM10.4769 9.19076C10.3588 9.48013 10.2764 9.78294 10.2315 10.0924C10.207 10.2404 10.1299 10.3953 10.1895 10.5398C10.2911 10.8215 10.3332 11.1139 10.4068 11.4027C10.6908 11.2618 10.8625 10.9765 11.1079 10.8004C11.2429 10.742 11.3824 10.6949 11.5251 10.6595C11.586 10.4758 11.6133 10.2824 11.6057 10.0889C11.4823 9.98064 11.3738 9.85627 11.2832 9.71909C11.197 9.5236 11.1369 9.31752 11.1044 9.10622C10.8941 9.13087 10.6382 9.0393 10.4629 9.18723L10.4769 9.19076ZM6.99934 10.4411C6.99451 10.5262 6.95918 10.6066 6.89988 10.6675C6.84058 10.7283 6.76133 10.7656 6.67682 10.7722C6.48842 11.1528 6.25284 11.5078 5.97569 11.8289C6.12727 12.0553 6.2654 12.2905 6.38936 12.5333C6.49539 12.6929 6.61254 12.8448 6.73992 12.9877C6.83457 13.1075 6.88014 13.266 7.00985 13.3399C7.23421 13.4984 7.45507 13.664 7.67592 13.826C8.10087 14.0575 8.53861 14.2645 8.98703 14.4459C9.05151 14.2026 9.07287 13.9499 9.05013 13.6992C8.78367 13.5614 8.56673 13.3435 8.42963 13.0758C8.39458 12.9947 8.30343 12.8996 8.38056 12.8116C8.56635 12.9349 8.73112 13.1145 8.98002 13.0687C8.90896 12.9306 8.85256 12.7854 8.81175 12.6355C8.81175 12.5263 8.86433 12.4171 8.87485 12.3044C8.82272 12.1473 8.76186 11.9932 8.69256 11.843C8.8137 11.5825 8.86448 11.2946 8.83979 11.0082C9.02785 11.0754 9.21065 11.1567 9.38667 11.2512C9.41342 11.1096 9.47622 10.9773 9.56896 10.8673C9.56896 11.0681 9.56896 11.2689 9.56896 11.4696C9.61203 11.5649 9.67135 11.652 9.74425 11.7267C9.84309 11.6593 9.9267 11.5717 9.98964 11.4696C10.1789 11.1879 9.98964 10.8568 9.92654 10.5644C9.55688 10.6496 9.1691 10.5996 8.83278 10.4235C8.61718 10.4972 8.39355 10.5445 8.16671 10.5644C8.2331 10.4175 8.30682 10.2741 8.38757 10.1347C7.90379 10.1981 7.44455 10.3566 6.96779 10.4447L6.99934 10.4411ZM3.81271 12.079C3.78897 12.2234 3.72861 12.3593 3.63743 12.4735C3.4239 12.8388 3.18982 13.1916 2.93631 13.5301C2.72947 13.7274 2.4946 13.9 2.27725 14.0937C2.61208 14.1411 2.95298 14.1208 3.27986 14.0338C3.52909 13.8301 3.7591 13.6037 3.96696 13.3575C3.89631 13.7837 3.75657 14.1954 3.5533 14.5762C3.85829 14.2874 4.09667 13.9352 4.39114 13.6323C4.39114 13.1356 4.3666 12.6355 4.3666 12.1388C4.32183 11.5092 4.21736 10.8853 4.0546 10.2756C3.95798 10.8773 3.89594 11.4842 3.8688 12.0931L3.81271 12.079ZM10.9362 11.5577C10.9993 11.6598 11.1255 11.6774 11.2236 11.7267C11.2799 11.6274 11.3554 11.5403 11.4457 11.4707C11.5361 11.4012 11.6393 11.3505 11.7495 11.3217L11.8581 11.0857C11.7393 11.0593 11.6294 11.0022 11.5391 10.9202C11.4559 10.9145 11.3725 10.9273 11.2947 10.9575C11.2169 10.9878 11.1466 11.0347 11.0888 11.0951C11.031 11.1556 10.9871 11.228 10.9601 11.3073C10.9331 11.3866 10.9238 11.4708 10.9327 11.5542L10.9362 11.5577ZM4.76625 11.1738C4.80602 11.7248 4.80602 12.2781 4.76625 12.8292C4.77631 13.1079 4.76459 13.3871 4.73119 13.664C4.58151 14.1349 4.39996 14.5951 4.18782 15.0411C4.31948 15.0662 4.45374 15.0744 4.58746 15.0658C4.68968 14.9736 4.77927 14.8682 4.85389 14.7523C4.96957 14.5868 5.15537 14.4635 5.20445 14.2663C5.27124 13.7997 5.30171 13.3287 5.2956 12.8574C5.41357 13.1027 5.55071 13.3383 5.70576 13.5618C5.95549 13.8545 6.08132 14.2338 6.05632 14.6185C6.01826 14.9756 5.92605 15.3249 5.78288 15.654C5.27106 16.6261 4.9871 17.6969 4.51033 18.6866C4.30754 18.6405 4.11421 18.5595 3.93892 18.4471C3.79168 18.3309 3.64795 18.2182 3.4902 18.116C3.52175 18.5528 3.5568 18.9931 3.57083 19.4298C3.56322 19.6936 3.59996 19.9568 3.6795 20.2082C3.79802 20.5379 3.94342 20.8571 4.1142 21.1628C4.1327 21.19 4.14436 21.2213 4.14819 21.2541C4.15202 21.2868 4.1479 21.32 4.13619 21.3508C4.12448 21.3816 4.10552 21.4091 4.08093 21.4309C4.05635 21.4528 4.02687 21.4683 3.99501 21.4762C3.85169 21.4916 3.70714 21.4916 3.56381 21.4762C3.78116 21.6277 3.98099 21.8038 4.19483 21.9588C4.3 22.0468 4.45074 22.1243 4.44723 22.2828C4.47528 22.6738 4.44723 23.0648 4.44723 23.4522C4.61632 23.0911 4.82065 22.7478 5.05721 22.4272C5.26872 22.1808 5.42956 21.8947 5.53047 21.5854C5.77587 20.3362 5.96517 19.0788 6.09839 17.8131C6.12293 17.6899 6.09839 17.5349 6.22459 17.4609C6.24075 17.7616 6.23255 18.0632 6.20005 18.3626C6.14747 18.9191 6.11241 19.4791 6.05281 20.0356C6.00346 20.7748 5.90745 21.5101 5.76535 22.237C5.7303 22.3568 5.7338 22.5012 5.63214 22.5893C5.36571 22.8464 5.06423 23.0683 4.80831 23.3395C4.71791 23.5358 4.64858 23.7413 4.60148 23.9523L4.7382 24.0298C5.18569 23.7958 5.6065 23.5135 5.99322 23.188C6.36131 23.188 6.7294 23.1458 7.101 23.1458C6.75672 23.2805 6.42177 23.4382 6.09839 23.6177L6.28068 23.8749C6.75394 23.7269 7.23421 23.5896 7.70397 23.4346C7.89639 23.3705 8.09495 23.3268 8.29642 23.3043C7.94586 23.0014 7.46559 22.8464 7.12904 22.5082C7.06427 22.4607 7.01063 22.3995 6.97187 22.3289C6.93311 22.2583 6.91018 22.1801 6.90468 22.0997C6.88014 20.8493 6.92922 19.5989 6.90468 18.345C6.91693 17.8241 6.89585 17.3029 6.84158 16.7846C6.84158 16.2739 6.68733 15.7843 6.64877 15.2771C6.62774 15.013 6.57866 14.7559 6.57515 14.4917C6.84724 15.1996 7.05607 15.9304 7.19916 16.6755C7.24873 16.9296 7.32877 17.1768 7.43754 17.4116C7.7881 17.5948 8.13867 17.7638 8.48923 17.9223C8.56285 17.9575 8.75215 18.0174 8.74514 17.8801C8.52139 16.9569 8.19935 16.0606 7.7846 15.2067C7.61311 14.8518 7.51304 14.4664 7.49012 14.0725C7.24824 13.8647 6.98531 13.6816 6.75745 13.4597C6.67384 13.2973 6.574 13.1439 6.45947 13.0018C6.12994 12.6496 6.00374 12.1987 5.7303 11.8219C5.60519 11.8216 5.48305 11.7835 5.37973 11.7127L4.74171 11.1984L4.76625 11.1738ZM10.5891 11.6563C10.7504 11.8535 10.7854 12.1107 10.9397 12.3114C11.0939 12.5122 11.2552 12.403 11.4129 12.4277C11.4129 12.3044 11.3849 12.1846 11.3709 12.0754C11.2797 12.0754 11.164 12.1459 11.0869 12.0754C10.9516 11.9564 10.8335 11.8189 10.7363 11.6669H10.5961L10.5891 11.6563ZM9.60402 11.9346C9.80802 12.1454 10.0448 12.3215 10.3051 12.4558C10.3963 12.5052 10.4909 12.4065 10.512 12.3255C10.5646 12.1142 10.4033 11.9275 10.2876 11.7655C10.0422 11.7655 9.86344 11.9627 9.61804 11.9346H9.60402ZM9.36914 12.0508C9.40532 12.281 9.51624 12.4928 9.68465 12.6531L10.0142 12.5791C9.78281 12.4206 9.60753 12.1987 9.36564 12.0508H9.36914ZM1.39733 15.249C1.49069 15.4592 1.59603 15.6638 1.71284 15.8618C1.87059 16.1366 2.24219 16.0626 2.50511 16.126C2.47006 16.0415 2.43851 15.9569 2.40345 15.8724C2.20363 15.7984 1.98628 15.7632 1.79347 15.6751C1.65152 15.5415 1.51915 15.3979 1.39733 15.2454V15.249ZM32.324 16.2598C31.9958 16.3121 31.6621 16.3192 31.3319 16.281C31.1847 16.3866 31.062 16.5205 30.9078 16.6332C30.7535 16.7459 30.6238 16.9854 30.466 17.1333C30.466 17.2038 30.466 17.2742 30.466 17.3447C30.7724 17.2316 31.1071 17.2217 31.4196 17.3165C31.5984 17.2003 31.8087 16.9643 32.0366 17.0981C32.2039 17.2369 32.3969 17.3411 32.6045 17.4046C32.8055 17.3182 33.0252 17.2854 33.2425 17.3095C33.1584 17.4151 33.0742 17.5243 32.9936 17.6335C33.0511 17.7819 33.1264 17.9227 33.218 18.0526C33.3454 18.1296 33.482 18.19 33.6246 18.2323C33.5925 18.0515 33.5246 17.879 33.4248 17.7251C33.546 17.7826 33.6632 17.8485 33.7754 17.9223C33.87 18.0632 33.8244 18.2499 33.87 18.4119C33.9316 18.5011 34.002 18.5837 34.0804 18.6585C34.3678 18.6585 34.6588 18.6585 34.9463 18.6585C35.1531 18.7395 35.2688 18.9579 35.4581 19.0635L35.5001 19.0353C35.5534 18.7588 35.5087 18.4722 35.3739 18.2252C35.1735 17.8751 34.9123 17.5637 34.6027 17.3059C34.3924 17.2144 34.1364 17.2707 33.9261 17.165C33.8022 17.0618 33.6915 16.9435 33.5966 16.8128C33.7222 16.8287 33.8486 16.8369 33.9752 16.8375C33.9752 16.7283 33.863 16.686 33.7929 16.6297C33.5545 16.4747 33.3231 16.3162 33.0918 16.1823C32.8604 16.0485 32.5975 16.2387 32.3556 16.2739L32.324 16.2598ZM19.6722 17.2108C19.4521 17.5244 19.3502 17.9065 19.3847 18.2886C19.6582 18.0139 19.7739 17.549 20.1875 17.4363C20.5242 17.3088 20.8796 17.2386 21.2392 17.2284C21.4304 17.2477 21.623 17.2477 21.8141 17.2284C21.8386 17.2133 21.8579 17.1912 21.8697 17.1649C21.8815 17.1385 21.8852 17.1093 21.8803 17.0809C21.8754 17.0524 21.8621 17.0261 21.8422 17.0054C21.8223 16.9846 21.7967 16.9703 21.7686 16.9643C21.4637 16.8667 21.1503 16.7983 20.8326 16.76C20.4035 16.764 19.9894 16.9185 19.6617 17.1967L19.6722 17.2108ZM20.4364 17.549C20.2787 17.6899 20.156 17.8624 20.0017 18.0069C20.202 17.9275 20.4182 17.8966 20.6325 17.9168C20.8469 17.937 21.0536 18.0077 21.2357 18.1231C21.4689 18.2437 21.7363 18.2798 21.9929 18.2252C21.9989 18.1001 21.9691 17.9758 21.907 17.8672C21.8448 17.7586 21.753 17.6701 21.6424 17.6124C21.2552 17.4997 20.8473 17.478 20.4505 17.549H20.4364ZM32.1452 17.63C31.7947 17.7286 31.4266 17.8096 31.069 17.8977C30.8294 17.9707 30.6185 18.1173 30.466 18.3168C30.3223 18.5457 30.2207 18.8029 30.0945 19.0424C30.0945 19.1621 30.126 19.2784 30.1435 19.3946C30.2059 19.2716 30.2934 19.1631 30.4004 19.0763C30.5073 18.9895 30.6312 18.9264 30.764 18.8909C30.8587 19.0107 31.0164 19.1093 31.0515 19.2431C30.9498 19.6623 30.452 19.694 30.154 19.9194C30.1039 20.0432 30.0835 20.1772 30.0945 20.3104C30.1322 20.4952 30.214 20.668 30.3328 20.8141L30.0804 21.3987C30.1155 21.441 30.1505 21.4798 30.1891 21.5185C30.2172 21.7122 30.2522 21.8989 30.2838 22.0821C30.41 21.8742 30.4836 21.6347 30.6343 21.4375C30.8543 21.3159 31.0801 21.2054 31.3109 21.1064C31.5975 21.2284 31.859 21.4027 32.0821 21.6206C32.1382 21.7932 32.1172 21.9729 32.1838 22.156C32.3415 22.257 32.4726 22.3947 32.5659 22.5576L32.7202 22.4765C32.6457 22.2463 32.5266 22.0332 32.3696 21.8496C32.3413 21.6679 32.3296 21.484 32.3346 21.3001C32.1423 21.1177 31.9279 20.9603 31.6965 20.8317C32.0214 20.8723 32.3211 21.0285 32.5414 21.2719C32.5324 21.3892 32.5324 21.5069 32.5414 21.6242C32.6214 21.7705 32.7104 21.9116 32.8078 22.0468C32.969 22.0191 33.1317 22.0014 33.2951 21.994C33.1937 21.8174 33.1024 21.6351 33.0217 21.4481C33.1497 21.5157 33.2677 21.6011 33.3722 21.7017C33.4984 21.7439 33.6281 21.7686 33.7543 21.8003C33.7228 21.6911 33.6947 21.5749 33.6667 21.4481C33.7909 21.5258 33.8896 21.6385 33.9506 21.7721C34.0243 21.92 33.884 22.0574 33.8209 22.1807C33.9138 22.2412 33.9976 22.3148 34.0698 22.3991C34.1365 22.5188 34.0523 22.6562 33.9892 22.7513C33.4577 23.4516 32.9773 24.1897 32.5519 24.9597C32.4608 25.3542 32.4713 25.7698 32.4047 26.1678C32.3344 26.4009 32.2228 26.6193 32.0751 26.8124C32.0401 26.5764 32.0401 26.3439 32.019 26.108C32.019 26.0164 31.9524 25.9565 31.8999 25.8896C31.7701 25.7416 31.651 25.5937 31.5493 25.4387C31.4091 25.5867 31.1987 25.7064 31.1497 25.9213C30.9423 26.6054 30.8884 27.3271 30.9919 28.0346C31.2773 28.0377 31.5617 28.0708 31.8403 28.1332C31.9489 28.6756 32.1312 29.1899 32.2679 29.7288C32.3065 29.8485 32.331 29.9894 32.4467 30.0564C32.7622 30.2747 33.0462 30.5424 33.3617 30.7608C34.0324 30.8218 34.6997 30.9134 35.3634 31.0355C35.7601 31.1432 36.1461 31.287 36.5168 31.4652C36.9811 31.3072 37.4674 31.224 37.9576 31.2187C37.8559 31.0003 37.7367 30.7995 37.6561 30.5776C37.6415 30.1917 37.6591 29.8053 37.7087 29.4223C37.6916 29.2659 37.6346 29.1165 37.543 28.9887C37.4515 28.861 37.3286 28.7592 37.1864 28.6933C37.0923 28.6376 36.9865 28.6048 36.8776 28.5975C36.7686 28.5901 36.6595 28.6085 36.5588 28.651C36.2959 28.7707 36.0856 29.0032 35.8156 29.0983C35.7888 29.108 35.7598 29.11 35.7319 29.1041C35.704 29.0982 35.6783 29.0846 35.6576 29.0649C35.6369 29.0452 35.622 29.0201 35.6146 28.9924C35.6073 28.9648 35.6077 28.9356 35.6158 28.9081C35.7718 28.3749 35.8889 27.8311 35.9664 27.2808C35.9909 26.9674 35.9664 26.6574 35.9839 26.3439C35.9839 26.2524 36.047 26.1854 36.0961 26.122C36.2214 26.3052 36.3824 26.461 36.5694 26.5799C36.8288 26.7173 37.0566 26.904 37.3126 27.0554C37.3827 27.464 37.5124 27.855 37.614 28.2565C37.6422 28.3718 37.6922 28.4806 37.7613 28.577C38.1609 29.1406 38.6377 29.6337 39.0233 30.2184C39.2407 30.5142 39.3739 30.8594 39.6052 31.1482C39.8008 31.3547 40.0183 31.5389 40.2538 31.6977C40.3604 31.5322 40.5199 31.408 40.706 31.3455C40.7376 31.6132 40.7656 31.8773 40.7866 32.145C40.7851 32.2939 40.8305 32.4394 40.9163 32.5606C41.0215 32.7086 41.2248 32.8072 41.2248 33.0115C41.2464 33.2681 41.2886 33.5225 41.351 33.7723C41.4308 33.9998 41.5342 34.2182 41.6595 34.4239C41.7787 34.7233 41.9365 35.0051 42.0627 35.3009C42.3477 35.8392 42.6051 36.3917 42.8339 36.9564C43.0403 37.3713 43.172 37.8197 43.2231 38.2807C43.2236 38.5163 43.2084 38.7516 43.1775 38.9852C43.1064 39.2296 42.9872 39.4571 42.8269 39.6544C42.5359 40.0066 42.6306 40.5349 42.259 40.8202C40.005 42.0967 38.3173 44.1851 37.5369 46.6636C36.9747 48.3613 36.9747 50.1963 37.5369 51.8941C37.8676 52.8651 38.4325 53.7388 39.1811 54.4371C38.8671 54.0589 38.589 53.6521 38.3502 53.222C37.5706 51.7047 37.3153 49.9699 37.6246 48.2909C37.9231 46.5901 38.6501 44.9945 39.7363 43.6559C40.8224 42.3174 42.2316 41.2805 43.8295 40.6441C43.7799 40.4828 43.7165 40.3261 43.6402 40.1757C43.4159 40.2532 43.195 40.3307 42.9636 40.3941C42.9703 40.2687 42.9915 40.1446 43.0267 40.0242C43.1459 39.8657 43.2967 39.7354 43.4089 39.5769C43.6064 39.664 43.7701 39.8137 43.8751 40.0031C43.9701 40.1861 44.0386 40.3818 44.0784 40.5842C44.122 41.0606 44.2076 41.5321 44.3343 41.9931C44.3729 42.2784 44.8462 42.215 44.8251 41.9333C44.8435 41.4633 44.8306 40.9926 44.7866 40.5244C44.7515 40.2567 44.7024 39.989 44.6849 39.7178C44.6674 39.5276 44.5166 39.3656 44.5166 39.1824C44.6638 39.349 44.7964 39.5281 44.9128 39.7178C45.0916 39.9256 45.0425 40.2179 45.0916 40.468C45.1087 40.7701 45.1415 41.0711 45.1897 41.3697C45.2423 41.5669 45.2598 41.7712 45.3264 41.965C45.393 42.1587 45.7085 42.0389 45.7576 41.8558C45.8733 41.3169 45.7261 40.778 45.7156 40.2355C45.6945 39.9996 45.7156 39.7636 45.6805 39.5311C45.6454 39.2986 45.4386 39.1472 45.3299 38.9535C45.4571 39.0156 45.5685 39.1059 45.656 39.2175C45.7434 39.3292 45.8045 39.4593 45.8347 39.598C45.9154 39.9503 45.9504 40.3307 46.0135 40.697C46.0766 41.0633 46.0135 41.4014 46.1012 41.7536C46.1958 41.7536 46.315 41.7959 46.3886 41.7114C46.5814 41.5282 46.5394 41.2394 46.5569 41.0069C46.5359 40.6547 46.4868 40.3025 46.4763 39.9503C46.4833 39.7244 46.4415 39.4996 46.3536 39.2916C45.9414 38.8798 45.4825 38.5181 44.9864 38.2138C44.8403 37.6402 44.7233 37.0594 44.6358 36.4738C44.5622 36.0265 44.4325 35.5862 44.3273 35.1459C44.1656 34.5959 43.9544 34.0619 43.6963 33.5504C43.6093 33.3385 43.5 33.1366 43.3703 32.9481C42.9866 32.3854 42.6545 31.7889 42.3782 31.1658C42.0942 30.641 41.8944 30.074 41.6105 29.5527C41.4808 29.2956 41.33 29.0525 41.2003 28.8024C40.9759 28.3727 40.8497 27.9008 40.6149 27.471C40.38 27.0413 40.1486 26.5834 39.9137 26.1361C39.8191 25.9494 39.791 25.7346 39.7069 25.5444C39.4054 24.9351 39.0058 24.3821 38.6552 23.7833C38.508 23.5086 38.1609 23.4769 37.9015 23.3712C37.3897 23.181 36.8498 23.3148 36.3134 23.1704C36.1452 23.1387 35.9138 23.0753 35.9208 22.8675C35.9119 22.6234 35.965 22.3809 36.0751 22.1631C36.1452 21.92 35.9489 21.7087 35.9559 21.4586C35.9804 20.8458 35.6053 20.3315 35.43 19.7644C35.4164 19.6676 35.4105 19.5699 35.4125 19.4721C35.1996 19.298 34.9707 19.1447 34.7289 19.0142C34.886 19.3009 34.9322 19.6358 34.8586 19.9546C34.813 20.1484 34.9252 20.335 34.9112 20.5323L35.0269 20.6344C35.0405 20.4701 35.0883 20.3106 35.1671 20.166C35.2477 20.3988 35.3969 20.6015 35.5948 20.7471C35.6974 20.8363 35.7656 20.9589 35.7874 21.0935C35.8092 21.228 35.7832 21.366 35.714 21.4833C35.6614 21.6242 35.5387 21.7651 35.5913 21.9236C35.6709 22.1074 35.7 22.3093 35.6754 22.5082C35.6298 22.6773 35.6298 22.8992 35.4616 22.9943C35.3284 22.9168 35.2512 22.7689 35.132 22.6703C35.0409 22.6949 34.9287 22.7125 34.8691 22.6174C34.7248 22.4313 34.6133 22.2216 34.5396 21.9975C34.4239 21.9975 34.3012 22.0997 34.189 21.9975C34.1575 21.7756 34.189 21.5467 34.189 21.3213C34.189 21.1522 34.3994 21.1029 34.4239 20.9479C34.4509 20.7436 34.4638 20.5376 34.4625 20.3315C34.3114 20.4086 34.1887 20.532 34.1119 20.6837C34.1043 20.7053 34.0919 20.7249 34.0758 20.7411C34.0597 20.7574 34.0402 20.7698 34.0188 20.7775C33.9973 20.7853 33.9744 20.7881 33.9517 20.7859C33.9291 20.7837 33.9071 20.7765 33.8876 20.7647C33.8046 20.684 33.7411 20.5851 33.7022 20.4758C33.6633 20.3665 33.65 20.2496 33.6632 20.1343L33.842 20.2752C33.8946 20.2188 33.9401 20.1448 34.0243 20.1272C34.313 20.0274 34.5639 19.8404 34.7429 19.5919C34.7327 19.3676 34.646 19.1537 34.4975 18.986C34.3748 18.986 34.2521 18.986 34.147 18.9543C34.1053 19.0153 34.0807 19.0863 34.0758 19.16C34.0709 19.2338 34.0858 19.3075 34.1189 19.3735L34.2802 19.2431C34.2451 19.4404 34.2171 19.6623 34.0243 19.7785C33.929 19.6589 33.8793 19.509 33.884 19.3559C33.884 19.0706 33.6597 18.8487 33.7123 18.5598C33.5335 18.3732 33.3161 18.2358 33.1303 18.0597C33.0041 17.947 32.9445 17.785 32.8288 17.6652C32.7296 17.5982 32.6177 17.5523 32.5002 17.5305C32.3826 17.5087 32.2618 17.5114 32.1452 17.5384V17.63ZM20.191 18.0069C19.9549 18.1108 19.7284 18.2357 19.5145 18.3802C19.1464 18.5845 19.1639 19.0635 18.9676 19.3981C18.7781 19.7559 18.5513 20.0924 18.291 20.402C18.1129 20.5839 17.9702 20.7978 17.8703 21.0324C17.7688 21.3146 17.7482 21.6197 17.8107 21.913C17.8317 22.0257 17.8107 22.1842 17.9194 22.2652C18.0704 22.3514 18.2444 22.3883 18.4172 22.3709C18.3072 22.3178 18.2112 22.2394 18.1369 22.1421C18.0626 22.0448 18.0121 21.9314 17.9895 21.8108C17.9502 21.6238 17.9828 21.4288 18.0806 21.2649C18.0917 21.4659 18.168 21.6577 18.298 21.8108C18.4369 21.6246 18.5634 21.4293 18.6766 21.2262C18.8379 21.2262 18.9991 21.1945 19.1534 21.1698C19.1884 21.0324 19.2235 20.9021 19.262 20.7683L20.3418 20.7507C20.8386 20.7874 21.3293 20.8832 21.8036 21.036C21.7791 20.9162 21.8036 20.7718 21.702 20.6837C21.2615 20.4626 20.7877 20.3162 20.2997 20.2505C19.9702 20.2505 19.6407 20.3033 19.3146 20.2505C19.6769 19.917 20.1519 19.7344 20.6433 19.7398C20.7905 19.7398 20.8992 19.8525 21.0289 19.9089C21.3994 19.9766 21.7554 20.1089 22.0806 20.2998C22.1376 20.2504 22.1904 20.1962 22.2383 20.1378C22.2353 19.9728 22.1672 19.8157 22.049 19.701C21.7783 19.5156 21.4908 19.3564 21.1901 19.2255C20.9007 19.0728 20.5679 19.0243 20.2471 19.0882C19.9912 19.1692 19.7388 19.2713 19.4759 19.3312C19.5182 19.2209 19.596 19.128 19.6967 19.067C19.9347 18.8876 20.1841 18.724 20.4434 18.5775C20.5798 18.5939 20.7139 18.6258 20.8431 18.6726C21.1267 18.731 21.4013 18.827 21.6599 18.9578C21.8702 19.0811 21.9474 19.3488 22.1787 19.451C22.1787 19.3171 22.2488 19.1657 22.1577 19.0494C22.041 18.8455 21.8931 18.6613 21.7195 18.5035C21.4986 18.3732 21.2462 18.3239 21.0184 18.2041C20.747 18.0579 20.4332 18.0118 20.1314 18.0738L20.191 18.0069ZM20.4049 21.0747C20.2576 21.1733 20.17 21.3424 20.0193 21.4269C19.8685 21.5115 19.8615 21.8179 19.8265 22.0187C19.8265 22.156 19.7563 22.3709 19.9176 22.4308C20.1405 22.4515 20.3652 22.4373 20.5837 22.3885C20.7309 22.3568 20.7239 22.1877 20.7099 22.0715C20.6818 21.8108 20.7099 21.5467 20.7099 21.286C20.7099 21.1522 20.5696 20.9972 20.4189 21.0606L20.4049 21.0747ZM21.0885 21.5572C20.9518 21.8883 21.0359 22.3814 20.6748 22.5822C20.2576 22.6069 19.837 22.6456 19.4163 22.6597L19.532 22.9626C19.4673 23.0839 19.4268 23.2167 19.4128 23.3536C19.4517 23.4907 19.5083 23.6221 19.5811 23.7445C19.5495 23.8291 19.5215 23.9136 19.4934 24.0017C19.9491 24.0017 20.4014 24.0263 20.8571 24.0017C21.2077 24.0017 21.5582 24.058 21.9088 24.058C22.5679 24.058 23.2269 24.1109 23.8895 24.1003C23.8474 23.9981 23.8089 23.896 23.7703 23.7939C23.8455 23.6727 23.8901 23.5348 23.9 23.3923C23.8597 23.2692 23.8056 23.151 23.7387 23.0401C23.7633 22.9485 23.7913 22.8569 23.8194 22.7654C23.338 22.796 22.8551 22.7877 22.375 22.7407C22.2643 22.7335 22.1587 22.691 22.0737 22.6194C21.9886 22.5479 21.9284 22.451 21.9018 22.3427C21.8175 22.0292 21.775 21.7059 21.7756 21.3811C21.5467 21.4184 21.3207 21.4714 21.099 21.5396L21.0885 21.5572ZM30.8692 21.6418C30.8447 21.7052 30.8166 21.7615 30.7886 21.8214C31.1391 21.8214 31.4897 21.7756 31.8403 21.7474C31.5703 21.4974 31.1917 21.7017 30.8657 21.6418H30.8692ZM30.6869 22.0785C30.5767 22.1714 30.48 22.2793 30.3994 22.3991C30.3985 22.599 30.3714 22.7979 30.3188 22.9908L30.4976 23.2761C30.5884 23.2152 30.674 23.1469 30.7535 23.0718C30.8376 22.9274 30.8797 22.7689 30.9568 22.621C31.0005 22.7524 31.0357 22.8865 31.062 23.0225C31.2967 23.0288 31.5308 23.0488 31.7631 23.0824C31.7421 22.8992 31.665 22.6914 31.7631 22.5188C31.9273 22.5509 32.0849 22.6104 32.2294 22.6949C32.0333 22.5006 31.9095 22.2444 31.8788 21.9694C31.4687 21.9694 31.0655 22.0891 30.6554 22.0785H30.6869ZM18.6275 23.0295L18.6906 23.0824C18.8589 22.9767 19.1148 22.9027 19.1569 22.6808C18.9625 22.7665 18.7845 22.8857 18.631 23.0331L18.6275 23.0295ZM18.7783 23.3148C18.7607 23.417 18.7397 23.5156 18.7222 23.6142C18.8671 23.5438 19.0131 23.4792 19.1604 23.4205C19.1604 23.3148 19.1429 23.2056 19.1358 23.1C19.0166 23.1739 18.901 23.2479 18.7853 23.3148H18.7783ZM8.0966 23.7199C7.79862 23.8502 7.49363 23.9664 7.19565 24.0932C7.11423 24.3771 7.05446 24.6667 7.01686 24.9597C7.01686 25.0619 6.93273 25.1112 6.86963 25.1746C6.7294 24.9139 6.59268 24.6533 6.46998 24.3821C6.34378 25.2943 6.15798 26.189 6.03879 27.0977C5.72328 28.9187 5.47789 30.7502 5.20445 32.5783C5.16728 33.0107 5.16728 33.4455 5.20445 33.878C5.28508 35.6391 5.37272 37.4002 5.45335 39.1824L9.26748 39.4219C9.52649 39.4139 9.78237 39.3627 10.0247 39.2705C10.7013 39.0908 11.3744 38.9182 12.0545 38.7351C12.2634 38.6886 12.4685 38.6262 12.6679 38.5484C12.9531 38.2367 13.22 37.9085 13.4672 37.5657C13.2124 37.7349 12.9452 37.8844 12.6679 38.013C12.1631 38.2103 11.6163 38.3124 11.115 38.4885C10.7707 38.6037 10.4194 38.6967 10.0633 38.7668C9.72128 38.7259 9.37695 38.7083 9.0326 38.714C9.06415 38.5695 9.0957 38.4216 9.12375 38.2737C8.62946 38.2737 8.13165 38.3195 7.63385 38.2737L6.63124 38.2208C7.11842 38.1091 7.59937 37.9716 8.07206 37.8088C8.49624 37.6573 8.9695 37.689 9.36914 37.4565C9.63908 37.3192 9.902 37.1747 10.1719 37.0444C10.5889 36.8002 10.982 36.5172 11.3463 36.1991C11.7577 35.8947 12.1521 35.5678 12.5277 35.2199C12.5183 35.3107 12.4896 35.3984 12.4436 35.477C12.2508 35.787 12.0299 36.0758 11.8126 36.3646C11.5286 36.7979 11.434 37.3227 11.1465 37.7559C11.3884 37.6749 11.6338 37.6009 11.8827 37.534C12.1316 37.4671 12.2823 37.2346 12.4646 37.0761C12.8643 36.7239 13.1657 36.2625 13.5759 35.9244C13.6846 35.8574 13.6671 35.7236 13.6741 35.6109C13.6741 34.9557 13.6951 34.2971 13.6741 33.642C13.6741 31.9971 13.7687 30.3593 13.7547 28.7109C13.7547 28.0945 13.6671 27.4781 13.7021 26.8617C13.7372 26.3968 13.618 25.9389 13.6285 25.4704C13.6357 25.3656 13.6298 25.2603 13.611 25.157C13.454 24.9379 13.2855 24.7274 13.1062 24.5265C13.0571 25.0724 13.0325 25.6219 12.987 26.1678C12.9449 26.9357 12.5523 27.619 12.2858 28.3234C12.1598 28.6705 11.9914 29.0006 11.7845 29.3061C11.7969 29.0248 11.8416 28.7459 11.9177 28.4749C12.0963 27.8481 12.2345 27.2104 12.3314 26.5658C12.4525 25.8387 12.4995 25.1011 12.4716 24.3645C11.77 24.1839 11.0566 24.0533 10.3367 23.9735C9.78587 23.8469 9.22723 23.7574 8.66451 23.7058C8.48616 23.6608 8.29949 23.6608 8.12114 23.7058L8.0966 23.7199ZM18.908 23.9841L18.8063 24.2905C18.9431 24.2664 19.0748 24.2187 19.1954 24.1496C19.271 24.0397 19.3125 23.9098 19.3146 23.7762L18.908 23.9841ZM19.9351 24.3081C19.0973 24.6779 18.4522 25.4634 17.5022 25.5691C17.1727 25.4599 16.8712 25.2802 16.5452 25.157C16.447 25.6883 16.3896 26.2264 16.3734 26.7666C16.5284 26.9803 16.7194 27.1651 16.9378 27.3125C17.1665 27.4197 17.4005 27.5149 17.6389 27.5978C17.9334 27.7458 18.2629 27.8057 18.5644 27.9501C18.6763 27.9967 18.7944 28.0264 18.915 28.0381L20.3172 28.1861C20.2927 27.9289 20.2647 27.6753 20.2366 27.4182C20.0823 27.33 19.9092 27.2805 19.7318 27.2738C19.4344 27.2756 19.1394 27.2206 18.8624 27.1118C19.1785 27.0366 19.4829 26.9181 19.7669 26.7596C20.2565 26.3576 20.5842 25.7906 20.6888 25.164C20.9859 25.1463 21.2771 25.0735 21.5477 24.9491C21.6749 25.0948 21.8346 25.2081 22.0137 25.2797C22.1929 25.3513 22.3864 25.3793 22.5784 25.3612C22.6458 25.3457 22.708 25.3129 22.759 25.266C22.81 25.2191 22.848 25.1597 22.8693 25.0936C22.5745 24.7979 22.2581 24.5248 21.9228 24.2764C21.2622 24.1474 20.5809 24.1727 19.9316 24.3504L19.9351 24.3081ZM5.8565 24.6709C5.38324 26.0798 4.97308 27.5309 4.35959 28.8975C4.46476 27.8409 4.74521 26.8159 4.94854 25.7769C4.87843 25.8332 4.78027 25.8684 4.74872 25.9635C4.51735 26.5553 4.33155 27.1646 4.13874 27.774C3.95147 28.3338 3.84176 28.917 3.81271 29.5069C3.6972 30.6033 3.68311 31.7082 3.77065 32.8072C3.85837 34.005 3.87944 35.2068 3.83375 36.4069C3.82002 36.9699 3.87893 37.5322 4.00903 38.08C4.04058 38.5132 4.00903 38.9499 4.00903 39.3832L4.80481 39.2881C4.78377 38.7738 4.80481 38.2525 4.74872 37.7383C4.60849 36.5055 4.61901 35.2727 4.5524 34.0259C4.49592 33.5414 4.52081 33.0509 4.62602 32.5747C5.0256 31.0322 5.31612 29.4633 5.49542 27.8796C5.59358 27.221 5.75834 26.5764 5.84598 25.9178C5.9394 25.4507 6.05641 24.9887 6.19655 24.5335C6.08787 24.5758 5.97569 24.6216 5.87052 24.6744L5.8565 24.6709ZM29.5581 25.7698C29.3182 25.998 29.1211 26.2676 28.9762 26.5658C28.8359 26.9638 28.6256 27.3337 28.5064 27.7352C28.3421 28.2053 28.2028 28.6838 28.0892 29.1688C28.1103 28.7214 28.1418 28.2706 28.1593 27.8197C28.2224 27.5063 28.3557 27.2069 28.4433 26.9005C28.5309 26.594 28.7939 26.4743 28.9166 26.2312C28.9972 26.0903 29.0568 25.9354 29.1234 25.7874C28.8391 25.8777 28.5501 25.9518 28.2575 26.0093C27.4091 26.2066 26.7746 26.9216 25.8982 27.0272C25.5476 27.066 25.2356 27.2386 24.8886 27.2844C24.4308 27.4041 23.9454 27.3541 23.5214 27.1435C23.4704 27.2462 23.4451 27.3598 23.4478 27.4746C23.4737 27.8205 23.5241 28.1642 23.5985 28.5031C23.7142 28.9433 23.7282 29.4047 23.8544 29.8485C23.933 30.1898 24.0313 30.5261 24.1489 30.8559C24.1489 30.5776 24.0928 30.2994 24.0823 30.0211C24.0823 29.6302 23.9561 29.2568 23.9526 28.8694C23.9526 28.6228 23.9771 28.3727 23.9911 28.1297C24.1594 28.8341 24.3627 29.5386 24.496 30.243C24.6958 31.2997 24.8746 32.3282 25.0674 33.3708C25.0521 32.8648 24.9982 32.3609 24.9061 31.8633C24.7764 31.1588 24.7484 30.4297 24.6607 29.7182C24.6413 29.294 24.6671 28.8689 24.7378 28.4502C25.0148 29.5456 25.2216 30.6622 25.4214 31.7752C25.6774 32.9199 25.8912 34.0752 26.056 35.2305C26.1822 35.0649 26.3329 34.9135 26.4486 34.7409C26.5538 34.5084 26.5958 34.2548 26.6765 34.0118C26.8116 33.615 26.9124 33.2073 26.9779 32.7931C27.0551 32.226 27.2093 31.6695 27.2584 31.0954C27.3361 30.4005 27.4949 29.7172 27.7317 29.0596C27.7317 29.6055 27.6966 30.1515 27.7071 30.6939C27.6545 31.3983 27.5774 32.1274 27.5108 32.8495C27.4534 33.4078 27.3668 33.9627 27.2514 34.512C27.1743 34.917 27.1637 35.3291 27.0691 35.7306C27.2492 35.8716 27.4572 35.9725 27.6791 36.0265C27.7036 35.6954 27.8263 35.3749 27.8368 35.0403C27.8276 34.7343 27.8667 34.4288 27.9525 34.1351C28.1448 33.663 28.2767 33.1683 28.3451 32.6628C28.3977 32.2366 28.552 31.828 28.6186 31.4018C28.6852 30.9757 28.7027 30.4544 28.8254 29.993C28.9481 29.5315 29.0989 28.9997 29.197 28.4925C29.3022 27.9289 29.5476 27.4076 29.7053 26.8547C29.7434 26.5382 29.7995 26.2242 29.8736 25.9142C30.0058 25.739 30.1524 25.5753 30.3118 25.4246C30.0489 25.5197 29.7088 25.5021 29.53 25.7557L29.5581 25.7698ZM20.6538 26.1678C20.6253 26.2 20.6048 26.2384 20.5938 26.28C20.5829 26.3216 20.5818 26.3652 20.5907 26.4073C20.9225 30.4696 21.2532 34.5319 21.5828 38.5942L21.9999 38.9711C22.5433 38.9147 23.0902 38.9711 23.6301 38.9288C23.7325 38.8876 23.8194 38.8151 23.8785 38.7216C23.9377 38.628 23.966 38.5182 23.9596 38.4075C23.7352 35.4136 23.5319 32.4198 23.3005 29.4259C23.18 28.65 23.1261 27.8652 23.1393 27.0801C23.0477 26.962 22.9871 26.8227 22.9632 26.675C22.9393 26.5273 22.9529 26.3758 23.0026 26.2347C23.0516 26.0868 22.943 25.9494 22.8939 25.8156C22.7896 25.8894 22.6695 25.9377 22.5433 25.9565C22.2023 25.9649 21.8612 25.9461 21.5232 25.9001C21.4496 26.2911 21.3163 26.6715 21.2252 27.0589C21.2126 27.1378 21.1698 27.2086 21.106 27.2562C21.0534 26.7243 20.9938 26.1995 20.9693 25.6606C20.8817 25.8371 20.7809 26.0067 20.6678 26.1678H20.6538ZM29.9016 27.2245C29.8807 27.5448 29.8983 27.8665 29.9542 28.1825C30.0415 28.4523 30.1048 28.7293 30.1435 29.0103C30.4634 29.0137 30.7824 29.0444 31.0971 29.1018C31.1875 28.9668 31.2683 28.8256 31.339 28.6792C31.1707 28.6122 30.9884 28.5665 30.8306 28.4925C30.5209 28.2801 30.2444 28.0225 30.0103 27.7282C30.2242 27.3513 30.2101 26.911 30.3609 26.513C30.1923 26.738 30.0377 26.9732 29.8981 27.2174L29.9016 27.2245ZM16.2682 27.7317C16.1455 27.8233 16.1771 28.0029 16.1771 28.1367C16.1968 28.853 16.1664 29.5698 16.0859 30.2818C16.0927 30.5262 16.1512 30.7663 16.2577 30.9862C16.4399 31.4314 16.6459 31.8665 16.8747 32.2894C17.4216 33.2686 17.9264 34.2584 18.5013 35.2234C18.4593 35.4594 18.3856 35.6919 18.3576 35.9279C18.3786 36.2554 18.4487 36.5795 18.4593 36.9071C18.4426 37.1945 18.4426 37.4826 18.4593 37.77C18.5329 38.0733 18.6691 38.3576 18.8589 38.6048C18.944 38.7897 19.0629 38.957 19.2095 39.0979C19.7739 39.0662 20.2892 38.7879 20.8396 38.6893C20.9027 38.1328 20.9868 37.5833 21.0219 37.0268C20.9377 35.9244 20.8396 34.8184 20.7484 33.7159C20.6643 32.8424 20.6257 31.9548 20.5136 31.106C20.1455 30.8516 19.7574 30.6278 19.3532 30.4367C19.234 30.1127 19.206 29.7605 19.0868 29.4329C18.9656 29.0585 18.8071 28.6974 18.6135 28.3551C18.5303 28.2056 18.3957 28.0916 18.2349 28.0346C18.0364 28.0039 17.8362 27.9863 17.6354 27.9818C17.341 27.9325 17.071 27.774 16.7695 27.7563C16.596 27.737 16.4208 27.737 16.2472 27.7563L16.2682 27.7317ZM29.5896 28.0804C29.4775 28.4326 29.4319 28.8095 29.3232 29.1688C29.1725 29.6513 29.1094 30.1585 28.9727 30.6481C28.7693 31.5568 28.9306 32.4832 28.9341 33.3989C29.0393 33.4799 29.1409 33.6103 29.2847 33.5997C29.4284 33.5891 29.4319 33.4306 29.481 33.332C29.8315 32.5395 29.7509 31.6449 30.0629 30.8453C30.1917 30.4879 30.3648 30.1483 30.5782 29.8345C30.2277 29.926 29.8491 30.1303 29.4985 29.9753C29.4869 29.7794 29.4869 29.583 29.4985 29.3871C29.549 29.4863 29.6195 29.5738 29.7053 29.6442C29.9541 29.6394 30.2 29.5892 30.431 29.4963C30.1891 29.3977 29.9472 29.3096 29.7053 29.2216C29.6527 28.8412 29.6422 28.4573 29.5861 28.0804H29.5896ZM31.034 30.162C30.9772 30.4364 30.9537 30.7167 30.9639 30.9968C31.1066 31.4396 31.2982 31.8649 31.5353 32.2648C31.5974 32.3806 31.6766 32.4863 31.7701 32.5783C31.9604 32.4094 32.132 32.2205 32.282 32.0147C32.5347 32.2945 32.8249 32.5375 33.1444 32.7368C33.4073 32.8636 33.6281 33.0573 33.8981 33.1735C34.1645 33.2369 34.3748 33.0326 34.5992 32.9305C34.9701 33.1422 35.3273 33.3775 35.6684 33.6349C35.9804 33.7652 36.3415 33.7371 36.664 33.8498C36.5098 33.7159 36.352 33.5856 36.2048 33.4447C36.0443 33.2703 35.9246 33.0621 35.8542 32.8354C36.0662 32.9776 36.271 33.1304 36.4677 33.2933C36.6535 33.4236 36.8463 33.5363 37.0391 33.6455C37.621 33.9977 38.3327 33.9097 38.9707 33.8392C38.7142 34.0131 38.4217 34.1263 38.1153 34.1703C38.0557 34.3253 38.2345 34.3957 38.3502 34.4345C38.6757 34.4062 38.9907 34.3051 39.2722 34.1386C39.2161 34.3464 39.0233 34.4591 38.9216 34.6247C38.987 34.9728 39.0106 35.3276 38.9918 35.6813C38.8515 36.0899 38.7569 36.5126 38.6412 36.9317C39.0268 36.3893 39.1635 35.7236 39.3809 35.1037C39.5001 34.8043 39.5106 34.4732 39.6543 34.1844C39.829 34.6059 39.9469 35.0489 40.0049 35.5017C40.0357 35.8953 40.0884 36.2869 40.1626 36.6746C40.2538 37.1501 40.2923 37.6326 40.408 38.1046C40.5233 38.7958 40.5773 39.496 40.5693 40.1968C40.5693 40.8097 40.1276 41.2746 39.8997 41.81C40.2461 41.493 40.6191 41.2067 41.0145 40.9541C40.9794 40.1052 40.9759 39.2529 40.9549 38.397C40.9304 38.0322 40.9304 37.6663 40.9549 37.3016C40.8918 36.2449 40.6324 35.2164 40.4957 34.1668C40.495 34.1242 40.4857 34.0822 40.4682 34.0434C40.4507 34.0046 40.4255 33.9699 40.394 33.9414C40.3792 34.154 40.3862 34.3677 40.415 34.5789C40.4426 35.1826 40.5011 35.7845 40.5903 36.3822C40.6683 36.7584 40.6954 37.1435 40.671 37.527C40.5553 37.3121 40.6184 37.0585 40.5518 36.8225C40.4278 36.309 40.3307 35.7894 40.2608 35.2657C40.2117 34.829 40.082 34.4098 40.0259 33.9766C39.8272 34.1055 39.5993 34.1818 39.3633 34.1985C39.5386 34.0611 39.7875 34.0505 39.9383 33.878C40.146 33.6982 40.3133 33.4761 40.4291 33.2263C40.3835 33.0291 40.2888 32.8459 40.2363 32.6522C40.2109 32.523 40.1543 32.4021 40.0715 32.3C39.6067 31.7899 39.1845 31.2421 38.8095 30.6622C38.6674 30.4046 38.5057 30.1584 38.3257 29.926C38.3257 30.1655 38.3011 30.4051 38.3257 30.6305C38.4129 30.8457 38.5376 31.0437 38.6938 31.2152C38.7288 31.3631 38.5886 31.4864 38.529 31.6132C38.6552 31.7717 38.8305 31.9231 38.855 32.138C38.8294 32.1832 38.794 32.2221 38.7516 32.2519C38.7092 32.2818 38.6607 32.3018 38.6096 32.3106C38.3472 32.3823 38.0747 32.4097 37.8033 32.3916C37.3454 32.3926 36.9019 32.2303 36.5518 31.9337C36.2991 31.6994 35.999 31.5227 35.6719 31.4159C35.0192 31.1486 34.3188 31.0191 33.6141 31.0355C33.437 31.0357 33.2617 30.9998 33.0988 30.9299C33.1937 31.1751 33.311 31.4109 33.4493 31.6343C33.5817 31.7985 33.7246 31.9538 33.877 32.0992C33.8862 32.1197 33.8895 32.1423 33.8864 32.1645C33.8834 32.1867 33.8743 32.2076 33.8601 32.2249C33.8458 32.2421 33.827 32.255 33.8059 32.262C33.7847 32.2691 33.762 32.27 33.7403 32.2648C33.5862 32.1934 33.4374 32.111 33.2951 32.0182C33.211 31.9548 33.0988 31.9055 33.0672 31.7998C33.0322 31.6096 33.0672 31.4159 33.0672 31.2257C33.0096 31.055 32.9319 30.8919 32.8359 30.7397L32.5379 30.6023C32.4853 30.9017 32.5028 31.2046 32.4537 31.504C32.2679 31.0884 32.1312 30.6551 31.97 30.2289C31.8129 29.6976 31.713 29.1509 31.672 28.5982C31.4652 29.1124 31.2864 29.6548 31.062 30.1444L31.034 30.162ZM23.7282 31.7505C23.8509 33.6208 24.0262 35.4841 24.1629 37.3544C24.2053 37.714 24.2852 38.0682 24.4013 38.411L25.6143 38.7633C25.6598 38.6646 25.744 38.5766 25.7334 38.4604C25.6598 38.0579 25.5111 37.6731 25.2952 37.3262C24.7878 36.3861 24.4507 35.3628 24.2996 34.3041C24.1454 33.4799 23.9946 32.6557 23.8334 31.8386L23.7142 31.7752L23.7282 31.7505ZM28.545 32.6381C28.4713 33.244 28.2996 33.8392 28.2435 34.4486C28.3716 34.4071 28.4906 34.3413 28.594 34.2548C28.594 33.7159 28.594 33.177 28.552 32.6381H28.545ZM31.1637 34.9839C31.0655 35.1424 30.9463 35.2798 30.8447 35.4313C31.1065 35.3198 31.3807 35.2406 31.6615 35.1953C31.8603 35.2043 32.0576 35.2338 32.2504 35.2833C32.129 35.21 32.0306 35.1038 31.9665 34.9769C31.7281 34.5014 31.8928 33.959 31.8648 33.4588C31.4862 33.8885 31.3775 34.4591 31.1637 34.9769V34.9839ZM32.0997 33.6525C32.0912 34.1054 32.1575 34.5565 32.296 34.9875C32.4072 35.1293 32.5439 35.2487 32.6991 35.3397C32.9726 35.4136 33.26 35.3714 33.5335 35.4207C33.5089 35.2657 33.4844 35.1107 33.4669 34.9593C33.3036 35.0145 33.1294 35.0286 32.9595 35.0004C32.7895 34.9721 32.6291 34.9024 32.4923 34.7973C32.4243 34.7371 32.3703 34.6628 32.3339 34.5794C32.2976 34.496 32.2799 34.4057 32.282 34.3147C32.2518 34.09 32.1905 33.8707 32.0997 33.6631V33.6525ZM41.1582 36.9141C41.2914 38.1997 41.3545 39.4888 41.4422 40.7885C41.4422 40.9048 41.5439 40.9682 41.6245 41.0351C41.8393 40.9426 42.0291 40.8001 42.1784 40.6195C42.3088 40.3946 42.3967 40.1474 42.4378 39.8904C42.5254 39.6121 42.7884 39.429 42.8655 39.1507C42.9503 38.8282 42.9394 38.4878 42.8339 38.1715C42.6516 37.5446 42.5745 36.8648 42.1994 36.3118C41.926 35.9068 41.6946 35.47 41.3861 35.0896C41.1588 34.7401 40.9674 34.3684 40.8147 33.9801C40.9339 34.9593 41.039 35.9314 41.1652 36.9035L41.1582 36.9141ZM34.4169 34.1386C34.268 34.3014 34.0983 34.4435 33.9121 34.5613C34.1193 34.9467 34.4091 35.2811 34.7605 35.5404C35.1881 35.6426 35.6263 35.6848 36.0505 35.787C35.8086 35.5017 35.5177 35.2657 35.2828 34.9734C34.9183 34.786 34.6162 34.4959 34.4134 34.1386H34.4169ZM33.7649 34.7303C33.6246 34.9557 33.7403 35.2129 33.7824 35.4348C33.9436 35.4524 34.1014 35.47 34.2627 35.4841C34.0739 35.2439 33.9072 34.9869 33.7649 34.7162V34.7303ZM36.061 34.843C36.0979 35.1144 36.1859 35.3762 36.3205 35.6144C36.4256 35.7835 36.4992 36.023 36.7236 36.0653C37.3827 36.2519 37.8489 36.7697 38.2906 37.2734C38.6131 36.738 38.5956 36.0934 38.6096 35.4911C38.4472 35.6779 38.2539 35.8352 38.0382 35.9561C37.9641 35.9918 37.8823 36.0083 37.8002 36.004C37.7181 35.9997 37.6385 35.9747 37.5685 35.9314C37.1864 35.713 36.9199 35.3362 36.5378 35.1107C36.3801 35.0227 36.2188 34.9346 36.0645 34.8395L36.061 34.843ZM29.8456 35.9561C29.6878 35.9913 29.6072 36.1427 29.516 36.259C29.3468 36.4491 29.2094 36.6656 29.1094 36.9C29.3653 36.8225 29.4599 36.5478 29.6457 36.3858C29.9192 36.097 30.3469 36.0336 30.6203 35.7483C30.3575 35.7942 30.0994 35.8637 29.8491 35.9561H29.8456ZM30.5502 36.4844C30.3644 36.8366 30.2242 37.2381 30.0559 37.615C29.9663 37.8872 29.9388 38.1761 29.9753 38.4604C29.9753 38.6576 30.0594 38.8408 30.0559 39.0345C29.9804 39.1077 29.8955 39.1705 29.8035 39.2212C29.3548 39.4959 29.0007 39.9009 28.552 40.1792C27.9139 40.6512 27.2128 41.0281 26.5713 41.493C26.1471 41.7536 25.7019 41.979 25.2742 42.2397C25.0989 42.3416 24.9132 42.4242 24.7203 42.4863C24.4912 42.6172 24.2507 42.7269 24.0017 42.8138C23.3251 42.9547 22.6204 42.9477 21.9439 43.1167C21.8702 43.0251 21.751 42.9371 21.7651 42.8032C21.789 42.3455 21.8583 41.8912 21.9719 41.4472C21.9948 41.7206 22.0586 41.989 22.1612 42.2432C22.2138 42.3489 22.2769 42.4898 22.4206 42.4827C22.8081 42.4501 23.1925 42.3877 23.5705 42.296C23.7617 42.2754 23.9467 42.2155 24.1138 42.1199C24.5214 41.8358 24.9145 41.5314 25.2917 41.2077C25.3616 41.1473 25.418 41.0728 25.4572 40.9891C25.4965 40.9053 25.5178 40.8142 25.5196 40.7216C25.3408 40.2673 25.4179 39.7671 25.3513 39.2916C25.12 39.3368 24.8856 39.3651 24.6502 39.3761C24.1138 39.4571 23.5985 39.6227 23.0481 39.6685C22.347 39.7777 21.6213 39.9256 20.9027 40.0489C20.9938 40.6899 20.9027 41.345 21.0499 41.9826C21.1089 42.1763 21.1779 42.3667 21.2568 42.5532C21.3023 42.7046 21.2918 42.8666 21.3269 43.0216C21.3619 43.1766 21.4741 43.2259 21.5723 43.3104C21.7405 43.7965 21.9999 44.2403 22.1752 44.7193C22.2121 44.8396 22.2729 44.951 22.354 45.0469C22.4171 44.987 22.4977 44.9307 22.4837 44.832C22.4892 44.4767 22.4527 44.122 22.375 43.7754C22.5328 43.8493 22.687 43.9938 22.8728 43.9444L24.3978 43.7472C24.0262 44.1945 23.6511 44.6383 23.2725 45.0821C23.5323 45.0637 23.7933 45.0911 24.0437 45.1631C24.8781 45.4872 25.7194 45.8042 26.5538 46.1282C26.8272 46.2022 27.1462 46.3325 27.4091 46.1634C27.0586 45.9415 26.6309 45.8429 26.3294 45.5471C26.1861 45.4182 26.0673 45.2642 25.9788 45.0927C26.3574 45.223 26.6484 45.5682 27.0691 45.5682C27.4245 45.5944 27.7767 45.6545 28.1208 45.7478C28.587 45.5294 29.0463 45.2934 29.488 45.0434C29.8074 44.8302 30.0943 44.5715 30.3398 44.2755C30.2066 44.6066 30.0945 44.9447 29.9507 45.2723C29.9507 45.2899 29.9507 45.3287 29.9507 45.3498C30.4156 44.773 30.8296 44.1566 31.1882 43.5077C31.1055 44.1205 30.9429 44.7198 30.7044 45.2899C30.6485 45.4864 30.5697 45.6756 30.4696 45.8535C30.2216 46.0632 29.9592 46.255 29.6843 46.4276C29.9542 46.565 30.1891 46.7798 30.4555 46.9031C30.7555 46.1973 31.0016 45.4696 31.1917 44.7264C31.3179 44.1734 31.4371 43.6134 31.5703 43.0639C31.4862 44.5045 31.3775 45.9415 31.2829 47.3821C31.5493 47.5371 31.8262 47.6745 32.0927 47.8294C32.0927 46.9841 32.0261 46.1388 32.0506 45.2935C32.0159 44.9671 32.0042 44.6387 32.0155 44.3108C32.0014 43.9839 32.0453 43.6571 32.1452 43.3457C32.1387 43.8975 32.1668 44.4493 32.2294 44.9976C32.2644 45.1948 32.2715 45.3886 32.2925 45.5858C32.7833 45.0645 33.3652 44.6454 33.8455 44.1135C34.2241 43.6098 34.2521 42.9618 34.4064 42.3524C34.4344 42.1728 34.5466 41.972 34.4484 41.7924C34.3222 41.5071 34.1575 41.2394 34.0032 40.9682C33.8708 40.8012 33.6912 40.6784 33.4879 40.616C32.989 40.3931 32.4616 40.2414 31.9209 40.1651C31.5949 40.1299 31.2723 40.07 30.9463 40.0313C31.4749 40.0331 32.0029 40.0672 32.5274 40.1334C33.1332 40.1723 33.7095 40.4099 34.168 40.8097C34.4183 41.1057 34.6088 41.4478 34.7289 41.817C34.9377 42.2698 35.1852 42.7035 35.4686 43.1132C35.6784 43.3553 35.9332 43.5539 36.2188 43.6979C36.2796 43.7363 36.3306 43.7884 36.3677 43.8502C36.4048 43.912 36.4269 43.9816 36.4324 44.0535C36.4378 44.1255 36.4264 44.1977 36.3991 44.2644C36.3717 44.331 36.3292 44.3904 36.2749 44.4375C35.9939 44.6743 35.6827 44.8721 35.3494 45.0258C34.9322 45.1948 34.48 45.2124 34.0593 45.378C33.5791 45.5576 33.0567 45.5576 32.587 45.7654C32.4817 45.8244 32.3897 45.9048 32.317 46.0014C32.317 46.0507 32.317 46.1493 32.3346 46.1987C32.5152 46.2166 32.6972 46.2166 32.8779 46.1987C33.544 46.1176 34.2276 46.3008 34.8796 46.0789C35.104 45.9873 35.3354 45.9134 35.5808 45.8359C35.8577 45.702 36.1066 45.5118 36.373 45.3604C36.566 45.2275 36.7256 45.0515 36.8393 44.8461C37.059 44.5291 37.281 44.2145 37.5054 43.9022C37.2317 43.9007 36.9585 43.8772 36.6885 43.8317C36.4741 43.7076 36.2732 43.5612 36.0891 43.395C35.7385 43.0111 35.7385 42.4616 35.4896 42.0213C35.1683 41.3712 34.7458 40.7767 34.2381 40.2602C33.9768 40.1444 33.7025 40.0604 33.4213 40.0101C32.8862 39.8588 32.3399 39.7505 31.7877 39.6861C31.395 39.6614 30.9954 39.6861 30.6063 39.6438C30.804 39.5217 31.0272 39.4469 31.2583 39.4254C31.7813 39.3508 32.3128 39.3615 32.8324 39.4571C33.3407 39.51 33.835 39.6227 34.3398 39.6931C34.8446 39.7636 35.2547 40.1158 35.6965 40.3624C35.894 40.49 36.0702 40.6481 36.2188 40.8308C36.3177 41.1321 36.4519 41.4206 36.6184 41.6902C36.4844 41.8596 36.379 42.05 36.3064 42.2538C36.331 42.5461 36.5764 42.7398 36.7481 42.9582C36.9199 43.1766 37.2144 43.2435 37.4493 43.3668C37.5755 43.4232 37.6175 43.5676 37.6806 43.6768C38.0943 43.2752 38.6622 43.0956 39.0829 42.7187C39.2077 42.5745 39.3029 42.4068 39.3631 42.2255C39.4233 42.0442 39.4472 41.8527 39.4335 41.662C39.3984 41.264 39.3248 40.8696 39.2722 40.4715C39.2477 40.8238 39.2722 41.1513 39.2722 41.4895C39.2521 41.6087 39.1929 41.7178 39.1039 41.7994C38.82 42.0741 38.4869 42.2996 38.1855 42.5637C38.0544 42.6881 37.9025 42.7883 37.7367 42.8596C37.6666 42.8807 37.5685 42.7821 37.6456 42.7293C37.9576 42.3418 38.2731 41.9579 38.6202 41.6022C38.6702 41.5553 38.7107 41.4991 38.7393 41.4366C38.6412 40.8343 38.5746 40.2285 38.4729 39.6297C38.4218 39.039 38.3411 38.4512 38.231 37.8686C37.9612 37.4787 37.5851 37.1754 37.1478 36.9951C37.2436 37.3258 37.3116 37.6639 37.3511 38.006C37.4609 38.8702 37.5043 39.7416 37.4808 40.6124C37.4508 40.8666 37.3944 41.1168 37.3126 41.3591C37.1162 41.2676 36.9269 41.1725 36.7411 41.0703C36.8709 40.7495 36.9592 40.4133 37.0041 40.07C37.0527 39.4058 37.041 38.7385 36.969 38.0764C36.9592 37.6709 36.9027 37.2679 36.8007 36.8754C36.7899 36.834 36.7706 36.7955 36.744 36.7621C36.7174 36.7288 36.6842 36.7013 36.6465 36.6816C36.3946 36.5492 36.1304 36.4419 35.8577 36.3611C35.2788 36.1421 34.6672 36.023 34.0488 36.0089C33.6632 36.5654 33.1689 37.0409 32.7973 37.6115C32.7062 37.7559 32.5799 37.9074 32.6045 38.087C32.629 38.2666 32.934 38.2842 33.0988 38.3688C32.8429 38.4568 32.5835 38.5132 32.3275 38.5942C31.8788 38.7245 31.4652 38.9464 31.0199 39.0908C30.7334 39.2036 30.4537 39.333 30.1821 39.4783C30.5327 39.1965 30.8832 38.9323 31.2128 38.6506C31.5423 38.3688 31.8122 38.006 32.1488 37.7242C32.7515 37.2145 33.2885 36.6312 33.7473 35.9878C33.1724 35.8891 32.5905 35.8293 31.9945 35.7694C31.4904 35.9907 30.9988 36.24 30.5221 36.5161L30.5502 36.4844ZM17.1517 36.2519C16.9402 36.3137 16.7358 36.3975 16.5417 36.502C16.3744 36.6962 16.2395 36.9162 16.142 37.1536C15.7751 37.8763 15.4554 38.6222 15.185 39.3867C15.5356 39.6051 15.6618 39.9996 15.9177 40.2954C16.0719 40.4821 16.2297 40.6723 16.3909 40.8519C16.3348 41.4789 16.2297 42.0988 16.121 42.7152C16.1009 42.8053 16.0939 42.8978 16.1 42.9899C16.2647 43.6627 16.5382 44.3107 16.6644 44.9976C16.7555 45.4273 16.9028 45.8429 17.0149 46.2691C17.0381 46.5139 17.0381 46.7604 17.0149 47.0052C17.2849 47.3575 17.4461 47.7555 17.6845 48.1183C17.9027 48.0713 18.1137 47.9955 18.312 47.8928C18.2209 48.3331 17.986 48.7417 17.986 49.1996C17.9903 49.2768 18.0168 49.3512 18.0622 49.4136C18.1076 49.4761 18.17 49.5241 18.2419 49.5518C18.4734 49.5978 18.7116 49.5978 18.943 49.5518C19.2692 49.4339 19.5427 49.2028 19.7143 48.9002C20.142 48.2732 20.766 47.8435 21.3128 47.3187C21.1446 47.2941 20.9623 47.2941 20.808 47.2765C20.7099 47.2765 20.5837 47.2025 20.6818 47.1074C20.9545 46.9317 21.2492 46.7931 21.5582 46.6953C21.4494 46.1753 21.2981 45.6652 21.106 45.1702C20.9518 44.818 20.8291 44.4833 20.6994 44.1382C20.2857 43.0815 20.0368 41.972 19.6477 40.9048C19.2445 39.9679 18.7677 39.0591 18.291 38.1539C18.1122 37.4671 18.0456 36.745 17.9054 36.0653C17.6503 36.0796 17.3993 36.1356 17.1622 36.2308L17.1517 36.2519ZM26.5538 38.5202C26.3345 38.6548 26.1409 38.8278 25.9823 39.031C26.2523 38.9781 26.5222 38.9182 26.7921 38.8478C26.8868 38.8231 26.9324 38.728 26.9885 38.6611C27.455 38.143 27.8127 37.5356 28.0402 36.8754C27.6265 37.4882 27.2093 38.1539 26.5397 38.5202H26.5538ZM28.7413 37.925C28.4153 38.6611 28.0402 39.3867 27.6896 40.1052C27.7335 40.1441 27.7804 40.1794 27.8298 40.2109C28.2722 39.971 28.6891 39.6866 29.0743 39.362C28.9585 39.3435 28.8476 39.3015 28.7483 39.2388C28.9166 38.6259 29.0989 38.0095 29.2321 37.3931C29.0603 37.5622 28.8254 37.6855 28.7413 37.9285V37.925ZM13.0185 39.5452C13.6776 40.0771 14.2981 40.6582 14.9396 41.2112C14.7648 40.7411 14.4683 40.3265 14.0807 40.0101C13.8003 39.753 13.5584 39.4642 13.306 39.1859L13.0185 39.5381V39.5452ZM46.5674 39.2458C46.6098 39.3562 46.6602 39.4633 46.7182 39.5663C46.692 39.7364 46.7064 39.9102 46.7602 40.0735C46.8409 40.3412 46.7602 40.6265 46.8233 40.8942C46.859 40.9799 46.9269 41.0479 47.0123 41.0835C47.0976 41.1191 47.1935 41.1195 47.2791 41.0844C47.3175 40.8713 47.3175 40.653 47.2791 40.4398C47.2055 40.1933 47.1774 39.9362 47.0898 39.6967C46.9388 39.5222 46.7627 39.3715 46.5674 39.2493V39.2458ZM8.99404 40.5561C8.88537 40.6054 8.74865 40.6477 8.69957 40.7639C8.5313 41.1161 8.52779 41.5388 8.37705 41.9086C8.22631 42.2784 8.10361 42.6624 7.94586 43.0322C7.82065 43.3328 7.75173 43.654 7.74253 43.9797C7.74253 44.6383 7.68995 45.2935 7.67592 45.9521C7.678 46.2796 7.65691 46.6068 7.61282 46.9313C7.60788 47.1126 7.63275 47.2935 7.68644 47.4667C7.73201 47.7696 7.81615 48.0654 7.88275 48.3648C7.91281 48.4441 7.92525 48.5289 7.9192 48.6135C7.91314 48.6981 7.88874 48.7803 7.8477 48.8544C7.53034 49.3921 7.17044 49.9033 6.77147 50.383C6.47861 50.8373 6.36254 51.384 6.44545 51.9187C6.80599 52.1792 7.20292 52.3845 7.62334 52.5281C8.76612 52.4089 9.90056 52.2195 11.0203 51.961C11.65 51.4809 12.17 50.8708 12.5452 50.1717C12.8988 49.6349 13.2072 49.0694 13.4672 48.4811L12.8783 48.4C12.8779 48.0232 12.8439 47.6472 12.7766 47.2765C12.7589 47.1866 12.7196 47.1024 12.6622 47.0312C12.6048 46.96 12.5309 46.9039 12.4471 46.8679C12.1561 46.7517 11.8336 46.7376 11.5496 46.6037C11.3934 46.3781 11.3158 46.1069 11.3288 45.8324C11.3288 45.2547 11.3709 44.6771 11.3744 44.1029C11.4164 42.8455 11.3919 41.5916 11.3954 40.3342C11.3954 40.1862 11.3498 39.9538 11.1605 39.9608C10.4207 40.0891 9.69508 40.2896 8.99404 40.5596V40.5561ZM19.7669 40.2778C19.7547 40.5166 19.8145 40.7536 19.9386 40.9576C20.1455 41.5986 20.4049 42.2221 20.6678 42.842C20.787 43.233 20.9202 43.6169 21.0499 44.0043C21.1661 44.2998 21.3155 44.5811 21.4951 44.8426C21.5934 45.025 21.711 45.1962 21.8457 45.3533C21.9403 45.4449 22.1261 45.3251 22.042 45.2089C21.5863 44.5573 21.383 43.7719 20.9903 43.0956C20.77 42.6251 20.603 42.1313 20.4925 41.6233C20.3486 41.1736 20.2626 40.7072 20.2366 40.2355C20.0789 40.2567 19.9141 40.2673 19.7563 40.2778H19.7669ZM4.71717 42.2397C4.67404 42.2721 4.63829 42.3133 4.6123 42.3607C4.5863 42.4081 4.57066 42.4605 4.56643 42.5144C4.52436 42.9477 4.59447 43.3879 4.51384 43.8141C4.43321 44.2403 4.21236 44.7158 4.16328 45.1878C4.10866 45.7657 4.12987 46.3483 4.22638 46.9207C4.22071 47.2977 4.14952 47.6708 4.01604 48.0232C3.94701 48.1819 3.93342 48.3594 3.97748 48.5268C4.08615 48.7804 4.18431 49.034 4.26845 49.2982C4.49841 49.3748 4.73249 49.4383 4.96957 49.4884C5.33757 49.5953 5.71609 49.6614 6.09839 49.6857C5.81794 49.4919 5.56904 49.2595 5.2991 49.0552C5.113 48.9128 4.9559 48.7359 4.83636 48.5339C4.72768 48.3366 4.52786 48.1817 4.45775 47.9774C4.40544 47.676 4.4522 47.3656 4.59096 47.0933C4.84688 46.5403 5.08526 45.9768 5.37272 45.4343C5.50541 45.1289 5.66993 44.8385 5.86351 44.5679C5.8786 45.0854 5.84456 45.6031 5.76185 46.1141C6.13582 45.7963 6.48724 45.4527 6.81354 45.0856C6.92814 44.9316 6.99298 44.746 6.99934 44.5538C7.10451 43.7413 7.20851 42.9289 7.31134 42.1164C7.07676 41.9956 6.83432 41.8909 6.58567 41.8029C6.27799 41.675 5.96169 41.5691 5.63915 41.4859C5.32014 41.729 5.01164 41.9826 4.71016 42.2432L4.71717 42.2397ZM43.507 44.4375C42.747 44.951 42.1109 45.6286 41.645 46.4208C41.1792 47.2131 40.8955 48.0999 40.8147 49.0164C40.7224 50.05 40.9941 51.0834 41.5824 51.9363C41.5474 51.8448 41.5123 51.7602 41.4737 51.6757C41.1088 50.8554 40.987 49.9468 41.1232 49.0587C41.3623 47.4676 42.2085 46.0325 43.4825 45.0575C44.0339 44.608 44.6741 44.2814 45.3607 44.0992C46.0472 43.917 46.7645 43.8835 47.4649 44.0008C48.3301 44.1778 49.1092 44.6463 49.6734 45.3287C49.3432 44.7875 48.8827 44.3387 48.3344 44.0235C47.786 43.7083 47.1675 43.537 46.5359 43.5253C45.4571 43.5027 44.3991 43.8245 43.514 44.4446L43.507 44.4375ZM34.5221 44.8673C34.2903 44.9099 34.0527 44.9099 33.8209 44.8673C33.6071 45.0152 33.3897 45.1631 33.1829 45.3252C33.3757 45.2899 33.5615 45.2336 33.7473 45.1807C34.1384 45.1045 34.522 44.9937 34.8937 44.8497C34.7773 44.8241 34.6563 44.8302 34.5431 44.8673H34.5221ZM14.9116 47.1673C14.8188 47.3537 14.7368 47.5454 14.6662 47.7414C14.4655 48.094 14.2418 48.4329 13.9966 48.7558C13.3586 49.6082 12.8678 50.5556 12.2753 51.4327C11.9482 51.7804 11.5968 52.1041 11.2236 52.4013C10.4501 52.5975 9.66586 52.7481 8.87485 52.8521C8.39167 52.8758 7.90761 52.8295 7.43754 52.7148C7.14307 52.6654 6.8521 52.595 6.55763 52.5422C6.46998 52.5422 6.36131 52.4893 6.2947 52.5739C6.1054 52.7429 6.19304 53.0177 6.24562 53.2255C6.55486 53.6533 7.01741 53.9438 7.5357 54.0356C7.92103 54.1563 8.31474 54.2481 8.71359 54.3103C9.23593 54.3526 9.73724 54.4864 10.2526 54.5498C10.5423 54.6903 10.8142 54.8653 11.0624 55.0711C11.2622 55.1979 11.434 55.3635 11.6408 55.4797C12.0334 55.5008 12.4331 55.4797 12.8292 55.4797C12.9933 55.4033 13.1349 55.2857 13.2406 55.1382C13.3462 54.9908 13.4122 54.8185 13.4322 54.6379C13.4063 54.2836 13.4335 53.9274 13.5128 53.5812C13.639 53.1903 13.653 52.7746 13.8003 52.3942C14.1508 51.9258 14.6311 51.57 15.0272 51.1403C15.4234 50.7106 15.7669 50.4077 16.149 50.052C16.3006 49.8804 16.4066 49.6733 16.4575 49.4497C16.5465 49.1197 16.6542 48.7951 16.7801 48.4775C16.6609 48.2592 16.4295 48.0654 16.4681 47.7942C16.4681 47.4138 16.5347 47.0264 16.5277 46.646C16.3998 46.1718 16.2309 45.7098 16.0228 45.2653C15.6372 45.8922 15.2656 46.5297 14.8765 47.1567L14.9116 47.1673ZM23.1217 45.3005L22.1963 46.4135C22.2313 46.7164 22.2383 47.0193 22.2909 47.3152C22.4206 47.5758 22.6134 47.7977 22.7607 48.0478C22.9079 48.2979 23.276 48.4 23.5564 48.5233C23.8414 48.6452 24.1081 48.8064 24.3487 49.0023C24.8045 49.0728 25.2707 49.0023 25.7194 49.1045C28.4772 50.133 31.2326 51.1662 33.9857 52.204C34.0769 52.204 34.1154 52.3027 34.1435 52.3837C34.4449 53.2924 34.7476 54.1988 35.0514 55.1028C34.9498 55.2895 34.8271 55.455 34.7009 55.6382C34.6622 55.696 34.6461 55.7661 34.6558 55.835C34.6655 55.904 34.7003 55.9668 34.7534 56.0116C35.1339 56.0555 35.5174 56.0673 35.8998 56.0468C36.2124 55.9142 36.5491 55.8483 36.8884 55.8531C37.2285 55.9018 37.5753 55.8427 37.8805 55.684C37.9821 55.0641 37.9997 54.4266 38.0768 53.7996C37.9068 53.5487 37.7156 53.313 37.5054 53.0952C37.4878 52.9684 37.4703 52.838 37.4528 52.7148C37.4177 52.3238 37.2354 51.961 37.1969 51.5736C36.8288 51.4679 36.4572 51.3658 36.0891 51.2707C35.924 51.24 35.7652 51.1817 35.6193 51.0981C34.4555 50.2527 33.2846 49.4144 32.1137 48.5726C31.3425 48.0091 30.5817 47.4244 29.7789 46.8996C29.6002 46.7904 29.4564 46.5826 29.2286 46.5861C28.5905 46.6072 27.949 46.5262 27.3075 46.4945C26.9779 46.4593 26.6414 46.4769 26.3189 46.4135C25.46 46.0613 24.6116 45.7091 23.7563 45.3569C23.5486 45.3072 23.335 45.287 23.1217 45.297V45.3005ZM50.0135 45.8535C50.2639 46.4092 50.4124 47.0058 50.4517 47.6146C50.4837 48.9173 50.0988 50.1959 49.3535 51.2624C48.6082 52.3289 47.5419 53.1269 46.3115 53.539C45.7576 53.7271 45.171 53.7986 44.5884 53.7489C44.0057 53.6992 43.4395 53.5294 42.9251 53.2501C42.6009 53.0526 42.3018 52.816 42.0346 52.5457C42.4181 53.0178 42.917 53.3819 43.4825 53.6024C44.5484 53.9964 45.7234 53.97 46.7708 53.5284C47.7014 53.1403 48.5232 52.529 49.1643 51.748C49.8054 50.9669 50.2462 50.04 50.4482 49.0481C50.6816 47.9623 50.5265 46.8286 50.01 45.8464L50.0135 45.8535ZM20.1805 48.8579C20.6538 48.9108 21.127 48.9988 21.6038 49.0376C21.7721 48.9847 21.7896 48.7804 21.8212 48.636C21.9123 48.2275 21.6844 47.8576 21.5127 47.5054C21.0246 47.9102 20.5783 48.3633 20.1805 48.8579ZM6.85911 48.9002C6.76796 49.0869 6.88365 49.2876 6.93273 49.4673C7.06306 49.1406 7.22141 48.826 7.40599 48.5268C7.33237 48.3648 7.26226 48.2028 7.19916 48.0373C7.10131 48.3323 6.9842 48.6206 6.84859 48.9002H6.85911ZM20.0929 49.4708C19.7423 49.6504 19.4268 49.8618 19.0938 50.0625C19.1744 50.3866 19.241 50.7141 19.3076 51.0417C19.5211 51.6392 19.6394 52.2669 19.6582 52.9014C19.7002 53.3171 19.5109 53.7045 19.4724 54.1131C19.4478 54.3702 19.4198 54.6203 19.3918 54.8703C19.4042 55.1072 19.4955 55.333 19.6512 55.5114H20.8641C21.2638 55.5114 21.6283 55.3071 22.0175 55.2648C22.4732 55.3353 22.9149 55.4445 23.3636 55.5255C23.6673 55.6013 23.977 55.6508 24.2891 55.6734H27.2444C27.1778 55.5044 27.1147 55.3212 27.0516 55.1592C26.3504 54.9901 25.6738 54.8492 24.9832 54.6907C24.8986 54.6701 24.8188 54.633 24.7484 54.5815L23.0727 53.4122C22.8398 53.2225 22.6175 53.0203 22.4066 52.8063C22.2664 52.6654 22.0841 52.5351 22.056 52.3238C21.9158 51.3869 21.7651 50.4535 21.6213 49.506C21.2077 49.4602 20.787 49.4567 20.3698 49.425C20.2761 49.4092 20.1797 49.4214 20.0929 49.4602V49.4708ZM17.5548 49.6575C17.2042 50.0097 16.8747 50.3619 16.5031 50.686C16.2787 50.8832 16.0719 51.1051 15.8511 51.3094C15.3357 51.8025 14.7328 52.2005 14.256 52.7394C14.0596 52.9987 13.8981 53.283 13.7757 53.5847C13.5899 53.8806 13.6811 54.2434 13.6706 54.571C13.6603 54.8422 13.6203 55.1116 13.5514 55.374C13.6211 55.4595 13.7081 55.529 13.8066 55.5782C13.9051 55.6274 14.0129 55.655 14.1228 55.6593C14.568 55.6593 15.0167 55.6347 15.4619 55.6206C16.3383 55.5783 17.2148 55.5748 18.0947 55.4515C18.1543 55.1944 18.2314 54.9443 18.291 54.6872C18.3506 54.4301 18.3366 54.18 18.3821 53.9299C18.4102 53.782 18.5539 53.6834 18.5714 53.5319C18.6438 52.8559 18.6649 52.1753 18.6345 51.4961C18.6065 51.2319 18.6766 50.936 18.5189 50.7036C18.2594 50.3302 17.993 49.9639 17.7371 49.587C17.6754 49.5933 17.6164 49.6151 17.5653 49.6504L17.5548 49.6575ZM4.4893 49.9428C4.72421 51.0405 4.8487 52.1591 4.8609 53.2818C4.71299 54.1412 4.3699 54.9548 3.85829 55.6593C4.29649 55.6593 4.7347 55.6593 5.17641 55.6593C5.49892 55.5008 5.52697 55.0887 5.76886 54.8668L5.96517 54.6766C5.96517 54.4653 6.00023 54.254 6.01776 54.0462C5.93013 53.8614 5.8306 53.6825 5.71978 53.5108C5.60409 53.0353 5.90908 52.5527 5.71978 52.1019C5.6076 51.563 5.47438 51.0241 5.40778 50.4782C5.09002 50.3241 4.78105 50.1524 4.48229 49.9639L4.4893 49.9428ZM6.49102 54.2152C6.6663 54.7154 6.93974 55.1662 7.14657 55.6558C7.7846 55.6805 8.42613 55.5959 9.06415 55.6171C9.70218 55.6382 10.3367 55.6347 10.9677 55.5924C10.6965 55.3446 10.3906 55.1381 10.0598 54.9795C9.39018 54.807 8.68204 54.8316 8.01948 54.6273C7.68995 54.5639 7.36392 54.4653 7.02738 54.4336C6.83839 54.3892 6.65743 54.3156 6.49102 54.2152ZM5.90558 55.3282C6.17186 55.5122 6.4764 55.6326 6.79601 55.6805C6.71856 55.4616 6.60993 55.2551 6.47349 55.0676C6.36482 55.0465 6.25965 55.0218 6.15097 54.9936C6.03914 55.0779 5.95392 55.1929 5.90558 55.3247V55.3282ZM40.72 55.7615C41.2755 56.1797 41.9411 56.4247 42.6341 56.4659C43.1494 56.5188 43.6858 56.6632 44.1871 56.5011C43.122 56.5453 42.0618 56.3327 41.0951 55.8812C40.9784 55.8186 40.8513 55.778 40.72 55.7615Z" fill="white"/>
</svg>
