<svg width="15" height="14" viewBox="0 0 15 14" fill="none" xmlns="http://www.w3.org/2000/svg">
<path d="M7.52096 0.5C3.92072 0.5 1 3.41133 1 7C1 10.5887 3.92072 13.5 7.52096 13.5C11.1212 13.5 14.0419 10.5887 14.0419 7C14.0419 3.41133 11.1212 0.5 7.52096 0.5ZM7.52096 12.6444C4.39757 12.6444 1.85833 10.1133 1.85833 7C1.85833 3.88665 4.39757 1.35558 7.52096 1.35558C10.6443 1.35558 13.1836 3.88665 13.1836 7C13.1836 10.1133 10.6443 12.6444 7.52096 12.6444Z" fill="white" stroke="white" stroke-width="0.5"/>
<rect x="6.97949" y="2.66797" width="1.08683" height="4.875" rx="0.543413" fill="white" stroke="white" stroke-width="0.5"/>
<rect x="6.97949" y="7.54297" width="1.08333" height="4.89072" rx="0.541667" transform="rotate(-90 6.97949 7.54297)" fill="white" stroke="white" stroke-width="0.5"/>
</svg>
