<svg width="34" height="34" viewBox="0 0 34 34" fill="none" xmlns="http://www.w3.org/2000/svg">
<path fill-rule="evenodd" clip-rule="evenodd" d="M27 10.0124C26.2652 10.3538 25.4739 10.5846 24.6439 10.6877C25.4914 10.1573 26.1419 9.31613 26.4483 8.31429C25.6547 8.80549 24.7778 9.16281 23.841 9.35438C23.0944 8.52068 22.0273 8 20.8463 8C18.5818 8 16.7447 9.9216 16.7447 12.2915C16.7447 12.628 16.7798 12.9545 16.8503 13.269C13.4404 13.0895 10.4176 11.3828 8.39248 8.78333C8.0392 9.4194 7.83717 10.1573 7.83717 10.9432C7.83717 12.4314 8.56154 13.7452 9.66261 14.5151C8.99122 14.4943 8.35717 14.299 7.80311 13.9798V14.0325C7.80311 16.1126 9.21762 17.8475 11.0959 18.2405C10.752 18.3413 10.3892 18.3916 10.0146 18.3916C9.75058 18.3916 9.4923 18.3658 9.24215 18.3155C9.76449 20.0198 11.2788 21.2612 13.0749 21.2943C11.6709 22.4462 9.90074 23.1324 7.97905 23.1324C7.64796 23.1324 7.32046 23.1128 7 23.0735C8.81607 24.289 10.9737 25 13.2897 25C20.8379 25 24.9641 18.4614 24.9641 12.7899C24.9641 12.6033 24.9605 12.4166 24.9535 12.2337C25.7556 11.6284 26.4517 10.8732 27 10.0124Z" fill="#5A79A8"/>
</svg>
