<svg width="34" height="34" viewBox="0 0 34 34" fill="none" xmlns="http://www.w3.org/2000/svg">
<path d="M27.8039 22.4871C27.7448 22.3767 27.379 21.4902 25.6189 19.6683C23.7762 17.7604 24.0238 18.0702 26.2432 14.7713C27.5949 12.7622 28.1353 11.5353 27.9662 11.0108C27.8053 10.5108 26.8111 10.6427 26.8111 10.6427L23.5053 10.6642C23.5053 10.6642 23.2606 10.6274 23.0777 10.7486C22.9003 10.8682 22.7862 11.1442 22.7862 11.1442C22.7862 11.1442 22.2623 12.6994 21.5637 14.0214C20.091 16.8111 19.501 16.9583 19.2604 16.785C18.7007 16.3817 18.841 15.1624 18.841 14.2974C18.841 11.5936 19.2082 10.4664 18.1246 10.175C17.7643 10.0783 17.5003 10.0139 16.5803 10.0032C15.4005 9.98939 14.4008 10.0078 13.8356 10.3161C13.4589 10.5216 13.1687 10.9801 13.3461 11.0062C13.5647 11.0384 14.0598 11.155 14.3224 11.5537C14.6621 12.0675 14.6497 13.2239 14.6497 13.2239C14.6497 13.2239 14.845 16.4062 14.1945 16.8019C13.7476 17.0733 13.1357 16.5197 11.8225 13.9876C11.1501 12.6917 10.6413 11.2577 10.6413 11.2577C10.6413 11.2577 10.5436 10.9909 10.369 10.8482C10.1572 10.6749 9.86022 10.6197 9.86022 10.6197L6.71673 10.6412C6.71673 10.6412 6.24507 10.6565 6.07181 10.885C5.9178 11.089 6.05944 11.5092 6.05944 11.5092C6.05944 11.5092 8.52087 17.9306 11.3068 21.1682C13.8631 24.1358 16.7646 23.941 16.7646 23.941H18.0792C18.0792 23.941 18.4766 23.8919 18.6787 23.6481C18.8658 23.4242 18.8589 23.004 18.8589 23.004C18.8589 23.004 18.8327 21.0363 19.6523 20.7464C20.4595 20.4612 21.4963 22.6482 22.595 23.4901C23.4256 24.1266 24.0568 23.987 24.0568 23.987L26.9953 23.941C26.9953 23.941 28.5327 23.8352 27.8039 22.4871Z" fill="#5A79A8"/>
</svg>
