<svg width="34" height="34" viewBox="0 0 34 34" fill="none" xmlns="http://www.w3.org/2000/svg">
<path d="M27.5673 12.3471C27.3253 11.4293 26.616 10.7058 25.7165 10.4587C24.0732 10 17.4998 10 17.4998 10C17.4998 10 10.9266 10 9.28329 10.4413C8.40107 10.6882 7.67445 11.4295 7.43246 12.3471C7 14.0235 7 17.5 7 17.5C7 17.5 7 20.994 7.43246 22.6529C7.67471 23.5705 8.38377 24.294 9.28342 24.5412C10.9439 25 17.5 25 17.5 25C17.5 25 24.0732 25 25.7165 24.5587C26.6161 24.3117 27.3253 23.5882 27.5676 22.6705C27.9999 20.994 27.9999 17.5177 27.9999 17.5177C27.9999 17.5177 28.0172 14.0235 27.5673 12.3471ZM15.4069 20.7117V14.2883L20.873 17.5L15.4069 20.7117Z" fill="#5A79A8"/>
</svg>
